<?xml version="1.0" encoding="UTF-8" standalone="no"?>
<!DOCTYPE svg PUBLIC "-//W3C//DTD SVG 1.1//EN"
"http://www.w3.org/Graphics/SVG/1.1/DTD/svg11.dtd">


<!-- Page 1 -->
<svg x="0" y="0" width="881" height="1260" viewBox="0 0 881 1260" version="1.1" xmlns="http://www.w3.org/2000/svg" xmlns:xlink="http://www.w3.org/1999/xlink"
style="display: block;margin-left: auto;margin-right: auto;">
<defs>

<style type="text/css"><![CDATA[

.g1_1{
fill: #DFDFDF;
}
.g2_1{
fill: #00FFFF;
}
.g3_1{
fill: none;
stroke: #000000;
stroke-width: 1.0975593;
stroke-linecap: round;
stroke-linejoin: miter;
}
.g4_1{
fill: #00FEFE;
}
.g5_1{
fill: #00FDFD;
}
.g6_1{
fill: #00FCFC;
}
.g7_1{
fill: #00FBFB;
}
.g8_1{
fill: #00FAFB;
}
.g9_1{
fill: #00FAFA;
}
.g10_1{
fill: #00F9F9;
}
.g11_1{
fill: #00F8F8;
}
.g12_1{
fill: #00F7F7;
}
.g13_1{
fill: #00F6F7;
}
.g14_1{
fill: #00F6F6;
}
.g15_1{
fill: #00F5F5;
}
.g16_1{
fill: #00F4F4;
}
.g17_1{
fill: #00F3F3;
}
.g18_1{
fill: #00F2F3;
}
.g19_1{
fill: #00F2F2;
}
.g20_1{
fill: #00F1F1;
}
.g21_1{
fill: #00F0F0;
}
.g22_1{
fill: #00EFEF;
}
.g23_1{
fill: #00EEEF;
}
.g24_1{
fill: #00EDEE;
}
.g25_1{
fill: #00EDED;
}
.g26_1{
fill: #00ECEC;
}
.g27_1{
fill: #00EBEB;
}
.g28_1{
fill: #00EAEB;
}
.g29_1{
fill: #00E9EA;
}
.g30_1{
fill: #00E9E9;
}
.g31_1{
fill: #00E8E8;
}
.g32_1{
fill: #00E7E7;
}
.g33_1{
fill: #00E6E7;
}
.g34_1{
fill: #00E5E6;
}
.g35_1{
fill: #00E5E5;
}
.g36_1{
fill: #00E4E4;
}
.g37_1{
fill: #00E3E3;
}
.g38_1{
fill: #00E2E3;
}
.g39_1{
fill: #00E1E2;
}
.g40_1{
fill: #00E0E1;
}
.g41_1{
fill: #00E0E0;
}
.g42_1{
fill: #00DFDF;
}
.g43_1{
fill: #00DEDF;
}
.g44_1{
fill: #00DDDE;
}
.g45_1{
fill: #00DCDD;
}
.g46_1{
fill: #00DCDC;
}
.g47_1{
fill: #00DBDB;
}
.g48_1{
fill: #00DADB;
}
.g49_1{
fill: #00D9DA;
}
.g50_1{
fill: #00D8D9;
}
.g51_1{
fill: #00D8D8;
}
.g52_1{
fill: #00D7D7;
}
.g53_1{
fill: #00D6D7;
}
.g54_1{
fill: #00D5D6;
}
.g55_1{
fill: #00D4D5;
}
.g56_1{
fill: #00D3D4;
}
.g57_1{
fill: #00D3D3;
}
.g58_1{
fill: #00D2D3;
}
.g59_1{
fill: #00D1D2;
}
.g60_1{
fill: #00D0D1;
}
.g61_1{
fill: #00CFD0;
}
.g62_1{
fill: #00CFCF;
}
.g63_1{
fill: #00CECF;
}
.g64_1{
fill: #00CDCE;
}
.g65_1{
fill: #00CCCD;
}
.g66_1{
fill: #00CBCC;
}
.g67_1{
stroke: #000000;
stroke-width: 1.0975593;
stroke-linecap: round;
stroke-linejoin: miter;
}
.g68_1{
fill: #FFFFFF;
}

.s1_1{
font-size: 11.00px;
font-family: ArialUnicode_c;
fill: #000000;
}

]]></style>

</defs>
<path d="M0,0
L0,1260
L881,1260
L881,0 Z " 
fill="#FFFFFF" stroke="none" />
<path d="M102.1,63.6c0,-5.5,0,-5.5,5.5,-5.5l86.7,0c5.5,0,5.5,0,5.5,5.5l0,42.9c0,5.5,0,5.5,-5.5,5.5l-86.7,0c-5.5,0,-5.5,0,-5.5,-5.5l0,-42.9Z" class="g1_1" />
<path d="M98.8,60.3c0,-5.5,0,-5.5,5.5,-5.5l86.7,0c5.5,0,5.5,0,5.5,5.5l0,42.9c0,5.5,0,5.5,-5.5,5.5l-86.7,0c-5.5,0,-5.5,0,-5.5,-5.5l0,-42.9Z" class="g2_1" />
<path d="M98.8,60.3c0,-5.5,0,-5.5,5.5,-5.5l86.7,0c5.5,0,5.5,0,5.5,5.5l0,42.9c0,5.5,0,5.5,-5.5,5.5l-86.7,0c-5.5,0,-5.5,0,-5.5,-5.5l0,-42.9" class="g3_1" />
<path d="M98.8,60.3c0,-5.5,0,-5.5,5.5,-5.5l86.7,0c5.5,0,5.5,0,5.5,5.5l0,42.9c0,5.5,0,5.5,-5.5,5.5l-86.7,0c-5.5,0,-5.5,0,-5.5,-5.5l0,-42.9" class="g3_1" />
<path d="M0,-0.1l-1,0l0,-1.1l1,0l0,1.1Z" class="g2_1" />
<path d="M0,-0.1l-1,0l0,-1.1l1,0l0,1.1Z" class="g4_1" />
<path d="M0,-0.1l-1,0l0,-1.1l1,0l0,1.1Z" class="g5_1" />
<path d="M0,-0.1l-1,0l0,-1.1l1,0l0,1.1Z" class="g5_1" />
<path d="M0,-0.1l-1,0l0,-1.1l1,0l0,1.1Z" class="g6_1" />
<path d="M0,-0.1l-1,0l0,-1.1l1,0l0,1.1Z" class="g7_1" />
<path d="M0,-0.1l-1,0l0,-1.1l1,0l0,1.1Z" class="g8_1" />
<path d="M0,-0.1l-1,0l0,-1.1l1,0l0,1.1Z" class="g9_1" />
<path d="M0,-0.1l-1,0l0,-1.1l1,0l0,1.1Z" class="g10_1" />
<path d="M0,-0.1l-1,0l0,-1.1l1,0l0,1.1Z" class="g11_1" />
<path d="M0,-0.1l-1,0l0,-1.1l1,0l0,1.1Z" class="g12_1" />
<path d="M0,-0.1l-1,0l0,-1.1l1,0l0,1.1Z" class="g13_1" />
<path d="M0,-0.1l-1,0l0,-1.1l1,0l0,1.1Z" class="g14_1" />
<path d="M0,-0.1l-1,0l0,-1.1l1,0l0,1.1Z" class="g15_1" />
<path d="M0,-0.1l-1,0l0,-1.1l1,0l0,1.1Z" class="g16_1" />
<path d="M0,-0.1l-1,0l0,-1.1l1,0l0,1.1Z" class="g17_1" />
<path d="M0,-0.1l-1,0l0,-1.1l1,0l0,1.1Z" class="g18_1" />
<path d="M0,-0.1l-1,0l0,-1.1l1,0l0,1.1Z" class="g19_1" />
<path d="M0,-0.1l-1,0l0,-1.1l1,0l0,1.1Z" class="g20_1" />
<path d="M0,-0.1l-1,0l0,-1.1l1,0l0,1.1Z" class="g21_1" />
<path d="M0,-0.1l-1,0l0,-1.1l1,0l0,1.1Z" class="g22_1" />
<path d="M0,-0.1l-1,0l0,-1.1l1,0l0,1.1Z" class="g23_1" />
<path d="M0,-0.1l-1,0l0,-1.1l1,0l0,1.1Z" class="g24_1" />
<path d="M0,-0.1l-1,0l0,-1.1l1,0l0,1.1Z" class="g25_1" />
<path d="M0,-0.1l-1,0l0,-1.1l1,0l0,1.1Z" class="g26_1" />
<path d="M0,-0.1l-1,0l0,-1.1l1,0l0,1.1Z" class="g27_1" />
<path d="M0,-0.1l-1,0l0,-1.1l1,0l0,1.1Z" class="g28_1" />
<path d="M0,-0.1l-1,0l0,-1.1l1,0l0,1.1Z" class="g29_1" />
<path d="M0,-0.1l-1,0l0,-1.1l1,0l0,1.1Z" class="g30_1" />
<path d="M0,-0.1l-1,0l0,-1.1l1,0l0,1.1Z" class="g31_1" />
<path d="M0,-0.1l-1,0l0,-1.1l1,0l0,1.1Z" class="g32_1" />
<path d="M0,-0.1l-1,0l0,-1.1l1,0l0,1.1Z" class="g33_1" />
<path d="M0,-0.1l-1,0l0,-1.1l1,0l0,1.1Z" class="g34_1" />
<path d="M0,-0.1l-1,0l0,-1.1l1,0l0,1.1Z" class="g35_1" />
<path d="M0,-0.1l-1,0l0,-1.1l1,0l0,1.1Z" class="g36_1" />
<path d="M0,-0.1l-1,0l0,-1.1l1,0l0,1.1Z" class="g37_1" />
<path d="M0,-0.1l-1,0l0,-1.1l1,0l0,1.1Z" class="g38_1" />
<path d="M0,-0.1l-1,0l0,-1.1l1,0l0,1.1Z" class="g39_1" />
<path d="M0,-0.1l-1,0l0,-1.1l1,0l0,1.1Z" class="g40_1" />
<path d="M0,-0.1l-1,0l0,-1.1l1,0l0,1.1Z" class="g41_1" />
<path d="M0,-0.1l-1,0l0,-1.1l1,0l0,1.1Z" class="g42_1" />
<path d="M0,-0.1l-1,0l0,-1.1l1,0l0,1.1Z" class="g43_1" />
<path d="M0,-0.1l-1,0l0,-1.1l1,0l0,1.1Z" class="g44_1" />
<path d="M0,-0.1l-1,0l0,-1.1l1,0l0,1.1Z" class="g45_1" />
<path d="M0,-0.1l-1,0l0,-1.1l1,0l0,1.1Z" class="g46_1" />
<path d="M0,-0.1l-1,0l0,-1.1l1,0l0,1.1Z" class="g47_1" />
<path d="M0,-0.1l-1,0l0,-1.1l1,0l0,1.1Z" class="g48_1" />
<path d="M0,-0.1l-1,0l0,-1.1l1,0l0,1.1Z" class="g48_1" />
<path d="M0,-0.1l-1,0l0,-1.1l1,0l0,1.1Z" class="g49_1" />
<path d="M0,-0.1l-1,0l0,-1.1l1,0l0,1.1Z" class="g50_1" />
<path d="M0,-0.1l-1,0l0,-1.1l1,0l0,1.1Z" class="g51_1" />
<path d="M0,-0.1l-1,0l0,-1.1l1,0l0,1.1Z" class="g52_1" />
<path d="M0,-0.1l-1,0l0,-1.1l1,0l0,1.1Z" class="g53_1" />
<path d="M0,-0.1l-1,0l0,-1.1l1,0l0,1.1Z" class="g54_1" />
<path d="M0,-0.1l-1,0l0,-1.1l1,0l0,1.1Z" class="g55_1" />
<path d="M0,-0.1l-1,0l0,-1.1l1,0l0,1.1Z" class="g56_1" />
<path d="M0,-0.1l-1,0l0,-1.1l1,0l0,1.1Z" class="g57_1" />
<path d="M0,-0.1l-1,0l0,-1.1l1,0l0,1.1Z" class="g58_1" />
<path d="M0,-0.1l-1,0l0,-1.1l1,0l0,1.1Z" class="g59_1" />
<path d="M0,-0.1l-1,0l0,-1.1l1,0l0,1.1Z" class="g60_1" />
<path d="M0,-0.1l-1,0l0,-1.1l1,0l0,1.1Z" class="g61_1" />
<path d="M0,-0.1l-1,0l0,-1.1l1,0l0,1.1Z" class="g62_1" />
<path d="M0,-0.1l-1,0l0,-1.1l1,0l0,1.1Z" class="g63_1" />
<path d="M0,-0.1l-1,0l0,-1.1l1,0l0,1.1Z" class="g64_1" />
<path d="M0,-0.1l-1,0l0,-1.1l1,0l0,1.1Z" class="g65_1" />
<path d="M0,-0.1l-1,0l0,-1.1l1,0l0,1.1Z" class="g66_1" />
<path d="M98.8,54.8l97.7,0l0,53.9l-97.7,0l0,-53.9Z" class="g3_1" />
<text 
x="116" 
y="68" 
dx="0,1,0.7,0.7,1,0.2,1.3,0.3,0.2,0.2" 
class="s1_1"
>«&lt;&lt;html&gt;&gt;»</text>

<text 
x="120" 
y="85" 
dx="0,0.3,1,1,1,1.1,0.2,1,0.2,1.3" 
class="s1_1"
>index.html</text>

<path d="M148.2,109.8l0,7.7" class="g3_1" />
<path d="M148.2,121.9l0,7.7" class="g3_1" />
<path d="M148.2,134l0,7.7" class="g3_1" />
<path d="M148.2,146.1l0,7.7" class="g3_1" />
<path d="M148.2,158.2l0,7.7" class="g3_1" />
<path d="M148.2,170.3l0,7.7" class="g3_1" />
<path d="M148.2,182.4l0,7.7" class="g3_1" />
<path d="M148.2,194.5l0,7.7" class="g3_1" />
<path d="M148.2,206.6l0,7.7" class="g3_1" />
<path d="M148.2,218.7l0,7.7" class="g3_1" />
<path d="M148.2,230.8l0,7.7" class="g3_1" />
<path d="M148.2,242.9l0,7.7" class="g3_1" />
<path d="M148.2,255l0,7.7" class="g3_1" />
<path d="M148.2,267.1l0,7.7" class="g3_1" />
<path d="M148.2,279.2l0,7.7" class="g3_1" />
<path d="M148.2,291.3l0,7.7" class="g3_1" />
<path d="M148.2,303.4l0,7.7" class="g3_1" />
<path d="M148.2,315.5l0,7.7" class="g3_1" />
<path d="M148.2,327.6l0,7.7" class="g3_1" />
<path d="M148.2,339.7l0,7.7" class="g3_1" />
<path d="M148.2,351.8l0,7.7" class="g3_1" />
<path d="M148.2,363.9l0,7.7" class="g3_1" />
<path d="M148.2,376l0,7.7" class="g3_1" />
<path d="M142.7,153.8c0,-5.5,0,-5.5,3.8,-5.5l2.2,0c3.9,0,3.9,0,3.9,5.5l0,209c0,5.5,0,5.5,-3.9,5.5l-2.2,0c-3.8,0,-3.8,0,-3.8,-5.5l0,-209Z" class="g2_1" />
<path d="M142.7,153.8c0,-5.5,0,-5.5,3.8,-5.5l2.2,0c3.9,0,3.9,0,3.9,5.5l0,209c0,5.5,0,5.5,-3.9,5.5l-2.2,0c-3.8,0,-3.8,0,-3.8,-5.5l0,-209" class="g3_1" />
<path d="M277.7,63.6c0,-5.5,0,-5.5,5.5,-5.5l86.7,0c5.5,0,5.5,0,5.5,5.5l0,42.9c0,5.5,0,5.5,-5.5,5.5l-86.7,0c-5.5,0,-5.5,0,-5.5,-5.5l0,-42.9Z" class="g1_1" />
<path d="M274.4,60.3c0,-5.5,0,-5.5,5.5,-5.5l86.7,0c5.5,0,5.5,0,5.5,5.5l0,42.9c0,5.5,0,5.5,-5.5,5.5l-86.7,0c-5.5,0,-5.5,0,-5.5,-5.5l0,-42.9Z" class="g2_1" />
<path d="M274.4,60.3c0,-5.5,0,-5.5,5.5,-5.5l86.7,0c5.5,0,5.5,0,5.5,5.5l0,42.9c0,5.5,0,5.5,-5.5,5.5l-86.7,0c-5.5,0,-5.5,0,-5.5,-5.5l0,-42.9" class="g3_1" />
<path d="M274.4,60.3c0,-5.5,0,-5.5,5.5,-5.5l86.7,0c5.5,0,5.5,0,5.5,5.5l0,42.9c0,5.5,0,5.5,-5.5,5.5l-86.7,0c-5.5,0,-5.5,0,-5.5,-5.5l0,-42.9" class="g3_1" />
<path d="M0,-0.1l-1,0l0,-1.1l1,0l0,1.1Z" class="g2_1" />
<path d="M0,-0.1l-1,0l0,-1.1l1,0l0,1.1Z" class="g4_1" />
<path d="M0,-0.1l-1,0l0,-1.1l1,0l0,1.1Z" class="g5_1" />
<path d="M0,-0.1l-1,0l0,-1.1l1,0l0,1.1Z" class="g6_1" />
<path d="M0,-0.1l-1,0l0,-1.1l1,0l0,1.1Z" class="g7_1" />
<path d="M0,-0.1l-1,0l0,-1.1l1,0l0,1.1Z" class="g8_1" />
<path d="M0,-0.1l-1,0l0,-1.1l1,0l0,1.1Z" class="g9_1" />
<path d="M0,-0.1l-1,0l0,-1.1l1,0l0,1.1Z" class="g10_1" />
<path d="M0,-0.1l-1,0l0,-1.1l1,0l0,1.1Z" class="g11_1" />
<path d="M0,-0.1l-1,0l0,-1.1l1,0l0,1.1Z" class="g12_1" />
<path d="M0,-0.1l-1,0l0,-1.1l1,0l0,1.1Z" class="g13_1" />
<path d="M0,-0.1l-1,0l0,-1.1l1,0l0,1.1Z" class="g14_1" />
<path d="M0,-0.1l-1,0l0,-1.1l1,0l0,1.1Z" class="g14_1" />
<path d="M0,-0.1l-1,0l0,-1.1l1,0l0,1.1Z" class="g15_1" />
<path d="M0,-0.1l-1,0l0,-1.1l1,0l0,1.1Z" class="g16_1" />
<path d="M0,-0.1l-1,0l0,-1.1l1,0l0,1.1Z" class="g17_1" />
<path d="M0,-0.1l-1,0l0,-1.1l1,0l0,1.1Z" class="g18_1" />
<path d="M0,-0.1l-1,0l0,-1.1l1,0l0,1.1Z" class="g19_1" />
<path d="M0,-0.1l-1,0l0,-1.1l1,0l0,1.1Z" class="g20_1" />
<path d="M0,-0.1l-1,0l0,-1.1l1,0l0,1.1Z" class="g21_1" />
<path d="M0,-0.1l-1,0l0,-1.1l1,0l0,1.1Z" class="g22_1" />
<path d="M0,-0.1l-1,0l0,-1.1l1,0l0,1.1Z" class="g23_1" />
<path d="M0,-0.1l-1,0l0,-1.1l1,0l0,1.1Z" class="g24_1" />
<path d="M0,-0.1l-1,0l0,-1.1l1,0l0,1.1Z" class="g25_1" />
<path d="M0,-0.1l-1,0l0,-1.1l1,0l0,1.1Z" class="g26_1" />
<path d="M0,-0.1l-1,0l0,-1.1l1,0l0,1.1Z" class="g27_1" />
<path d="M0,-0.1l-1,0l0,-1.1l1,0l0,1.1Z" class="g28_1" />
<path d="M0,-0.1l-1,0l0,-1.1l1,0l0,1.1Z" class="g29_1" />
<path d="M0,-0.1l-1,0l0,-1.1l1,0l0,1.1Z" class="g30_1" />
<path d="M0,-0.1l-1,0l0,-1.1l1,0l0,1.1Z" class="g31_1" />
<path d="M0,-0.1l-1,0l0,-1.1l1,0l0,1.1Z" class="g32_1" />
<path d="M0,-0.1l-1,0l0,-1.1l1,0l0,1.1Z" class="g33_1" />
<path d="M0,-0.1l-1,0l0,-1.1l1,0l0,1.1Z" class="g34_1" />
<path d="M0,-0.1l-1,0l0,-1.1l1,0l0,1.1Z" class="g35_1" />
<path d="M0,-0.1l-1,0l0,-1.1l1,0l0,1.1Z" class="g35_1" />
<path d="M0,-0.1l-1,0l0,-1.1l1,0l0,1.1Z" class="g36_1" />
<path d="M0,-0.1l-1,0l0,-1.1l1,0l0,1.1Z" class="g37_1" />
<path d="M0,-0.1l-1,0l0,-1.1l1,0l0,1.1Z" class="g38_1" />
<path d="M0,-0.1l-1,0l0,-1.1l1,0l0,1.1Z" class="g39_1" />
<path d="M0,-0.1l-1,0l0,-1.1l1,0l0,1.1Z" class="g40_1" />
<path d="M0,-0.1l-1,0l0,-1.1l1,0l0,1.1Z" class="g41_1" />
<path d="M0,-0.1l-1,0l0,-1.1l1,0l0,1.1Z" class="g42_1" />
<path d="M0,-0.1l-1,0l0,-1.1l1,0l0,1.1Z" class="g43_1" />
<path d="M0,-0.1l-1,0l0,-1.1l1,0l0,1.1Z" class="g44_1" />
<path d="M0,-0.1l-1,0l0,-1.1l1,0l0,1.1Z" class="g45_1" />
<path d="M0,-0.1l-1,0l0,-1.1l1,0l0,1.1Z" class="g46_1" />
<path d="M0,-0.1l-1,0l0,-1.1l1,0l0,1.1Z" class="g47_1" />
<path d="M0,-0.1l-1,0l0,-1.1l1,0l0,1.1Z" class="g48_1" />
<path d="M0,-0.1l-1,0l0,-1.1l1,0l0,1.1Z" class="g49_1" />
<path d="M0,-0.1l-1,0l0,-1.1l1,0l0,1.1Z" class="g50_1" />
<path d="M0,-0.1l-1,0l0,-1.1l1,0l0,1.1Z" class="g51_1" />
<path d="M0,-0.1l-1,0l0,-1.1l1,0l0,1.1Z" class="g52_1" />
<path d="M0,-0.1l-1,0l0,-1.1l1,0l0,1.1Z" class="g53_1" />
<path d="M0,-0.1l-1,0l0,-1.1l1,0l0,1.1Z" class="g54_1" />
<path d="M0,-0.1l-1,0l0,-1.1l1,0l0,1.1Z" class="g55_1" />
<path d="M0,-0.1l-1,0l0,-1.1l1,0l0,1.1Z" class="g56_1" />
<path d="M0,-0.1l-1,0l0,-1.1l1,0l0,1.1Z" class="g57_1" />
<path d="M0,-0.1l-1,0l0,-1.1l1,0l0,1.1Z" class="g58_1" />
<path d="M0,-0.1l-1,0l0,-1.1l1,0l0,1.1Z" class="g59_1" />
<path d="M0,-0.1l-1,0l0,-1.1l1,0l0,1.1Z" class="g60_1" />
<path d="M0,-0.1l-1,0l0,-1.1l1,0l0,1.1Z" class="g61_1" />
<path d="M0,-0.1l-1,0l0,-1.1l1,0l0,1.1Z" class="g62_1" />
<path d="M0,-0.1l-1,0l0,-1.1l1,0l0,1.1Z" class="g63_1" />
<path d="M0,-0.1l-1,0l0,-1.1l1,0l0,1.1Z" class="g64_1" />
<path d="M0,-0.1l-1,0l0,-1.1l1,0l0,1.1Z" class="g65_1" />
<path d="M0,-0.1l-1,0l0,-1.1l1,0l0,1.1Z" class="g66_1" />
<path d="M274.4,54.8l97.7,0l0,53.9l-97.7,0l0,-53.9Z" class="g3_1" />
<text 
x="299" 
y="68" 
dx="0,1,0.7,0.7,0.3,0,0.2,0.2" 
class="s1_1"
>«&lt;&lt;js&gt;&gt;»</text>

<text 
x="309" 
y="85" 
dx="0,0.3,1,1,0.5" 
class="s1_1"
>index</text>

<path d="M323.8,109.8l0,7.7" class="g3_1" />
<path d="M323.8,121.9l0,7.7" class="g3_1" />
<path d="M323.8,134l0,7.7" class="g3_1" />
<path d="M323.8,146.1l0,7.7" class="g3_1" />
<path d="M323.8,158.2l0,7.7" class="g3_1" />
<path d="M323.8,170.3l0,7.7" class="g3_1" />
<path d="M323.8,182.4l0,7.7" class="g3_1" />
<path d="M323.8,194.5l0,7.7" class="g3_1" />
<path d="M323.8,206.6l0,7.7" class="g3_1" />
<path d="M323.8,218.7l0,7.7" class="g3_1" />
<path d="M323.8,230.8l0,7.7" class="g3_1" />
<path d="M323.8,242.9l0,7.7" class="g3_1" />
<path d="M323.8,255l0,7.7" class="g3_1" />
<path d="M323.8,267.1l0,7.7" class="g3_1" />
<path d="M323.8,279.2l0,7.7" class="g3_1" />
<path d="M323.8,291.3l0,7.7" class="g3_1" />
<path d="M323.8,303.4l0,7.7" class="g3_1" />
<path d="M323.8,315.5l0,7.7" class="g3_1" />
<path d="M323.8,327.6l0,7.7" class="g3_1" />
<path d="M323.8,339.7l0,7.7" class="g3_1" />
<path d="M323.8,351.8l0,7.7" class="g3_1" />
<path d="M323.8,363.9l0,7.7" class="g3_1" />
<path d="M323.8,376l0,7.7" class="g3_1" />
<path d="M318.3,153.8c0,-5.5,0,-5.5,3.8,-5.5l2.2,0c3.9,0,3.9,0,3.9,5.5l0,209c0,5.5,0,5.5,-3.9,5.5l-2.2,0c-3.8,0,-3.8,0,-3.8,-5.5l0,-209Z" class="g2_1" />
<path d="M318.3,153.8c0,-5.5,0,-5.5,3.8,-5.5l2.2,0c3.9,0,3.9,0,3.9,5.5l0,209c0,5.5,0,5.5,-3.9,5.5l-2.2,0c-3.8,0,-3.8,0,-3.8,-5.5l0,-209" class="g3_1" />
<path d="M442.3,63.6c0,-5.5,0,-5.5,5.5,-5.5l147.1,0c5.5,0,5.5,0,5.5,5.5l0,42.9c0,5.5,0,5.5,-5.5,5.5l-147.1,0c-5.5,0,-5.5,0,-5.5,-5.5l0,-42.9Z" class="g1_1" />
<path d="M439,60.3c0,-5.5,0,-5.5,5.5,-5.5l147.1,0c5.5,0,5.5,0,5.5,5.5l0,42.9c0,5.5,0,5.5,-5.5,5.5l-147.1,0c-5.5,0,-5.5,0,-5.5,-5.5l0,-42.9Z" class="g2_1" />
<path d="M439,60.3c0,-5.5,0,-5.5,5.5,-5.5l147.1,0c5.5,0,5.5,0,5.5,5.5l0,42.9c0,5.5,0,5.5,-5.5,5.5l-147.1,0c-5.5,0,-5.5,0,-5.5,-5.5l0,-42.9" class="g3_1" />
<path d="M439,60.3c0,-5.5,0,-5.5,5.5,-5.5l147.1,0c5.5,0,5.5,0,5.5,5.5l0,42.9c0,5.5,0,5.5,-5.5,5.5l-147.1,0c-5.5,0,-5.5,0,-5.5,-5.5l0,-42.9" class="g3_1" />
<path d="M0,-0.1l-1,0l0,-1.1l1,0l0,1.1Z" class="g2_1" />
<path d="M0,-0.1l-1,0l0,-1.1l1,0l0,1.1Z" class="g4_1" />
<path d="M0,-0.1l-1,0l0,-1.1l1,0l0,1.1Z" class="g5_1" />
<path d="M0,-0.1l-1,0l0,-1.1l1,0l0,1.1Z" class="g6_1" />
<path d="M0,-0.1l-1,0l0,-1.1l1,0l0,1.1Z" class="g7_1" />
<path d="M0,-0.1l-1,0l0,-1.1l1,0l0,1.1Z" class="g8_1" />
<path d="M0,-0.1l-1,0l0,-1.1l1,0l0,1.1Z" class="g9_1" />
<path d="M0,-0.1l-1,0l0,-1.1l1,0l0,1.1Z" class="g10_1" />
<path d="M0,-0.1l-1,0l0,-1.1l1,0l0,1.1Z" class="g11_1" />
<path d="M0,-0.1l-1,0l0,-1.1l1,0l0,1.1Z" class="g12_1" />
<path d="M0,-0.1l-1,0l0,-1.1l1,0l0,1.1Z" class="g13_1" />
<path d="M0,-0.1l-1,0l0,-1.1l1,0l0,1.1Z" class="g14_1" />
<path d="M0,-0.1l-1,0l0,-1.1l1,0l0,1.1Z" class="g15_1" />
<path d="M0,-0.1l-1,0l0,-1.1l1,0l0,1.1Z" class="g16_1" />
<path d="M0,-0.1l-1,0l0,-1.1l1,0l0,1.1Z" class="g17_1" />
<path d="M0,-0.1l-1,0l0,-1.1l1,0l0,1.1Z" class="g18_1" />
<path d="M0,-0.1l-1,0l0,-1.1l1,0l0,1.1Z" class="g19_1" />
<path d="M0,-0.1l-1,0l0,-1.1l1,0l0,1.1Z" class="g20_1" />
<path d="M0,-0.1l-1,0l0,-1.1l1,0l0,1.1Z" class="g21_1" />
<path d="M0,-0.1l-1,0l0,-1.1l1,0l0,1.1Z" class="g22_1" />
<path d="M0,-0.1l-1,0l0,-1.1l1,0l0,1.1Z" class="g23_1" />
<path d="M0,-0.1l-1,0l0,-1.1l1,0l0,1.1Z" class="g24_1" />
<path d="M0,-0.1l-1,0l0,-1.1l1,0l0,1.1Z" class="g25_1" />
<path d="M0,-0.1l-1,0l0,-1.1l1,0l0,1.1Z" class="g26_1" />
<path d="M0,-0.1l-1,0l0,-1.1l1,0l0,1.1Z" class="g27_1" />
<path d="M0,-0.1l-1,0l0,-1.1l1,0l0,1.1Z" class="g28_1" />
<path d="M0,-0.1l-1,0l0,-1.1l1,0l0,1.1Z" class="g29_1" />
<path d="M0,-0.1l-1,0l0,-1.1l1,0l0,1.1Z" class="g30_1" />
<path d="M0,-0.1l-1,0l0,-1.1l1,0l0,1.1Z" class="g31_1" />
<path d="M0,-0.1l-1,0l0,-1.1l1,0l0,1.1Z" class="g32_1" />
<path d="M0,-0.1l-1,0l0,-1.1l1,0l0,1.1Z" class="g33_1" />
<path d="M0,-0.1l-1,0l0,-1.1l1,0l0,1.1Z" class="g34_1" />
<path d="M0,-0.1l-1,0l0,-1.1l1,0l0,1.1Z" class="g35_1" />
<path d="M0,-0.1l-1,0l0,-1.1l1,0l0,1.1Z" class="g36_1" />
<path d="M0,-0.1l-1,0l0,-1.1l1,0l0,1.1Z" class="g37_1" />
<path d="M0,-0.1l-1,0l0,-1.1l1,0l0,1.1Z" class="g38_1" />
<path d="M0,-0.1l-1,0l0,-1.1l1,0l0,1.1Z" class="g39_1" />
<path d="M0,-0.1l-1,0l0,-1.1l1,0l0,1.1Z" class="g40_1" />
<path d="M0,-0.1l-1,0l0,-1.1l1,0l0,1.1Z" class="g41_1" />
<path d="M0,-0.1l-1,0l0,-1.1l1,0l0,1.1Z" class="g42_1" />
<path d="M0,-0.1l-1,0l0,-1.1l1,0l0,1.1Z" class="g43_1" />
<path d="M0,-0.1l-1,0l0,-1.1l1,0l0,1.1Z" class="g44_1" />
<path d="M0,-0.1l-1,0l0,-1.1l1,0l0,1.1Z" class="g45_1" />
<path d="M0,-0.1l-1,0l0,-1.1l1,0l0,1.1Z" class="g46_1" />
<path d="M0,-0.1l-1,0l0,-1.1l1,0l0,1.1Z" class="g47_1" />
<path d="M0,-0.1l-1,0l0,-1.1l1,0l0,1.1Z" class="g48_1" />
<path d="M0,-0.1l-1,0l0,-1.1l1,0l0,1.1Z" class="g49_1" />
<path d="M0,-0.1l-1,0l0,-1.1l1,0l0,1.1Z" class="g50_1" />
<path d="M0,-0.1l-1,0l0,-1.1l1,0l0,1.1Z" class="g51_1" />
<path d="M0,-0.1l-1,0l0,-1.1l1,0l0,1.1Z" class="g52_1" />
<path d="M0,-0.1l-1,0l0,-1.1l1,0l0,1.1Z" class="g53_1" />
<path d="M0,-0.1l-1,0l0,-1.1l1,0l0,1.1Z" class="g54_1" />
<path d="M0,-0.1l-1,0l0,-1.1l1,0l0,1.1Z" class="g55_1" />
<path d="M0,-0.1l-1,0l0,-1.1l1,0l0,1.1Z" class="g56_1" />
<path d="M0,-0.1l-1,0l0,-1.1l1,0l0,1.1Z" class="g57_1" />
<path d="M0,-0.1l-1,0l0,-1.1l1,0l0,1.1Z" class="g58_1" />
<path d="M0,-0.1l-1,0l0,-1.1l1,0l0,1.1Z" class="g59_1" />
<path d="M0,-0.1l-1,0l0,-1.1l1,0l0,1.1Z" class="g60_1" />
<path d="M0,-0.1l-1,0l0,-1.1l1,0l0,1.1Z" class="g61_1" />
<path d="M0,-0.1l-1,0l0,-1.1l1,0l0,1.1Z" class="g62_1" />
<path d="M0,-0.1l-1,0l0,-1.1l1,0l0,1.1Z" class="g63_1" />
<path d="M0,-0.1l-1,0l0,-1.1l1,0l0,1.1Z" class="g64_1" />
<path d="M0,-0.1l-1,0l0,-1.1l1,0l0,1.1Z" class="g65_1" />
<path d="M0,-0.1l-1,0l0,-1.1l1,0l0,1.1Z" class="g66_1" />
<path d="M439,54.8l158.1,0l0,53.9l-158.1,0l0,-53.9Z" class="g3_1" />
<text 
x="477" 
y="68" 
dx="0,1,0.7,0.7,1.5,1,-0.4,0,-0.2,0,0.5,0,0.2,0.2" 
class="s1_1"
>«&lt;&lt;Services&gt;&gt;»</text>

<text 
x="441" 
y="85" 
dx="0,1.4,1,1.3,0.5,0.5,0.5,0.5,0.9,0.5,0,-0.2,0.5,0.5,0,0,0.9,0.5,0,-0.3,0.9,0.5,-0.4,0,-0.2,0" 
class="s1_1"
>DemandeBusinessRestService</text>

<path d="M518,109.8l0,7.7" class="g3_1" />
<path d="M518,121.9l0,7.7" class="g3_1" />
<path d="M518,134l0,7.7" class="g3_1" />
<path d="M518,146.1l0,7.7" class="g3_1" />
<path d="M518,158.2l0,7.7" class="g3_1" />
<path d="M518,170.3l0,7.7" class="g3_1" />
<path d="M518,182.4l0,7.7" class="g3_1" />
<path d="M518,194.5l0,7.7" class="g3_1" />
<path d="M518,206.6l0,7.7" class="g3_1" />
<path d="M518,218.7l0,7.7" class="g3_1" />
<path d="M518,230.8l0,7.7" class="g3_1" />
<path d="M518,242.9l0,7.7" class="g3_1" />
<path d="M518,255l0,7.7" class="g3_1" />
<path d="M518,267.1l0,7.7" class="g3_1" />
<path d="M518,279.2l0,7.7" class="g3_1" />
<path d="M518,291.3l0,7.7" class="g3_1" />
<path d="M518,303.4l0,7.7" class="g3_1" />
<path d="M518,315.5l0,7.7" class="g3_1" />
<path d="M518,327.6l0,7.7" class="g3_1" />
<path d="M518,339.7l0,7.7" class="g3_1" />
<path d="M518,351.8l0,7.7" class="g3_1" />
<path d="M518,363.9l0,7.7" class="g3_1" />
<path d="M518,376l0,7.7" class="g3_1" />
<path d="M512.6,192.3c0,-5.5,0,-5.5,3.8,-5.5l2.2,0c3.8,0,3.8,0,3.8,5.5l0,170.5c0,5.5,0,5.5,-3.8,5.5l-2.2,0c-3.8,0,-3.8,0,-3.8,-5.5l0,-170.5Z" class="g2_1" />
<path d="M512.6,192.3c0,-5.5,0,-5.5,3.8,-5.5l2.2,0c3.8,0,3.8,0,3.8,5.5l0,170.5c0,5.5,0,5.5,-3.8,5.5l-2.2,0c-3.8,0,-3.8,0,-3.8,-5.5l0,-170.5" class="g3_1" />
<path d="M518,360c0,-7.1,0,-7.1,3.9,-7.1l2.2,0c3.8,0,3.8,0,3.8,7.1l0,-2.2c0,7.2,0,7.2,-3.8,7.2l-2.2,0c-3.9,0,-3.9,0,-3.9,-7.2l0,2.2Z" class="g2_1" />
<path d="M518,360c0,-7.1,0,-7.1,3.9,-7.1l2.2,0c3.8,0,3.8,0,3.8,7.1l0,-2.2c0,7.2,0,7.2,-3.8,7.2l-2.2,0c-3.9,0,-3.9,0,-3.9,-7.2l0,2.2" class="g3_1" />
<path d="M639.9,63.6c0,-5.5,0,-5.5,5.5,-5.5l119.6,0c5.5,0,5.5,0,5.5,5.5l0,42.9c0,5.5,0,5.5,-5.5,5.5l-119.6,0c-5.5,0,-5.5,0,-5.5,-5.5l0,-42.9Z" class="g1_1" />
<path d="M636.6,60.3c0,-5.5,0,-5.5,5.5,-5.5l119.6,0c5.5,0,5.5,0,5.5,5.5l0,42.9c0,5.5,0,5.5,-5.5,5.5l-119.6,0c-5.5,0,-5.5,0,-5.5,-5.5l0,-42.9Z" class="g2_1" />
<path d="M636.6,60.3c0,-5.5,0,-5.5,5.5,-5.5l119.6,0c5.5,0,5.5,0,5.5,5.5l0,42.9c0,5.5,0,5.5,-5.5,5.5l-119.6,0c-5.5,0,-5.5,0,-5.5,-5.5l0,-42.9" class="g3_1" />
<path d="M636.6,60.3c0,-5.5,0,-5.5,5.5,-5.5l119.6,0c5.5,0,5.5,0,5.5,5.5l0,42.9c0,5.5,0,5.5,-5.5,5.5l-119.6,0c-5.5,0,-5.5,0,-5.5,-5.5l0,-42.9" class="g3_1" />
<path d="M0,-0.1l-1,0l0,-1.1l1,0l0,1.1Z" class="g2_1" />
<path d="M0,-0.1l-1,0l0,-1.1l1,0l0,1.1Z" class="g4_1" />
<path d="M0,-0.1l-1,0l0,-1.1l1,0l0,1.1Z" class="g5_1" />
<path d="M0,-0.1l-1,0l0,-1.1l1,0l0,1.1Z" class="g6_1" />
<path d="M0,-0.1l-1,0l0,-1.1l1,0l0,1.1Z" class="g7_1" />
<path d="M0,-0.1l-1,0l0,-1.1l1,0l0,1.1Z" class="g8_1" />
<path d="M0,-0.1l-1,0l0,-1.1l1,0l0,1.1Z" class="g9_1" />
<path d="M0,-0.1l-1,0l0,-1.1l1,0l0,1.1Z" class="g10_1" />
<path d="M0,-0.1l-1,0l0,-1.1l1,0l0,1.1Z" class="g11_1" />
<path d="M0,-0.1l-1,0l0,-1.1l1,0l0,1.1Z" class="g12_1" />
<path d="M0,-0.1l-1,0l0,-1.1l1,0l0,1.1Z" class="g13_1" />
<path d="M0,-0.1l-1,0l0,-1.1l1,0l0,1.1Z" class="g14_1" />
<path d="M0,-0.1l-1,0l0,-1.1l1,0l0,1.1Z" class="g15_1" />
<path d="M0,-0.1l-1,0l0,-1.1l1,0l0,1.1Z" class="g16_1" />
<path d="M0,-0.1l-1,0l0,-1.1l1,0l0,1.1Z" class="g17_1" />
<path d="M0,-0.1l-1,0l0,-1.1l1,0l0,1.1Z" class="g18_1" />
<path d="M0,-0.1l-1,0l0,-1.1l1,0l0,1.1Z" class="g19_1" />
<path d="M0,-0.1l-1,0l0,-1.1l1,0l0,1.1Z" class="g20_1" />
<path d="M0,-0.1l-1,0l0,-1.1l1,0l0,1.1Z" class="g21_1" />
<path d="M0,-0.1l-1,0l0,-1.1l1,0l0,1.1Z" class="g22_1" />
<path d="M0,-0.1l-1,0l0,-1.1l1,0l0,1.1Z" class="g23_1" />
<path d="M0,-0.1l-1,0l0,-1.1l1,0l0,1.1Z" class="g24_1" />
<path d="M0,-0.1l-1,0l0,-1.1l1,0l0,1.1Z" class="g25_1" />
<path d="M0,-0.1l-1,0l0,-1.1l1,0l0,1.1Z" class="g26_1" />
<path d="M0,-0.1l-1,0l0,-1.1l1,0l0,1.1Z" class="g27_1" />
<path d="M0,-0.1l-1,0l0,-1.1l1,0l0,1.1Z" class="g28_1" />
<path d="M0,-0.1l-1,0l0,-1.1l1,0l0,1.1Z" class="g29_1" />
<path d="M0,-0.1l-1,0l0,-1.1l1,0l0,1.1Z" class="g30_1" />
<path d="M0,-0.1l-1,0l0,-1.1l1,0l0,1.1Z" class="g31_1" />
<path d="M0,-0.1l-1,0l0,-1.1l1,0l0,1.1Z" class="g32_1" />
<path d="M0,-0.1l-1,0l0,-1.1l1,0l0,1.1Z" class="g33_1" />
<path d="M0,-0.1l-1,0l0,-1.1l1,0l0,1.1Z" class="g34_1" />
<path d="M0,-0.1l-1,0l0,-1.1l1,0l0,1.1Z" class="g35_1" />
<path d="M0,-0.1l-1,0l0,-1.1l1,0l0,1.1Z" class="g36_1" />
<path d="M0,-0.1l-1,0l0,-1.1l1,0l0,1.1Z" class="g37_1" />
<path d="M0,-0.1l-1,0l0,-1.1l1,0l0,1.1Z" class="g38_1" />
<path d="M0,-0.1l-1,0l0,-1.1l1,0l0,1.1Z" class="g39_1" />
<path d="M0,-0.1l-1,0l0,-1.1l1,0l0,1.1Z" class="g40_1" />
<path d="M0,-0.1l-1,0l0,-1.1l1,0l0,1.1Z" class="g41_1" />
<path d="M0,-0.1l-1,0l0,-1.1l1,0l0,1.1Z" class="g42_1" />
<path d="M0,-0.1l-1,0l0,-1.1l1,0l0,1.1Z" class="g43_1" />
<path d="M0,-0.1l-1,0l0,-1.1l1,0l0,1.1Z" class="g44_1" />
<path d="M0,-0.1l-1,0l0,-1.1l1,0l0,1.1Z" class="g45_1" />
<path d="M0,-0.1l-1,0l0,-1.1l1,0l0,1.1Z" class="g46_1" />
<path d="M0,-0.1l-1,0l0,-1.1l1,0l0,1.1Z" class="g47_1" />
<path d="M0,-0.1l-1,0l0,-1.1l1,0l0,1.1Z" class="g48_1" />
<path d="M0,-0.1l-1,0l0,-1.1l1,0l0,1.1Z" class="g49_1" />
<path d="M0,-0.1l-1,0l0,-1.1l1,0l0,1.1Z" class="g50_1" />
<path d="M0,-0.1l-1,0l0,-1.1l1,0l0,1.1Z" class="g51_1" />
<path d="M0,-0.1l-1,0l0,-1.1l1,0l0,1.1Z" class="g52_1" />
<path d="M0,-0.1l-1,0l0,-1.1l1,0l0,1.1Z" class="g53_1" />
<path d="M0,-0.1l-1,0l0,-1.1l1,0l0,1.1Z" class="g54_1" />
<path d="M0,-0.1l-1,0l0,-1.1l1,0l0,1.1Z" class="g55_1" />
<path d="M0,-0.1l-1,0l0,-1.1l1,0l0,1.1Z" class="g56_1" />
<path d="M0,-0.1l-1,0l0,-1.1l1,0l0,1.1Z" class="g57_1" />
<path d="M0,-0.1l-1,0l0,-1.1l1,0l0,1.1Z" class="g58_1" />
<path d="M0,-0.1l-1,0l0,-1.1l1,0l0,1.1Z" class="g59_1" />
<path d="M0,-0.1l-1,0l0,-1.1l1,0l0,1.1Z" class="g60_1" />
<path d="M0,-0.1l-1,0l0,-1.1l1,0l0,1.1Z" class="g61_1" />
<path d="M0,-0.1l-1,0l0,-1.1l1,0l0,1.1Z" class="g62_1" />
<path d="M0,-0.1l-1,0l0,-1.1l1,0l0,1.1Z" class="g63_1" />
<path d="M0,-0.1l-1,0l0,-1.1l1,0l0,1.1Z" class="g63_1" />
<path d="M0,-0.1l-1,0l0,-1.1l1,0l0,1.1Z" class="g64_1" />
<path d="M0,-0.1l-1,0l0,-1.1l1,0l0,1.1Z" class="g65_1" />
<path d="M0,-0.1l-1,0l0,-1.1l1,0l0,1.1Z" class="g66_1" />
<path d="M636.6,54.8l130.6,0l0,53.9l-130.6,0l0,-53.9Z" class="g3_1" />
<text 
x="660" 
y="68" 
dx="0,1,0.2,0.2,0.9,0.5,0,-0.2,0.5,0.5,0,0,0.2,0.2" 
class="s1_1"
>«&lt;&lt;Business&gt;&gt;»</text>

<text 
x="655" 
y="85" 
dx="0,1.4,0.5,1.3,0.5,0.5,0.5,0.5,1.5,0.5,0,-0.2,-0.1,-0.1,0" 
class="s1_1"
>DemandeBusiness</text>

<path d="M702.4,109.8l0,7.7" class="g3_1" />
<path d="M702.4,121.9l0,7.7" class="g3_1" />
<path d="M702.4,134l0,7.7" class="g3_1" />
<path d="M702.4,146.1l0,7.7" class="g3_1" />
<path d="M702.4,158.2l0,7.7" class="g3_1" />
<path d="M702.4,170.3l0,7.7" class="g3_1" />
<path d="M702.4,182.4l0,7.7" class="g3_1" />
<path d="M702.4,194.5l0,7.7" class="g3_1" />
<path d="M702.4,206.6l0,7.7" class="g3_1" />
<path d="M702.4,218.7l0,7.7" class="g3_1" />
<path d="M702.4,230.8l0,7.7" class="g3_1" />
<path d="M702.4,242.9l0,7.7" class="g3_1" />
<path d="M702.4,255l0,7.7" class="g3_1" />
<path d="M702.4,267.1l0,7.7" class="g3_1" />
<path d="M702.4,279.2l0,7.7" class="g3_1" />
<path d="M702.4,291.3l0,7.7" class="g3_1" />
<path d="M702.4,303.4l0,7.7" class="g3_1" />
<path d="M702.4,315.5l0,7.7" class="g3_1" />
<path d="M702.4,327.6l0,7.7" class="g3_1" />
<path d="M702.4,339.7l0,7.7" class="g3_1" />
<path d="M702.4,351.8l0,7.7" class="g3_1" />
<path d="M702.4,363.9l0,7.7" class="g3_1" />
<path d="M702.4,376l0,7.7" class="g3_1" />
<path d="M697,230.8c0,-5.5,0,-5.5,3.8,-5.5l2.2,0c3.8,0,3.8,0,3.8,5.5l0,132c0,5.5,0,5.5,-3.8,5.5l-2.2,0c-3.8,0,-3.8,0,-3.8,-5.5l0,-132Z" class="g2_1" />
<path d="M697,230.8c0,-5.5,0,-5.5,3.8,-5.5l2.2,0c3.8,0,3.8,0,3.8,5.5l0,132c0,5.5,0,5.5,-3.8,5.5l-2.2,0c-3.8,0,-3.8,0,-3.8,-5.5l0,-132" class="g3_1" />
<path d="M702.4,322.1c0,-6.6,0,-6.6,3.9,-6.6l2.2,0c3.8,0,3.8,0,3.8,6.6l0,-2.2c0,6.6,0,6.6,-3.8,6.6l-2.2,0c-3.9,0,-3.9,0,-3.9,-6.6l0,2.2Z" class="g2_1" />
<path d="M702.4,322.1c0,-6.6,0,-6.6,3.9,-6.6l2.2,0c3.8,0,3.8,0,3.8,6.6l0,-2.2c0,6.6,0,6.6,-3.8,6.6l-2.2,0c-3.9,0,-3.9,0,-3.9,-6.6l0,2.2" class="g3_1" />
<path d="M153.7,148.3l164.6,0" class="g3_1" />
<path d="M305.1,143.9l0,4.4l0,4.4l13.2,-4.4l-13.2,-4.4" class="g67_1" />
<path d="M329.3,186.8l183.3,0" class="g3_1" />
<path d="M499.4,182.4l0,4.4l0,4.4l13.2,-4.4l-13.2,-4.4" class="g67_1" />
<path d="M523.5,225.3l173.5,0" class="g3_1" />
<path d="M683.8,220.9l0,4.4l0,4.4L697,225.3l-13.2,-4.4" class="g67_1" />
<path d="M707.9,299l43.9,0" class="g3_1" />
<path d="M751.8,299l0,16.5" class="g3_1" />
<path d="M751.8,315.5l-38.4,0" class="g3_1" />
<path d="M726.6,311.1l0,4.4l0,4.4l-13.2,-4.4l13.2,-4.4" class="g67_1" />
<path d="M697,352.9l-168,0" class="g3_1" />
<path d="M542.2,348.5l0,4.4l0,4.4L529,352.9l13.2,-4.4" class="g67_1" />
<path d="M109.8,337.5l1048.1,0l0,12.1l-1048.1,0l0,-12.1Z" class="g68_1" />
<text 
x="109" 
y="347" 
dx="0,1.5,1,1,1,1.1,1.1,0.2,0.3,1,1,0.8,0.2,0.5,0.3,1,0.5,0.2,0.2,0.5,1.3,1,1.1,1,1,0.2,0.3,1.1,1,0.5,0.2,0.2,0.5,1,1,1,1,0.3,1,1,0.5,0.2,0.5,0.5,0.2,0.5,1,1,1,1,0.3,1,0.2,0.5,0.2,0.5,0.5,0.2,0.5,1,0.2,0.2,1,0.3,1,1,0.5,0.2,0.5,0.5,0.2,0.5,1.1,1,1,0.3,1.1,1,0.3,1,1.5,1.1,1,1,0.5,0.2,0.5,0.5,0.2,0.5,1,0.2,0.2,1,0.3,1,0.2,0.5,0.2,0.5,0.5,0.2,0.5,1.3,1,1.1,1,1,1,0.3,1,1.1,0.5,0.2,0.2,0.5,1.3,1,1.1,1,1,1,1.1,1.1,1,1,1,1,0.2,0.5,0.2,0.2,0.5,1,1,1.3,1,1,0.5,0.5" 
class="s1_1"
>Sugesstion {"id":,"max_price":,"dep_lon":"","dep_lat":"","arr_lon":"","vehiculeType":"","arr_lat":"","max_delay":,"max_passenger":,"demandeS</text>

<path d="M356.7,171.4l133.9,0l0,12.1l-133.9,0l0,-12.1Z" class="g68_1" />
<text 
x="356" 
y="181" 
dx="0,1,1,1,1,0.3,1,1.5,1,0.3,0.3,1,1,-0.3,0.5,0.9,0.5,0.5,0.5,0.5,0.5,-0.3,-0.4" 
class="s1_1"
>handleValidateRequest()</text>

<path d="M470.9,209.9l291.9,0l0,12.1l-291.9,0l0,-12.1Z" class="g68_1" />
<text 
x="470" 
y="219" 
dx="0,1.5,1.3,1.5,1.5,0.2,0.9,1.4,1,1,1,1,0.5,0.2,1.3,1,1,1,0.3,0.5,0.5,-0.4,0,0.5,-0.2,0.5,0.5,0.2,0.2,0.2,-0.1,-0.3,0.7,0.5,0,0,0,0.5,0.5,0.5,0.5,0,-0.3,-0.2,0.5,0.5,0,-0.1" 
class="s1_1"
>POST:@RequestMapping(value = "/mocksuggestions")</text>

<path d="M192.1,132.9l92.2,0l0,12.1l-92.2,0l0,-12.1Z" class="g68_1" />
<text 
x="192" 
y="142" 
dx="0,1,1.1,0.5,0.5,-0.4,0.5,0.5,0.9,-0.3,0.5,-0.3,0.5,-0.2,-0.2,0.5,0.5,-0.4" 
class="s1_1"
>#searchBtn.click()</text>

<path d="M756.2,301.2l99.9,0l0,12.1l-99.9,0l0,-12.1Z" class="g68_1" />
<text 
x="756" 
y="311" 
dx="0,0.7,0.5,0.5,0.5,0.9,0.5,0.5,0.5,0.5,0.5,-0.3,-0.2,0.5,0.5,0.5,-0.4" 
class="s1_1"
>mockSuggestions()</text>



<!-- Any embedded fonts defined here -->
<style type="text/css" ><![CDATA[

@font-face {
	font-family: ArialUnicode_c;
	src: url("fonts/ArialUnicode_c.woff") format("woff");
}

]]></style>

</svg>
