<?xml version="1.0" encoding="UTF-8" standalone="no"?>
<!DOCTYPE svg PUBLIC "-//W3C//DTD SVG 1.1//EN"
"http://www.w3.org/Graphics/SVG/1.1/DTD/svg11.dtd">


<!-- Page 1 -->
<svg x="0" y="0" width="881" height="1260" viewBox="0 0 881 1260" version="1.1" xmlns="http://www.w3.org/2000/svg" xmlns:xlink="http://www.w3.org/1999/xlink"
style="display: block;margin-left: auto;margin-right: auto;">
<defs>

<style type="text/css"><![CDATA[

.g1_1{
fill: #DFDFDF;
}
.g2_1{
fill: #F8E2C1;
}
.g3_1{
fill: none;
stroke: #000000;
stroke-width: 1.0975593;
stroke-linecap: round;
stroke-linejoin: miter;
}
.g4_1{
fill: #00FFFF;
}
.g5_1{
fill: #00FEFE;
}
.g6_1{
fill: #00FDFD;
}
.g7_1{
fill: #00FCFC;
}
.g8_1{
fill: #00FBFB;
}
.g9_1{
fill: #00FAFB;
}
.g10_1{
fill: #00FAFA;
}
.g11_1{
fill: #00F9F9;
}
.g12_1{
fill: #00F8F8;
}
.g13_1{
fill: #00F7F7;
}
.g14_1{
fill: #00F6F7;
}
.g15_1{
fill: #00F6F6;
}
.g16_1{
fill: #00F5F5;
}
.g17_1{
fill: #00F4F4;
}
.g18_1{
fill: #00F3F3;
}
.g19_1{
fill: #00F2F3;
}
.g20_1{
fill: #00F2F2;
}
.g21_1{
fill: #00F1F1;
}
.g22_1{
fill: #00F0F0;
}
.g23_1{
fill: #00EFEF;
}
.g24_1{
fill: #00EEEF;
}
.g25_1{
fill: #00EDEE;
}
.g26_1{
fill: #00EDED;
}
.g27_1{
fill: #00ECEC;
}
.g28_1{
fill: #00EBEB;
}
.g29_1{
fill: #00EAEB;
}
.g30_1{
fill: #00E9EA;
}
.g31_1{
fill: #00E9E9;
}
.g32_1{
fill: #00E8E8;
}
.g33_1{
fill: #00E7E7;
}
.g34_1{
fill: #00E6E7;
}
.g35_1{
fill: #00E5E6;
}
.g36_1{
fill: #00E5E5;
}
.g37_1{
fill: #00E4E4;
}
.g38_1{
fill: #00E3E3;
}
.g39_1{
fill: #00E2E3;
}
.g40_1{
fill: #00E1E2;
}
.g41_1{
fill: #00E0E1;
}
.g42_1{
fill: #00E0E0;
}
.g43_1{
fill: #00DFDF;
}
.g44_1{
fill: #00DEDF;
}
.g45_1{
fill: #00DDDE;
}
.g46_1{
fill: #00DCDD;
}
.g47_1{
fill: #00DCDC;
}
.g48_1{
fill: #00DBDB;
}
.g49_1{
fill: #00DADB;
}
.g50_1{
fill: #00D9DA;
}
.g51_1{
fill: #00D8D9;
}
.g52_1{
fill: #00D8D8;
}
.g53_1{
fill: #00D7D7;
}
.g54_1{
fill: #00D6D7;
}
.g55_1{
fill: #00D5D6;
}
.g56_1{
fill: #00D4D5;
}
.g57_1{
fill: #00D3D4;
}
.g58_1{
fill: #00D3D3;
}
.g59_1{
fill: #00D2D3;
}
.g60_1{
fill: #00D1D2;
}
.g61_1{
fill: #00D0D1;
}
.g62_1{
fill: #00CFD0;
}
.g63_1{
fill: #00CFCF;
}
.g64_1{
fill: #00CECF;
}
.g65_1{
fill: #00CDCE;
}
.g66_1{
fill: #00CCCD;
}
.g67_1{
fill: #00CBCC;
}
.g68_1{
stroke: #000000;
stroke-width: 1.0975593;
stroke-linecap: round;
stroke-linejoin: miter;
}
.g69_1{
fill: #FFFFFF;
}

.s1_1{
font-size: 11.00px;
font-family: ArialUnicode_a;
fill: #000000;
}

]]></style>

</defs>
<path d="M0,0
L0,1260
L881,1260
L881,0 Z " 
fill="#FFFFFF" stroke="none" />
<path d="M194.3,62c0,-2.8,2.2,-5,4.9,-5c2.7,0,4.9,2.2,4.9,5c0,2.7,-2.2,4.9,-4.9,4.9c-2.7,0,-4.9,-2.2,-4.9,-4.9Z" class="g1_1" />
<path d="M192.1,59.8c0,-2.8,2.2,-5,4.9,-5c2.7,0,5,2.2,5,5c0,2.7,-2.3,4.9,-5,4.9c-2.7,0,-4.9,-2.2,-4.9,-4.9Z" class="g2_1" />
<path d="M192.1,59.8c0,-2.8,2.2,-5,4.9,-5c2.7,0,5,2.2,5,5c0,2.7,-2.3,4.9,-5,4.9c-2.7,0,-4.9,-2.2,-4.9,-4.9" class="g3_1" />
<path d="M197.6,65.8l0,11" class="g3_1" />
<path d="M192.1,71.3l10.9,0" class="g3_1" />
<path d="M192.1,87.8l5.5,-11" class="g3_1" />
<path d="M203,87.8l-5.4,-11" class="g3_1" />
<text 
x="179" 
y="103" 
dx="0,0.9,0,0.5,-0.1,-0.1" 
class="s1_1"
>Usager</text>

<path d="M197.6,107.6l0,7.7" class="g3_1" />
<path d="M197.6,119.7l0,7.7" class="g3_1" />
<path d="M197.6,131.8l0,7.7" class="g3_1" />
<path d="M197.6,143.9l0,7.7" class="g3_1" />
<path d="M197.6,156l0,7.7" class="g3_1" />
<path d="M197.6,168.1l0,7.7" class="g3_1" />
<path d="M197.6,180.2l0,7.7" class="g3_1" />
<path d="M197.6,192.3l0,7.7" class="g3_1" />
<path d="M197.6,204.4l0,7.7" class="g3_1" />
<path d="M197.6,216.5l0,7.7" class="g3_1" />
<path d="M197.6,228.6l0,7.7" class="g3_1" />
<path d="M197.6,240.7l0,7.7" class="g3_1" />
<path d="M197.6,252.8l0,7.7" class="g3_1" />
<path d="M197.6,264.9l0,2.2" class="g3_1" />
<path d="M192.1,153.8c0,-5.5,0,-5.5,3.8,-5.5l2.2,0c3.9,0,3.9,0,3.9,5.5l0,90.2c0,5.5,0,5.5,-3.9,5.5l-2.2,0c-3.8,0,-3.8,0,-3.8,-5.5l0,-90.2Z" class="g2_1" />
<path d="M192.1,153.8c0,-5.5,0,-5.5,3.8,-5.5l2.2,0c3.9,0,3.9,0,3.9,5.5l0,90.2c0,5.5,0,5.5,-3.9,5.5l-2.2,0c-3.8,0,-3.8,0,-3.8,-5.5l0,-90.2" class="g3_1" />
<path d="M197.6,241.2c0,-7.1,0,-7.1,3.8,-7.1l2.2,0c3.8,0,3.8,0,3.8,7.1l0,-2.2c0,7.2,0,7.2,-3.8,7.2l-2.2,0c-3.8,0,-3.8,0,-3.8,-7.2l0,2.2Z" class="g2_1" />
<path d="M197.6,241.2c0,-7.1,0,-7.1,3.8,-7.1l2.2,0c3.8,0,3.8,0,3.8,7.1l0,-2.2c0,7.2,0,7.2,-3.8,7.2l-2.2,0c-3.8,0,-3.8,0,-3.8,-7.2l0,2.2" class="g3_1" />
<path d="M420.4,63.6c0,-5.5,0,-5.5,5.5,-5.5l86.7,0c5.4,0,5.4,0,5.4,5.5l0,42.9c0,5.5,0,5.5,-5.4,5.5l-86.7,0c-5.5,0,-5.5,0,-5.5,-5.5l0,-42.9Z" class="g1_1" />
<path d="M417.1,60.3c0,-5.5,0,-5.5,5.5,-5.5l86.7,0c5.5,0,5.5,0,5.5,5.5l0,42.9c0,5.5,0,5.5,-5.5,5.5l-86.7,0c-5.5,0,-5.5,0,-5.5,-5.5l0,-42.9Z" class="g4_1" />
<path d="M417.1,60.3c0,-5.5,0,-5.5,5.5,-5.5l86.7,0c5.5,0,5.5,0,5.5,5.5l0,42.9c0,5.5,0,5.5,-5.5,5.5l-86.7,0c-5.5,0,-5.5,0,-5.5,-5.5l0,-42.9" class="g3_1" />
<path d="M417.1,60.3c0,-5.5,0,-5.5,5.5,-5.5l86.7,0c5.5,0,5.5,0,5.5,5.5l0,42.9c0,5.5,0,5.5,-5.5,5.5l-86.7,0c-5.5,0,-5.5,0,-5.5,-5.5l0,-42.9" class="g3_1" />
<path d="M0,-0.1l-1,0l0,-1.1l1,0l0,1.1Z" class="g4_1" />
<path d="M0,-0.1l-1,0l0,-1.1l1,0l0,1.1Z" class="g5_1" />
<path d="M0,-0.1l-1,0l0,-1.1l1,0l0,1.1Z" class="g6_1" />
<path d="M0,-0.1l-1,0l0,-1.1l1,0l0,1.1Z" class="g7_1" />
<path d="M0,-0.1l-1,0l0,-1.1l1,0l0,1.1Z" class="g8_1" />
<path d="M0,-0.1l-1,0l0,-1.1l1,0l0,1.1Z" class="g8_1" />
<path d="M0,-0.1l-1,0l0,-1.1l1,0l0,1.1Z" class="g9_1" />
<path d="M0,-0.1l-1,0l0,-1.1l1,0l0,1.1Z" class="g10_1" />
<path d="M0,-0.1l-1,0l0,-1.1l1,0l0,1.1Z" class="g11_1" />
<path d="M0,-0.1l-1,0l0,-1.1l1,0l0,1.1Z" class="g12_1" />
<path d="M0,-0.1l-1,0l0,-1.1l1,0l0,1.1Z" class="g13_1" />
<path d="M0,-0.1l-1,0l0,-1.1l1,0l0,1.1Z" class="g14_1" />
<path d="M0,-0.1l-1,0l0,-1.1l1,0l0,1.1Z" class="g15_1" />
<path d="M0,-0.1l-1,0l0,-1.1l1,0l0,1.1Z" class="g16_1" />
<path d="M0,-0.1l-1,0l0,-1.1l1,0l0,1.1Z" class="g17_1" />
<path d="M0,-0.1l-1,0l0,-1.1l1,0l0,1.1Z" class="g18_1" />
<path d="M0,-0.1l-1,0l0,-1.1l1,0l0,1.1Z" class="g19_1" />
<path d="M0,-0.1l-1,0l0,-1.1l1,0l0,1.1Z" class="g20_1" />
<path d="M0,-0.1l-1,0l0,-1.1l1,0l0,1.1Z" class="g21_1" />
<path d="M0,-0.1l-1,0l0,-1.1l1,0l0,1.1Z" class="g22_1" />
<path d="M0,-0.1l-1,0l0,-1.1l1,0l0,1.1Z" class="g23_1" />
<path d="M0,-0.1l-1,0l0,-1.1l1,0l0,1.1Z" class="g24_1" />
<path d="M0,-0.1l-1,0l0,-1.1l1,0l0,1.1Z" class="g25_1" />
<path d="M0,-0.1l-1,0l0,-1.1l1,0l0,1.1Z" class="g26_1" />
<path d="M0,-0.1l-1,0l0,-1.1l1,0l0,1.1Z" class="g27_1" />
<path d="M0,-0.1l-1,0l0,-1.1l1,0l0,1.1Z" class="g28_1" />
<path d="M0,-0.1l-1,0l0,-1.1l1,0l0,1.1Z" class="g29_1" />
<path d="M0,-0.1l-1,0l0,-1.1l1,0l0,1.1Z" class="g29_1" />
<path d="M0,-0.1l-1,0l0,-1.1l1,0l0,1.1Z" class="g30_1" />
<path d="M0,-0.1l-1,0l0,-1.1l1,0l0,1.1Z" class="g31_1" />
<path d="M0,-0.1l-1,0l0,-1.1l1,0l0,1.1Z" class="g32_1" />
<path d="M0,-0.1l-1,0l0,-1.1l1,0l0,1.1Z" class="g33_1" />
<path d="M0,-0.1l-1,0l0,-1.1l1,0l0,1.1Z" class="g34_1" />
<path d="M0,-0.1l-1,0l0,-1.1l1,0l0,1.1Z" class="g35_1" />
<path d="M0,-0.1l-1,0l0,-1.1l1,0l0,1.1Z" class="g36_1" />
<path d="M0,-0.1l-1,0l0,-1.1l1,0l0,1.1Z" class="g37_1" />
<path d="M0,-0.1l-1,0l0,-1.1l1,0l0,1.1Z" class="g38_1" />
<path d="M0,-0.1l-1,0l0,-1.1l1,0l0,1.1Z" class="g39_1" />
<path d="M0,-0.1l-1,0l0,-1.1l1,0l0,1.1Z" class="g40_1" />
<path d="M0,-0.1l-1,0l0,-1.1l1,0l0,1.1Z" class="g41_1" />
<path d="M0,-0.1l-1,0l0,-1.1l1,0l0,1.1Z" class="g42_1" />
<path d="M0,-0.1l-1,0l0,-1.1l1,0l0,1.1Z" class="g43_1" />
<path d="M0,-0.1l-1,0l0,-1.1l1,0l0,1.1Z" class="g44_1" />
<path d="M0,-0.1l-1,0l0,-1.1l1,0l0,1.1Z" class="g45_1" />
<path d="M0,-0.1l-1,0l0,-1.1l1,0l0,1.1Z" class="g46_1" />
<path d="M0,-0.1l-1,0l0,-1.1l1,0l0,1.1Z" class="g47_1" />
<path d="M0,-0.1l-1,0l0,-1.1l1,0l0,1.1Z" class="g48_1" />
<path d="M0,-0.1l-1,0l0,-1.1l1,0l0,1.1Z" class="g49_1" />
<path d="M0,-0.1l-1,0l0,-1.1l1,0l0,1.1Z" class="g50_1" />
<path d="M0,-0.1l-1,0l0,-1.1l1,0l0,1.1Z" class="g51_1" />
<path d="M0,-0.1l-1,0l0,-1.1l1,0l0,1.1Z" class="g52_1" />
<path d="M0,-0.1l-1,0l0,-1.1l1,0l0,1.1Z" class="g53_1" />
<path d="M0,-0.1l-1,0l0,-1.1l1,0l0,1.1Z" class="g54_1" />
<path d="M0,-0.1l-1,0l0,-1.1l1,0l0,1.1Z" class="g55_1" />
<path d="M0,-0.1l-1,0l0,-1.1l1,0l0,1.1Z" class="g56_1" />
<path d="M0,-0.1l-1,0l0,-1.1l1,0l0,1.1Z" class="g57_1" />
<path d="M0,-0.1l-1,0l0,-1.1l1,0l0,1.1Z" class="g58_1" />
<path d="M0,-0.1l-1,0l0,-1.1l1,0l0,1.1Z" class="g59_1" />
<path d="M0,-0.1l-1,0l0,-1.1l1,0l0,1.1Z" class="g60_1" />
<path d="M0,-0.1l-1,0l0,-1.1l1,0l0,1.1Z" class="g61_1" />
<path d="M0,-0.1l-1,0l0,-1.1l1,0l0,1.1Z" class="g62_1" />
<path d="M0,-0.1l-1,0l0,-1.1l1,0l0,1.1Z" class="g63_1" />
<path d="M0,-0.1l-1,0l0,-1.1l1,0l0,1.1Z" class="g64_1" />
<path d="M0,-0.1l-1,0l0,-1.1l1,0l0,1.1Z" class="g65_1" />
<path d="M0,-0.1l-1,0l0,-1.1l1,0l0,1.1Z" class="g66_1" />
<path d="M0,-0.1l-1,0l0,-1.1l1,0l0,1.1Z" class="g67_1" />
<path d="M417.1,54.8l97.7,0l0,53.9l-97.7,0l0,-53.9Z" class="g3_1" />
<text 
x="430" 
y="68" 
dx="0,1.5,0.5,-0.4,0.9,0.5,0.2,0.9,0,0,-0.3,0.5" 
class="s1_1"
>KarCo System</text>

<path d="M466.5,109.8l0,7.7" class="g3_1" />
<path d="M466.5,121.9l0,7.7" class="g3_1" />
<path d="M466.5,134l0,7.7" class="g3_1" />
<path d="M466.5,146.1l0,7.7" class="g3_1" />
<path d="M466.5,158.2l0,7.7" class="g3_1" />
<path d="M466.5,170.3l0,7.7" class="g3_1" />
<path d="M466.5,182.4l0,7.7" class="g3_1" />
<path d="M466.5,194.5l0,7.7" class="g3_1" />
<path d="M466.5,206.6l0,7.7" class="g3_1" />
<path d="M466.5,218.7l0,7.7" class="g3_1" />
<path d="M466.5,230.8l0,7.7" class="g3_1" />
<path d="M466.5,242.9l0,7.7" class="g3_1" />
<path d="M466.5,255l0,7.7" class="g3_1" />
<path d="M461,153.8c0,-5.5,0,-5.5,3.8,-5.5l2.2,0c3.9,0,3.9,0,3.9,5.5l0,90.2c0,5.5,0,5.5,-3.9,5.5l-2.2,0c-3.8,0,-3.8,0,-3.8,-5.5l0,-90.2Z" class="g4_1" />
<path d="M461,153.8c0,-5.5,0,-5.5,3.8,-5.5l2.2,0c3.9,0,3.9,0,3.9,5.5l0,90.2c0,5.5,0,5.5,-3.9,5.5l-2.2,0c-3.8,0,-3.8,0,-3.8,-5.5l0,-90.2" class="g3_1" />
<path d="M466.5,215.4c0,-6.6,0,-6.6,3.8,-6.6l2.2,0c3.8,0,3.8,0,3.8,6.6l0,-2.2c0,6.6,0,6.6,-3.8,6.6l-2.2,0c-3.8,0,-3.8,0,-3.8,-6.6l0,2.2Z" class="g4_1" />
<path d="M466.5,215.4c0,-6.6,0,-6.6,3.8,-6.6l2.2,0c3.8,0,3.8,0,3.8,6.6l0,-2.2c0,6.6,0,6.6,-3.8,6.6l-2.2,0c-3.8,0,-3.8,0,-3.8,-6.6l0,2.2" class="g3_1" />
<path d="M203,148.3l258,0" class="g3_1" />
<path d="M447.8,143.9l0,4.4l0,4.4L461,148.3l-13.2,-4.4" class="g68_1" />
<path d="M472,192.3l43.9,0" class="g3_1" />
<path d="M515.9,192.3l0,16.5" class="g3_1" />
<path d="M515.9,208.8l-38.5,0" class="g3_1" />
<path d="M490.6,204.4l0,4.4l0,4.4l-13.2,-4.4l13.2,-4.4" class="g68_1" />
<path d="M461,234.1l-252.5,0" class="g3_1" />
<path d="M221.7,229.7l0,4.4l0,4.4l-13.2,-4.4l13.2,-4.4" class="g68_1" />
<path d="M287.6,218.7l99.8,0l0,12.1l-99.8,0l0,-12.1Z" class="g69_1" />
<text 
x="287" 
y="228" 
dx="0,1.5,1,1,1,0.8,1.5,0.5,0.5,0.5,0.5,0.5,-0.3,-0.2,0.5,0.5,-0.4" 
class="s1_1"
>Send Suggestion()</text>

<path d="M268.9,132.9l131.7,0l0,12.1l-131.7,0l0,-12.1Z" class="g69_1" />
<text 
x="268" 
y="142" 
dx="0,1.5,1,1,1,0.2,0.9,0.5,0.7,0.5,0.5,0.5,0.2,0.9,0.5,0.5,0.5,0.5,0,-0.3,-0.4" 
class="s1_1"
>Send Demand Request()</text>

<path d="M520.2,194.5l98.8,0l0,12.1l-98.8,0l0,-12.1Z" class="g69_1" />
<text 
x="520" 
y="204" 
dx="0,1.3,1,1.1,0.5,0.2,0.9,0.5,0.5,0.5,0.5,0.5,-0.3,-0.2,0.5,0.5,-0.4" 
class="s1_1"
>Mock Suggestion()</text>



<!-- Any embedded fonts defined here -->
<style type="text/css" ><![CDATA[

@font-face {
	font-family: ArialUnicode_a;
	src: url("fonts/ArialUnicode_a.woff") format("woff");
}

]]></style>

</svg>
