<?xml version="1.0" encoding="UTF-8" standalone="no"?>
<!DOCTYPE svg PUBLIC "-//W3C//DTD SVG 1.1//EN"
"http://www.w3.org/Graphics/SVG/1.1/DTD/svg11.dtd">


<!-- Page 1 -->
<svg x="0" y="0" width="881" height="1260" viewBox="0 0 881 1260" version="1.1" xmlns="http://www.w3.org/2000/svg" xmlns:xlink="http://www.w3.org/1999/xlink"
style="display: block;margin-left: auto;margin-right: auto;">
<defs>

<style type="text/css"><![CDATA[

.g1_1{
fill: #DFDFDF;
}
.g2_1{
fill: #FFC0CB;
}
.g3_1{
fill: none;
stroke: #000000;
stroke-width: 1.0975593;
stroke-linecap: round;
stroke-linejoin: miter;
}
.g4_1{
fill: #FEBFCA;
}
.g5_1{
fill: #FEBEC9;
}
.g6_1{
fill: #FEBDC8;
}
.g7_1{
fill: #FEBCC8;
}
.g8_1{
fill: #FEBCC7;
}
.g9_1{
fill: #FEBBC6;
}
.g10_1{
fill: #FEBAC6;
}
.g11_1{
fill: #FEB9C5;
}
.g12_1{
fill: #FEB8C4;
}
.g13_1{
fill: #FEB7C3;
}
.g14_1{
fill: #FEB6C2;
}
.g15_1{
fill: #FEB5C2;
}
.g16_1{
fill: #FEB4C1;
}
.g17_1{
fill: #FEB4C0;
}
.g18_1{
fill: #FEB3C0;
}
.g19_1{
fill: #FEB2BF;
}
.g20_1{
fill: #FEB1BE;
}
.g21_1{
fill: #FEB0BE;
}
.g22_1{
fill: #FEB0BD;
}
.g23_1{
fill: #FEAFBC;
}
.g24_1{
fill: #FEAEBC;
}
.g25_1{
fill: #FEADBB;
}
.g26_1{
fill: #FEACBA;
}
.g27_1{
fill: #FEABB9;
}
.g28_1{
fill: #FEAAB8;
}
.g29_1{
fill: #FEA9B8;
}
.g30_1{
fill: #FEA8B7;
}
.g31_1{
fill: #FEA8B6;
}
.g32_1{
fill: #FEA7B6;
}
.g33_1{
fill: #FEA6B5;
}
.g34_1{
fill: #FEA5B4;
}
.g35_1{
fill: #FEA4B4;
}
.g36_1{
fill: #FEA4B3;
}
.g37_1{
fill: #FEA3B2;
}
.g38_1{
fill: #FEA2B2;
}
.g39_1{
fill: #FEA1B1;
}
.g40_1{
fill: #FEA0B0;
}
.g41_1{
fill: #FE9FAF;
}
.g42_1{
fill: #FE9EAE;
}
.g43_1{
fill: #FE9DAE;
}
.g44_1{
fill: #FE9CAD;
}
.g45_1{
fill: #FE9CAC;
}
.g46_1{
fill: #FE9BAC;
}
.g47_1{
fill: #FE9AAB;
}
.g48_1{
fill: #FE99AA;
}
.g49_1{
fill: #FE98AA;
}
.g50_1{
fill: #FE98A9;
}
.g51_1{
fill: #FE97A8;
}
.g52_1{
fill: #FE96A8;
}
.g53_1{
fill: #FE95A7;
}
.g54_1{
fill: #FE94A6;
}
.g55_1{
fill: #FE93A5;
}
.g56_1{
fill: #FE92A4;
}
.g57_1{
fill: #FE91A4;
}
.g58_1{
fill: #FE90A3;
}
.g59_1{
fill: #FE90A2;
}
.g60_1{
fill: #FE8FA2;
}
.g61_1{
fill: #FE8EA1;
}
.g62_1{
fill: #FE8DA0;
}
.g63_1{
fill: #3CB371;
}
.g64_1{
fill: #3BB270;
}
.g65_1{
fill: #3BB170;
}
.g66_1{
fill: #3BB16F;
}
.g67_1{
fill: #3BB06F;
}
.g68_1{
fill: #3AAF6F;
}
.g69_1{
fill: #3AAF6E;
}
.g70_1{
fill: #3AAE6E;
}
.g71_1{
fill: #3AAE6D;
}
.g72_1{
fill: #3AAD6D;
}
.g73_1{
fill: #39AC6D;
}
.g74_1{
fill: #39AC6C;
}
.g75_1{
fill: #39AB6C;
}
.g76_1{
fill: #39AB6B;
}
.g77_1{
fill: #39AA6B;
}
.g78_1{
fill: #38A96B;
}
.g79_1{
fill: #38A96A;
}
.g80_1{
fill: #38A86A;
}
.g81_1{
fill: #38A869;
}
.g82_1{
fill: #38A769;
}
.g83_1{
fill: #37A669;
}
.g84_1{
fill: #37A668;
}
.g85_1{
fill: #37A568;
}
.g86_1{
fill: #37A468;
}
.g87_1{
fill: #37A467;
}
.g88_1{
fill: #36A367;
}
.g89_1{
fill: #36A366;
}
.g90_1{
fill: #36A266;
}
.g91_1{
fill: #36A166;
}
.g92_1{
fill: #36A165;
}
.g93_1{
fill: #35A065;
}
.g94_1{
fill: #35A064;
}
.g95_1{
fill: #359F64;
}
.g96_1{
fill: #359E64;
}
.g97_1{
fill: #359E63;
}
.g98_1{
fill: #349D63;
}
.g99_1{
fill: #349D62;
}
.g100_1{
fill: #349C62;
}
.g101_1{
fill: #349B62;
}
.g102_1{
fill: #349B61;
}
.g103_1{
fill: #339A61;
}
.g104_1{
fill: #339A60;
}
.g105_1{
fill: #339960;
}
.g106_1{
fill: #339860;
}
.g107_1{
fill: #33985F;
}
.g108_1{
fill: #32975F;
}
.g109_1{
fill: #32965F;
}
.g110_1{
fill: #32965E;
}
.g111_1{
fill: #32955E;
}
.g112_1{
fill: #32955D;
}
.g113_1{
fill: #31945D;
}
.g114_1{
fill: #31935D;
}
.g115_1{
fill: #31935C;
}
.g116_1{
fill: #31925C;
}
.g117_1{
fill: #31925B;
}
.g118_1{
fill: #30915B;
}
.g119_1{
fill: #30905B;
}
.g120_1{
fill: #30905A;
}
.g121_1{
fill: #308F5A;
}
.g122_1{
fill: #308F59;
}
.g123_1{
fill: #2F8E59;
}
.g124_1{
fill: #2F8D59;
}
.g125_1{
fill: #2F8D58;
}
.g126_1{
fill: #2F8C58;
}
.g127_1{
fill: #00CCFF;
}
.g128_1{
fill: #00CBFE;
}
.g129_1{
fill: #00CAFD;
}
.g130_1{
fill: #00CAFC;
}
.g131_1{
fill: #00C9FB;
}
.g132_1{
fill: #00C8FB;
}
.g133_1{
fill: #00C8FA;
}
.g134_1{
fill: #00C7F9;
}
.g135_1{
fill: #00C6F8;
}
.g136_1{
fill: #00C6F7;
}
.g137_1{
fill: #00C5F7;
}
.g138_1{
fill: #00C4F6;
}
.g139_1{
fill: #00C4F5;
}
.g140_1{
fill: #00C3F4;
}
.g141_1{
fill: #00C3F3;
}
.g142_1{
fill: #00C2F3;
}
.g143_1{
fill: #00C1F2;
}
.g144_1{
fill: #00C1F1;
}
.g145_1{
fill: #00C0F0;
}
.g146_1{
fill: #00BFEF;
}
.g147_1{
fill: #00BEEE;
}
.g148_1{
fill: #00BDED;
}
.g149_1{
fill: #00BDEC;
}
.g150_1{
fill: #00BCEB;
}
.g151_1{
fill: #00BBEB;
}
.g152_1{
fill: #00BBEA;
}
.g153_1{
fill: #00BAE9;
}
.g154_1{
fill: #00BAE8;
}
.g155_1{
fill: #00B9E7;
}
.g156_1{
fill: #00B8E7;
}
.g157_1{
fill: #00B8E6;
}
.g158_1{
fill: #00B7E5;
}
.g159_1{
fill: #00B6E4;
}
.g160_1{
fill: #00B6E3;
}
.g161_1{
fill: #00B5E3;
}
.g162_1{
fill: #00B4E2;
}
.g163_1{
fill: #00B4E1;
}
.g164_1{
fill: #00B3E0;
}
.g165_1{
fill: #00B3DF;
}
.g166_1{
fill: #00B2DF;
}
.g167_1{
fill: #00B1DE;
}
.g168_1{
fill: #00B1DD;
}
.g169_1{
fill: #00B0DC;
}
.g170_1{
fill: #00AFDB;
}
.g171_1{
fill: #00AEDA;
}
.g172_1{
fill: #00ADD9;
}
.g173_1{
fill: #00ADD8;
}
.g174_1{
fill: #00ACD7;
}
.g175_1{
fill: #00ABD7;
}
.g176_1{
fill: #00ABD6;
}
.g177_1{
fill: #00AAD5;
}
.g178_1{
fill: #00AAD4;
}
.g179_1{
fill: #00A9D3;
}
.g180_1{
fill: #00A8D3;
}
.g181_1{
fill: #00A8D2;
}
.g182_1{
fill: #00A7D1;
}
.g183_1{
fill: #00A6D0;
}
.g184_1{
fill: #00A6CF;
}
.g185_1{
fill: #00A5CF;
}
.g186_1{
fill: #00A4CE;
}
.g187_1{
fill: #00A4CD;
}
.g188_1{
fill: #00A3CC;
}
.g189_1{
fill: #FCF2E3;
stroke: #000000;
stroke-width: 1.0975593;
stroke-linecap: round;
stroke-linejoin: miter;
}
.g190_1{
fill: #FCF2E3;
}
.g191_1{
fill: #FFFFFF;
}

.s1_1{
font-size: 11.00px;
font-family: ArialUnicode-Bold_g;
fill: #000000;
}
.s2_1{
font-size: 11.00px;
font-family: ArialUnicode_a;
fill: #000000;
}

]]></style>

</defs>
<path d="M0,0
L0,1260
L881,1260
L881,0 Z " 
fill="#FFFFFF" stroke="none" />
<path d="M672.8,206.6c0,-5.5,0,-5.5,5.5,-5.5l119.6,0c5.5,0,5.5,0,5.5,5.5l0,64.9c0,5.5,0,5.5,-5.5,5.5l-119.6,0c-5.5,0,-5.5,0,-5.5,-5.5l0,-64.9Z" class="g1_1" />
<path d="M669.5,203.3c0,-5.5,0,-5.5,5.5,-5.5l119.6,0c5.5,0,5.5,0,5.5,5.5l0,64.9c0,5.5,0,5.5,-5.5,5.5l-119.6,0c-5.5,0,-5.5,0,-5.5,-5.5l0,-64.9Z" class="g2_1" />
<path d="M669.5,203.3c0,-5.5,0,-5.5,5.5,-5.5l119.6,0c5.5,0,5.5,0,5.5,5.5l0,64.9c0,5.5,0,5.5,-5.5,5.5l-119.6,0c-5.5,0,-5.5,0,-5.5,-5.5l0,-64.9" class="g3_1" />
<path d="M669.5,203.3c0,-5.5,0,-5.5,5.5,-5.5l119.6,0c5.5,0,5.5,0,5.5,5.5l0,64.9c0,5.5,0,5.5,-5.5,5.5l-119.6,0c-5.5,0,-5.5,0,-5.5,-5.5l0,-64.9" class="g3_1" />
<path d="M0,-0.1l-1,0l0,-1.1l1,0l0,1.1Z" class="g2_1" />
<path d="M0,-0.1l-1,0l0,-1.1l1,0l0,1.1Z" class="g4_1" />
<path d="M0,-0.1l-1,0l0,-1.1l1,0l0,1.1Z" class="g5_1" />
<path d="M0,-0.1l-1,0l0,-1.1l1,0l0,1.1Z" class="g6_1" />
<path d="M0,-0.1l-1,0l0,-1.1l1,0l0,1.1Z" class="g7_1" />
<path d="M0,-0.1l-1,0l0,-1.1l1,0l0,1.1Z" class="g8_1" />
<path d="M0,-0.1l-1,0l0,-1.1l1,0l0,1.1Z" class="g9_1" />
<path d="M0,-0.1l-1,0l0,-1.1l1,0l0,1.1Z" class="g10_1" />
<path d="M0,-0.1l-1,0l0,-1.1l1,0l0,1.1Z" class="g11_1" />
<path d="M0,-0.1l-1,0l0,-1.1l1,0l0,1.1Z" class="g12_1" />
<path d="M0,-0.1l-1,0l0,-1.1l1,0l0,1.1Z" class="g12_1" />
<path d="M0,-0.1l-1,0l0,-1.1l1,0l0,1.1Z" class="g13_1" />
<path d="M0,-0.1l-1,0l0,-1.1l1,0l0,1.1Z" class="g14_1" />
<path d="M0,-0.1l-1,0l0,-1.1l1,0l0,1.1Z" class="g15_1" />
<path d="M0,-0.1l-1,0l0,-1.1l1,0l0,1.1Z" class="g16_1" />
<path d="M0,-0.1l-1,0l0,-1.1l1,0l0,1.1Z" class="g17_1" />
<path d="M0,-0.1l-1,0l0,-1.1l1,0l0,1.1Z" class="g18_1" />
<path d="M0,-0.1l-1,0l0,-1.1l1,0l0,1.1Z" class="g19_1" />
<path d="M0,-0.1l-1,0l0,-1.1l1,0l0,1.1Z" class="g20_1" />
<path d="M0,-0.1l-1,0l0,-1.1l1,0l0,1.1Z" class="g21_1" />
<path d="M0,-0.1l-1,0l0,-1.1l1,0l0,1.1Z" class="g22_1" />
<path d="M0,-0.1l-1,0l0,-1.1l1,0l0,1.1Z" class="g23_1" />
<path d="M0,-0.1l-1,0l0,-1.1l1,0l0,1.1Z" class="g24_1" />
<path d="M0,-0.1l-1,0l0,-1.1l1,0l0,1.1Z" class="g25_1" />
<path d="M0,-0.1l-1,0l0,-1.1l1,0l0,1.1Z" class="g26_1" />
<path d="M0,-0.1l-1,0l0,-1.1l1,0l0,1.1Z" class="g26_1" />
<path d="M0,-0.1l-1,0l0,-1.1l1,0l0,1.1Z" class="g27_1" />
<path d="M0,-0.1l-1,0l0,-1.1l1,0l0,1.1Z" class="g28_1" />
<path d="M0,-0.1l-1,0l0,-1.1l1,0l0,1.1Z" class="g29_1" />
<path d="M0,-0.1l-1,0l0,-1.1l1,0l0,1.1Z" class="g30_1" />
<path d="M0,-0.1l-1,0l0,-1.1l1,0l0,1.1Z" class="g31_1" />
<path d="M0,-0.1l-1,0l0,-1.1l1,0l0,1.1Z" class="g32_1" />
<path d="M0,-0.1l-1,0l0,-1.1l1,0l0,1.1Z" class="g33_1" />
<path d="M0,-0.1l-1,0l0,-1.1l1,0l0,1.1Z" class="g34_1" />
<path d="M0,-0.1l-1,0l0,-1.1l1,0l0,1.1Z" class="g35_1" />
<path d="M0,-0.1l-1,0l0,-1.1l1,0l0,1.1Z" class="g36_1" />
<path d="M0,-0.1l-1,0l0,-1.1l1,0l0,1.1Z" class="g37_1" />
<path d="M0,-0.1l-1,0l0,-1.1l1,0l0,1.1Z" class="g38_1" />
<path d="M0,-0.1l-1,0l0,-1.1l1,0l0,1.1Z" class="g39_1" />
<path d="M0,-0.1l-1,0l0,-1.1l1,0l0,1.1Z" class="g40_1" />
<path d="M0,-0.1l-1,0l0,-1.1l1,0l0,1.1Z" class="g40_1" />
<path d="M0,-0.1l-1,0l0,-1.1l1,0l0,1.1Z" class="g40_1" />
<path d="M0,-0.1l-1,0l0,-1.1l1,0l0,1.1Z" class="g41_1" />
<path d="M0,-0.1l-1,0l0,-1.1l1,0l0,1.1Z" class="g42_1" />
<path d="M0,-0.1l-1,0l0,-1.1l1,0l0,1.1Z" class="g43_1" />
<path d="M0,-0.1l-1,0l0,-1.1l1,0l0,1.1Z" class="g44_1" />
<path d="M0,-0.1l-1,0l0,-1.1l1,0l0,1.1Z" class="g45_1" />
<path d="M0,-0.1l-1,0l0,-1.1l1,0l0,1.1Z" class="g46_1" />
<path d="M0,-0.1l-1,0l0,-1.1l1,0l0,1.1Z" class="g47_1" />
<path d="M0,-0.1l-1,0l0,-1.1l1,0l0,1.1Z" class="g48_1" />
<path d="M0,-0.1l-1,0l0,-1.1l1,0l0,1.1Z" class="g49_1" />
<path d="M0,-0.1l-1,0l0,-1.1l1,0l0,1.1Z" class="g50_1" />
<path d="M0,-0.1l-1,0l0,-1.1l1,0l0,1.1Z" class="g51_1" />
<path d="M0,-0.1l-1,0l0,-1.1l1,0l0,1.1Z" class="g52_1" />
<path d="M0,-0.1l-1,0l0,-1.1l1,0l0,1.1Z" class="g53_1" />
<path d="M0,-0.1l-1,0l0,-1.1l1,0l0,1.1Z" class="g54_1" />
<path d="M0,-0.1l-1,0l0,-1.1l1,0l0,1.1Z" class="g54_1" />
<path d="M0,-0.1l-1,0l0,-1.1l1,0l0,1.1Z" class="g55_1" />
<path d="M0,-0.1l-1,0l0,-1.1l1,0l0,1.1Z" class="g55_1" />
<path d="M0,-0.1l-1,0l0,-1.1l1,0l0,1.1Z" class="g56_1" />
<path d="M0,-0.1l-1,0l0,-1.1l1,0l0,1.1Z" class="g57_1" />
<path d="M0,-0.1l-1,0l0,-1.1l1,0l0,1.1Z" class="g58_1" />
<path d="M0,-0.1l-1,0l0,-1.1l1,0l0,1.1Z" class="g59_1" />
<path d="M0,-0.1l-1,0l0,-1.1l1,0l0,1.1Z" class="g60_1" />
<path d="M0,-0.1l-1,0l0,-1.1l1,0l0,1.1Z" class="g61_1" />
<path d="M0,-0.1l-1,0l0,-1.1l1,0l0,1.1Z" class="g62_1" />
<path d="M669.5,197.8l130.6,0l0,75.9l-130.6,0l0,-75.9Z" class="g3_1" />
<text 
x="679" 
y="217" 
dx="0,0.9,1,1,-0.4,-0.1,-0.1,-0.1,0.6,0.9,-0.4,0.4,-0.1" 
class="s1_1"
>AddressWS-dao</text>

<path d="M783.7,208.8c0,-5.5,0,-5.5,4.3,-5.5l2.2,0c4.4,0,4.4,0,4.4,5.5l0,6.6c0,5.5,0,5.5,-4.4,5.5l-2.2,0c-4.3,0,-4.3,0,-4.3,-5.5l0,-6.6Z" class="g2_1" />
<path d="M783.7,208.8c0,-5.5,0,-5.5,4.3,-5.5l2.2,0c4.4,0,4.4,0,4.4,5.5l0,6.6c0,5.5,0,5.5,-4.4,5.5l-2.2,0c-4.3,0,-4.3,0,-4.3,-5.5l0,-6.6" class="g3_1" />
<path d="M780.4,208.8c0,-3.3,0,-3.3,2.2,-3.3l2.2,0c2.2,0,2.2,0,2.2,3.3l0,-2.2c0,3.3,0,3.3,-2.2,3.3l-2.2,0c-2.2,0,-2.2,0,-2.2,-3.3l0,2.2Z" class="g2_1" />
<path d="M780.4,208.8c0,-3.3,0,-3.3,2.2,-3.3l2.2,0c2.2,0,2.2,0,2.2,3.3l0,-2.2c0,3.3,0,3.3,-2.2,3.3l-2.2,0c-2.2,0,-2.2,0,-2.2,-3.3l0,2.2" class="g3_1" />
<path d="M780.4,216.5c0,-3.3,0,-3.3,2.2,-3.3l2.2,0c2.2,0,2.2,0,2.2,3.3l0,-2.2c0,3.3,0,3.3,-2.2,3.3l-2.2,0c-2.2,0,-2.2,0,-2.2,-3.3l0,2.2Z" class="g2_1" />
<path d="M780.4,216.5c0,-3.3,0,-3.3,2.2,-3.3l2.2,0c2.2,0,2.2,0,2.2,3.3l0,-2.2c0,3.3,0,3.3,-2.2,3.3l-2.2,0c-2.2,0,-2.2,0,-2.2,-3.3l0,2.2" class="g3_1" />
<path d="M475.2,206.6c0,-5.5,0,-5.5,5.5,-5.5l119.7,0c5.5,0,5.5,0,5.5,5.5l0,64.9c0,5.5,0,5.5,-5.5,5.5l-119.7,0c-5.5,0,-5.5,0,-5.5,-5.5l0,-64.9Z" class="g1_1" />
<path d="M472,203.3c0,-5.5,0,-5.5,5.4,-5.5l119.7,0c5.5,0,5.5,0,5.5,5.5l0,64.9c0,5.5,0,5.5,-5.5,5.5l-119.7,0c-5.4,0,-5.4,0,-5.4,-5.5l0,-64.9Z" class="g2_1" />
<path d="M472,203.3c0,-5.5,0,-5.5,5.4,-5.5l119.7,0c5.5,0,5.5,0,5.5,5.5l0,64.9c0,5.5,0,5.5,-5.5,5.5l-119.7,0c-5.4,0,-5.4,0,-5.4,-5.5l0,-64.9" class="g3_1" />
<path d="M472,203.3c0,-5.5,0,-5.5,5.4,-5.5l119.7,0c5.5,0,5.5,0,5.5,5.5l0,64.9c0,5.5,0,5.5,-5.5,5.5l-119.7,0c-5.4,0,-5.4,0,-5.4,-5.5l0,-64.9" class="g3_1" />
<path d="M0,-0.1l-1,0l0,-1.1l1,0l0,1.1Z" class="g2_1" />
<path d="M0,-0.1l-1,0l0,-1.1l1,0l0,1.1Z" class="g4_1" />
<path d="M0,-0.1l-1,0l0,-1.1l1,0l0,1.1Z" class="g5_1" />
<path d="M0,-0.1l-1,0l0,-1.1l1,0l0,1.1Z" class="g6_1" />
<path d="M0,-0.1l-1,0l0,-1.1l1,0l0,1.1Z" class="g7_1" />
<path d="M0,-0.1l-1,0l0,-1.1l1,0l0,1.1Z" class="g8_1" />
<path d="M0,-0.1l-1,0l0,-1.1l1,0l0,1.1Z" class="g9_1" />
<path d="M0,-0.1l-1,0l0,-1.1l1,0l0,1.1Z" class="g10_1" />
<path d="M0,-0.1l-1,0l0,-1.1l1,0l0,1.1Z" class="g11_1" />
<path d="M0,-0.1l-1,0l0,-1.1l1,0l0,1.1Z" class="g12_1" />
<path d="M0,-0.1l-1,0l0,-1.1l1,0l0,1.1Z" class="g12_1" />
<path d="M0,-0.1l-1,0l0,-1.1l1,0l0,1.1Z" class="g13_1" />
<path d="M0,-0.1l-1,0l0,-1.1l1,0l0,1.1Z" class="g14_1" />
<path d="M0,-0.1l-1,0l0,-1.1l1,0l0,1.1Z" class="g15_1" />
<path d="M0,-0.1l-1,0l0,-1.1l1,0l0,1.1Z" class="g16_1" />
<path d="M0,-0.1l-1,0l0,-1.1l1,0l0,1.1Z" class="g16_1" />
<path d="M0,-0.1l-1,0l0,-1.1l1,0l0,1.1Z" class="g17_1" />
<path d="M0,-0.1l-1,0l0,-1.1l1,0l0,1.1Z" class="g18_1" />
<path d="M0,-0.1l-1,0l0,-1.1l1,0l0,1.1Z" class="g19_1" />
<path d="M0,-0.1l-1,0l0,-1.1l1,0l0,1.1Z" class="g20_1" />
<path d="M0,-0.1l-1,0l0,-1.1l1,0l0,1.1Z" class="g21_1" />
<path d="M0,-0.1l-1,0l0,-1.1l1,0l0,1.1Z" class="g22_1" />
<path d="M0,-0.1l-1,0l0,-1.1l1,0l0,1.1Z" class="g23_1" />
<path d="M0,-0.1l-1,0l0,-1.1l1,0l0,1.1Z" class="g24_1" />
<path d="M0,-0.1l-1,0l0,-1.1l1,0l0,1.1Z" class="g25_1" />
<path d="M0,-0.1l-1,0l0,-1.1l1,0l0,1.1Z" class="g26_1" />
<path d="M0,-0.1l-1,0l0,-1.1l1,0l0,1.1Z" class="g26_1" />
<path d="M0,-0.1l-1,0l0,-1.1l1,0l0,1.1Z" class="g27_1" />
<path d="M0,-0.1l-1,0l0,-1.1l1,0l0,1.1Z" class="g28_1" />
<path d="M0,-0.1l-1,0l0,-1.1l1,0l0,1.1Z" class="g29_1" />
<path d="M0,-0.1l-1,0l0,-1.1l1,0l0,1.1Z" class="g30_1" />
<path d="M0,-0.1l-1,0l0,-1.1l1,0l0,1.1Z" class="g31_1" />
<path d="M0,-0.1l-1,0l0,-1.1l1,0l0,1.1Z" class="g31_1" />
<path d="M0,-0.1l-1,0l0,-1.1l1,0l0,1.1Z" class="g32_1" />
<path d="M0,-0.1l-1,0l0,-1.1l1,0l0,1.1Z" class="g33_1" />
<path d="M0,-0.1l-1,0l0,-1.1l1,0l0,1.1Z" class="g34_1" />
<path d="M0,-0.1l-1,0l0,-1.1l1,0l0,1.1Z" class="g35_1" />
<path d="M0,-0.1l-1,0l0,-1.1l1,0l0,1.1Z" class="g36_1" />
<path d="M0,-0.1l-1,0l0,-1.1l1,0l0,1.1Z" class="g37_1" />
<path d="M0,-0.1l-1,0l0,-1.1l1,0l0,1.1Z" class="g38_1" />
<path d="M0,-0.1l-1,0l0,-1.1l1,0l0,1.1Z" class="g39_1" />
<path d="M0,-0.1l-1,0l0,-1.1l1,0l0,1.1Z" class="g40_1" />
<path d="M0,-0.1l-1,0l0,-1.1l1,0l0,1.1Z" class="g40_1" />
<path d="M0,-0.1l-1,0l0,-1.1l1,0l0,1.1Z" class="g41_1" />
<path d="M0,-0.1l-1,0l0,-1.1l1,0l0,1.1Z" class="g42_1" />
<path d="M0,-0.1l-1,0l0,-1.1l1,0l0,1.1Z" class="g43_1" />
<path d="M0,-0.1l-1,0l0,-1.1l1,0l0,1.1Z" class="g44_1" />
<path d="M0,-0.1l-1,0l0,-1.1l1,0l0,1.1Z" class="g45_1" />
<path d="M0,-0.1l-1,0l0,-1.1l1,0l0,1.1Z" class="g46_1" />
<path d="M0,-0.1l-1,0l0,-1.1l1,0l0,1.1Z" class="g46_1" />
<path d="M0,-0.1l-1,0l0,-1.1l1,0l0,1.1Z" class="g47_1" />
<path d="M0,-0.1l-1,0l0,-1.1l1,0l0,1.1Z" class="g48_1" />
<path d="M0,-0.1l-1,0l0,-1.1l1,0l0,1.1Z" class="g49_1" />
<path d="M0,-0.1l-1,0l0,-1.1l1,0l0,1.1Z" class="g50_1" />
<path d="M0,-0.1l-1,0l0,-1.1l1,0l0,1.1Z" class="g51_1" />
<path d="M0,-0.1l-1,0l0,-1.1l1,0l0,1.1Z" class="g52_1" />
<path d="M0,-0.1l-1,0l0,-1.1l1,0l0,1.1Z" class="g53_1" />
<path d="M0,-0.1l-1,0l0,-1.1l1,0l0,1.1Z" class="g54_1" />
<path d="M0,-0.1l-1,0l0,-1.1l1,0l0,1.1Z" class="g54_1" />
<path d="M0,-0.1l-1,0l0,-1.1l1,0l0,1.1Z" class="g55_1" />
<path d="M0,-0.1l-1,0l0,-1.1l1,0l0,1.1Z" class="g56_1" />
<path d="M0,-0.1l-1,0l0,-1.1l1,0l0,1.1Z" class="g57_1" />
<path d="M0,-0.1l-1,0l0,-1.1l1,0l0,1.1Z" class="g58_1" />
<path d="M0,-0.1l-1,0l0,-1.1l1,0l0,1.1Z" class="g59_1" />
<path d="M0,-0.1l-1,0l0,-1.1l1,0l0,1.1Z" class="g60_1" />
<path d="M0,-0.1l-1,0l0,-1.1l1,0l0,1.1Z" class="g61_1" />
<path d="M0,-0.1l-1,0l0,-1.1l1,0l0,1.1Z" class="g62_1" />
<path d="M472,197.8l130.6,0l0,75.9l-130.6,0l0,-75.9Z" class="g3_1" />
<text 
x="496" 
y="214" 
dx="0,0.5,0.2,0.2,0.5,1.5,1.4,0.2,-0.4" 
class="s2_1"
>«&lt;&lt;JAR&gt;&gt;»</text>

<text 
x="479" 
y="228" 
dx="0,1.4,1.5,1.5,0.1,0.5,0.5,0.5,0.6,0.9,-0.1,-0.4,-0.1,-0.1" 
class="s1_1"
>AddressWS_rest</text>

<path d="M586.1,208.8c0,-5.5,0,-5.5,4.4,-5.5l2.2,0c4.4,0,4.4,0,4.4,5.5l0,6.6c0,5.5,0,5.5,-4.4,5.5l-2.2,0c-4.4,0,-4.4,0,-4.4,-5.5l0,-6.6Z" class="g2_1" />
<path d="M586.1,208.8c0,-5.5,0,-5.5,4.4,-5.5l2.2,0c4.4,0,4.4,0,4.4,5.5l0,6.6c0,5.5,0,5.5,-4.4,5.5l-2.2,0c-4.4,0,-4.4,0,-4.4,-5.5l0,-6.6" class="g3_1" />
<path d="M582.8,208.8c0,-3.3,0,-3.3,2.2,-3.3l2.2,0c2.2,0,2.2,0,2.2,3.3l0,-2.2c0,3.3,0,3.3,-2.2,3.3l-2.2,0c-2.2,0,-2.2,0,-2.2,-3.3l0,2.2Z" class="g2_1" />
<path d="M582.8,208.8c0,-3.3,0,-3.3,2.2,-3.3l2.2,0c2.2,0,2.2,0,2.2,3.3l0,-2.2c0,3.3,0,3.3,-2.2,3.3l-2.2,0c-2.2,0,-2.2,0,-2.2,-3.3l0,2.2" class="g3_1" />
<path d="M582.8,216.5c0,-3.3,0,-3.3,2.2,-3.3l2.2,0c2.2,0,2.2,0,2.2,3.3l0,-2.2c0,3.3,0,3.3,-2.2,3.3l-2.2,0c-2.2,0,-2.2,0,-2.2,-3.3l0,2.2Z" class="g2_1" />
<path d="M582.8,216.5c0,-3.3,0,-3.3,2.2,-3.3l2.2,0c2.2,0,2.2,0,2.2,3.3l0,-2.2c0,3.3,0,3.3,-2.2,3.3l-2.2,0c-2.2,0,-2.2,0,-2.2,-3.3l0,2.2" class="g3_1" />
<path d="M288.7,206.6c0,-5.5,0,-5.5,5.4,-5.5l119.7,0c5.5,0,5.5,0,5.5,5.5l0,64.9c0,5.5,0,5.5,-5.5,5.5l-119.7,0c-5.4,0,-5.4,0,-5.4,-5.5l0,-64.9Z" class="g1_1" />
<path d="M285.4,203.3c0,-5.5,0,-5.5,5.5,-5.5l119.6,0c5.5,0,5.5,0,5.5,5.5l0,64.9c0,5.5,0,5.5,-5.5,5.5l-119.6,0c-5.5,0,-5.5,0,-5.5,-5.5l0,-64.9Z" class="g2_1" />
<path d="M285.4,203.3c0,-5.5,0,-5.5,5.5,-5.5l119.6,0c5.5,0,5.5,0,5.5,5.5l0,64.9c0,5.5,0,5.5,-5.5,5.5l-119.6,0c-5.5,0,-5.5,0,-5.5,-5.5l0,-64.9" class="g3_1" />
<path d="M285.4,203.3c0,-5.5,0,-5.5,5.5,-5.5l119.6,0c5.5,0,5.5,0,5.5,5.5l0,64.9c0,5.5,0,5.5,-5.5,5.5l-119.6,0c-5.5,0,-5.5,0,-5.5,-5.5l0,-64.9" class="g3_1" />
<path d="M0,-0.1l-1,0l0,-1.1l1,0l0,1.1Z" class="g2_1" />
<path d="M0,-0.1l-1,0l0,-1.1l1,0l0,1.1Z" class="g4_1" />
<path d="M0,-0.1l-1,0l0,-1.1l1,0l0,1.1Z" class="g5_1" />
<path d="M0,-0.1l-1,0l0,-1.1l1,0l0,1.1Z" class="g6_1" />
<path d="M0,-0.1l-1,0l0,-1.1l1,0l0,1.1Z" class="g7_1" />
<path d="M0,-0.1l-1,0l0,-1.1l1,0l0,1.1Z" class="g8_1" />
<path d="M0,-0.1l-1,0l0,-1.1l1,0l0,1.1Z" class="g9_1" />
<path d="M0,-0.1l-1,0l0,-1.1l1,0l0,1.1Z" class="g10_1" />
<path d="M0,-0.1l-1,0l0,-1.1l1,0l0,1.1Z" class="g11_1" />
<path d="M0,-0.1l-1,0l0,-1.1l1,0l0,1.1Z" class="g12_1" />
<path d="M0,-0.1l-1,0l0,-1.1l1,0l0,1.1Z" class="g12_1" />
<path d="M0,-0.1l-1,0l0,-1.1l1,0l0,1.1Z" class="g13_1" />
<path d="M0,-0.1l-1,0l0,-1.1l1,0l0,1.1Z" class="g14_1" />
<path d="M0,-0.1l-1,0l0,-1.1l1,0l0,1.1Z" class="g15_1" />
<path d="M0,-0.1l-1,0l0,-1.1l1,0l0,1.1Z" class="g16_1" />
<path d="M0,-0.1l-1,0l0,-1.1l1,0l0,1.1Z" class="g17_1" />
<path d="M0,-0.1l-1,0l0,-1.1l1,0l0,1.1Z" class="g18_1" />
<path d="M0,-0.1l-1,0l0,-1.1l1,0l0,1.1Z" class="g19_1" />
<path d="M0,-0.1l-1,0l0,-1.1l1,0l0,1.1Z" class="g20_1" />
<path d="M0,-0.1l-1,0l0,-1.1l1,0l0,1.1Z" class="g21_1" />
<path d="M0,-0.1l-1,0l0,-1.1l1,0l0,1.1Z" class="g22_1" />
<path d="M0,-0.1l-1,0l0,-1.1l1,0l0,1.1Z" class="g23_1" />
<path d="M0,-0.1l-1,0l0,-1.1l1,0l0,1.1Z" class="g24_1" />
<path d="M0,-0.1l-1,0l0,-1.1l1,0l0,1.1Z" class="g25_1" />
<path d="M0,-0.1l-1,0l0,-1.1l1,0l0,1.1Z" class="g26_1" />
<path d="M0,-0.1l-1,0l0,-1.1l1,0l0,1.1Z" class="g26_1" />
<path d="M0,-0.1l-1,0l0,-1.1l1,0l0,1.1Z" class="g27_1" />
<path d="M0,-0.1l-1,0l0,-1.1l1,0l0,1.1Z" class="g28_1" />
<path d="M0,-0.1l-1,0l0,-1.1l1,0l0,1.1Z" class="g29_1" />
<path d="M0,-0.1l-1,0l0,-1.1l1,0l0,1.1Z" class="g30_1" />
<path d="M0,-0.1l-1,0l0,-1.1l1,0l0,1.1Z" class="g31_1" />
<path d="M0,-0.1l-1,0l0,-1.1l1,0l0,1.1Z" class="g31_1" />
<path d="M0,-0.1l-1,0l0,-1.1l1,0l0,1.1Z" class="g32_1" />
<path d="M0,-0.1l-1,0l0,-1.1l1,0l0,1.1Z" class="g33_1" />
<path d="M0,-0.1l-1,0l0,-1.1l1,0l0,1.1Z" class="g34_1" />
<path d="M0,-0.1l-1,0l0,-1.1l1,0l0,1.1Z" class="g35_1" />
<path d="M0,-0.1l-1,0l0,-1.1l1,0l0,1.1Z" class="g36_1" />
<path d="M0,-0.1l-1,0l0,-1.1l1,0l0,1.1Z" class="g37_1" />
<path d="M0,-0.1l-1,0l0,-1.1l1,0l0,1.1Z" class="g38_1" />
<path d="M0,-0.1l-1,0l0,-1.1l1,0l0,1.1Z" class="g39_1" />
<path d="M0,-0.1l-1,0l0,-1.1l1,0l0,1.1Z" class="g40_1" />
<path d="M0,-0.1l-1,0l0,-1.1l1,0l0,1.1Z" class="g40_1" />
<path d="M0,-0.1l-1,0l0,-1.1l1,0l0,1.1Z" class="g41_1" />
<path d="M0,-0.1l-1,0l0,-1.1l1,0l0,1.1Z" class="g42_1" />
<path d="M0,-0.1l-1,0l0,-1.1l1,0l0,1.1Z" class="g43_1" />
<path d="M0,-0.1l-1,0l0,-1.1l1,0l0,1.1Z" class="g44_1" />
<path d="M0,-0.1l-1,0l0,-1.1l1,0l0,1.1Z" class="g45_1" />
<path d="M0,-0.1l-1,0l0,-1.1l1,0l0,1.1Z" class="g46_1" />
<path d="M0,-0.1l-1,0l0,-1.1l1,0l0,1.1Z" class="g46_1" />
<path d="M0,-0.1l-1,0l0,-1.1l1,0l0,1.1Z" class="g47_1" />
<path d="M0,-0.1l-1,0l0,-1.1l1,0l0,1.1Z" class="g48_1" />
<path d="M0,-0.1l-1,0l0,-1.1l1,0l0,1.1Z" class="g49_1" />
<path d="M0,-0.1l-1,0l0,-1.1l1,0l0,1.1Z" class="g50_1" />
<path d="M0,-0.1l-1,0l0,-1.1l1,0l0,1.1Z" class="g51_1" />
<path d="M0,-0.1l-1,0l0,-1.1l1,0l0,1.1Z" class="g52_1" />
<path d="M0,-0.1l-1,0l0,-1.1l1,0l0,1.1Z" class="g53_1" />
<path d="M0,-0.1l-1,0l0,-1.1l1,0l0,1.1Z" class="g54_1" />
<path d="M0,-0.1l-1,0l0,-1.1l1,0l0,1.1Z" class="g54_1" />
<path d="M0,-0.1l-1,0l0,-1.1l1,0l0,1.1Z" class="g55_1" />
<path d="M0,-0.1l-1,0l0,-1.1l1,0l0,1.1Z" class="g56_1" />
<path d="M0,-0.1l-1,0l0,-1.1l1,0l0,1.1Z" class="g57_1" />
<path d="M0,-0.1l-1,0l0,-1.1l1,0l0,1.1Z" class="g58_1" />
<path d="M0,-0.1l-1,0l0,-1.1l1,0l0,1.1Z" class="g59_1" />
<path d="M0,-0.1l-1,0l0,-1.1l1,0l0,1.1Z" class="g60_1" />
<path d="M0,-0.1l-1,0l0,-1.1l1,0l0,1.1Z" class="g61_1" />
<path d="M0,-0.1l-1,0l0,-1.1l1,0l0,1.1Z" class="g61_1" />
<path d="M0,-0.1l-1,0l0,-1.1l1,0l0,1.1Z" class="g62_1" />
<path d="M285.4,197.8l130.6,0l0,75.9l-130.6,0l0,-75.9Z" class="g3_1" />
<text 
x="309" 
y="214" 
dx="0,0.5,0.2,0.2,0.5,1.5,1.4,0.2,-0.4" 
class="s2_1"
>«&lt;&lt;JAR&gt;&gt;»</text>

<text 
x="305" 
y="228" 
dx="0,1.4,1,1,-0.4,-0.1,-0.1,-0.1,0.6,0.9" 
class="s1_1"
>AddressWS-</text>

<text 
x="313" 
y="242" 
dx="0,1.5,1.5,0.5,-0.3,1,-0.1,-0.1" 
class="s1_1"
>business</text>

<path d="M399.5,208.8c0,-5.5,0,-5.5,4.4,-5.5l2.2,0c4.4,0,4.4,0,4.4,5.5l0,6.6c0,5.5,0,5.5,-4.4,5.5l-2.2,0c-4.4,0,-4.4,0,-4.4,-5.5l0,-6.6Z" class="g2_1" />
<path d="M399.5,208.8c0,-5.5,0,-5.5,4.4,-5.5l2.2,0c4.4,0,4.4,0,4.4,5.5l0,6.6c0,5.5,0,5.5,-4.4,5.5l-2.2,0c-4.4,0,-4.4,0,-4.4,-5.5l0,-6.6" class="g3_1" />
<path d="M396.2,208.8c0,-3.3,0,-3.3,2.2,-3.3l2.2,0c2.2,0,2.2,0,2.2,3.3l0,-2.2c0,3.3,0,3.3,-2.2,3.3l-2.2,0c-2.2,0,-2.2,0,-2.2,-3.3l0,2.2Z" class="g2_1" />
<path d="M396.2,208.8c0,-3.3,0,-3.3,2.2,-3.3l2.2,0c2.2,0,2.2,0,2.2,3.3l0,-2.2c0,3.3,0,3.3,-2.2,3.3l-2.2,0c-2.2,0,-2.2,0,-2.2,-3.3l0,2.2" class="g3_1" />
<path d="M396.2,216.5c0,-3.3,0,-3.3,2.2,-3.3l2.2,0c2.2,0,2.2,0,2.2,3.3l0,-2.2c0,3.3,0,3.3,-2.2,3.3l-2.2,0c-2.2,0,-2.2,0,-2.2,-3.3l0,2.2Z" class="g2_1" />
<path d="M396.2,216.5c0,-3.3,0,-3.3,2.2,-3.3l2.2,0c2.2,0,2.2,0,2.2,3.3l0,-2.2c0,3.3,0,3.3,-2.2,3.3l-2.2,0c-2.2,0,-2.2,0,-2.2,-3.3l0,2.2" class="g3_1" />
<path d="M91.1,206.6c0,-5.5,0,-5.5,5.5,-5.5l119.6,0c5.5,0,5.5,0,5.5,5.5l0,64.9c0,5.5,0,5.5,-5.5,5.5L96.6,277c-5.5,0,-5.5,0,-5.5,-5.5l0,-64.9Z" class="g1_1" />
<path d="M87.8,203.3c0,-5.5,0,-5.5,5.5,-5.5l119.6,0c5.5,0,5.5,0,5.5,5.5l0,64.9c0,5.5,0,5.5,-5.5,5.5l-119.6,0c-5.5,0,-5.5,0,-5.5,-5.5l0,-64.9Z" class="g2_1" />
<path d="M87.8,203.3c0,-5.5,0,-5.5,5.5,-5.5l119.6,0c5.5,0,5.5,0,5.5,5.5l0,64.9c0,5.5,0,5.5,-5.5,5.5l-119.6,0c-5.5,0,-5.5,0,-5.5,-5.5l0,-64.9" class="g3_1" />
<path d="M87.8,203.3c0,-5.5,0,-5.5,5.5,-5.5l119.6,0c5.5,0,5.5,0,5.5,5.5l0,64.9c0,5.5,0,5.5,-5.5,5.5l-119.6,0c-5.5,0,-5.5,0,-5.5,-5.5l0,-64.9" class="g3_1" />
<path d="M0,-0.1l-1,0l0,-1.1l1,0l0,1.1Z" class="g2_1" />
<path d="M0,-0.1l-1,0l0,-1.1l1,0l0,1.1Z" class="g4_1" />
<path d="M0,-0.1l-1,0l0,-1.1l1,0l0,1.1Z" class="g5_1" />
<path d="M0,-0.1l-1,0l0,-1.1l1,0l0,1.1Z" class="g6_1" />
<path d="M0,-0.1l-1,0l0,-1.1l1,0l0,1.1Z" class="g7_1" />
<path d="M0,-0.1l-1,0l0,-1.1l1,0l0,1.1Z" class="g7_1" />
<path d="M0,-0.1l-1,0l0,-1.1l1,0l0,1.1Z" class="g8_1" />
<path d="M0,-0.1l-1,0l0,-1.1l1,0l0,1.1Z" class="g9_1" />
<path d="M0,-0.1l-1,0l0,-1.1l1,0l0,1.1Z" class="g10_1" />
<path d="M0,-0.1l-1,0l0,-1.1l1,0l0,1.1Z" class="g11_1" />
<path d="M0,-0.1l-1,0l0,-1.1l1,0l0,1.1Z" class="g12_1" />
<path d="M0,-0.1l-1,0l0,-1.1l1,0l0,1.1Z" class="g12_1" />
<path d="M0,-0.1l-1,0l0,-1.1l1,0l0,1.1Z" class="g13_1" />
<path d="M0,-0.1l-1,0l0,-1.1l1,0l0,1.1Z" class="g14_1" />
<path d="M0,-0.1l-1,0l0,-1.1l1,0l0,1.1Z" class="g15_1" />
<path d="M0,-0.1l-1,0l0,-1.1l1,0l0,1.1Z" class="g16_1" />
<path d="M0,-0.1l-1,0l0,-1.1l1,0l0,1.1Z" class="g17_1" />
<path d="M0,-0.1l-1,0l0,-1.1l1,0l0,1.1Z" class="g18_1" />
<path d="M0,-0.1l-1,0l0,-1.1l1,0l0,1.1Z" class="g19_1" />
<path d="M0,-0.1l-1,0l0,-1.1l1,0l0,1.1Z" class="g20_1" />
<path d="M0,-0.1l-1,0l0,-1.1l1,0l0,1.1Z" class="g21_1" />
<path d="M0,-0.1l-1,0l0,-1.1l1,0l0,1.1Z" class="g22_1" />
<path d="M0,-0.1l-1,0l0,-1.1l1,0l0,1.1Z" class="g22_1" />
<path d="M0,-0.1l-1,0l0,-1.1l1,0l0,1.1Z" class="g23_1" />
<path d="M0,-0.1l-1,0l0,-1.1l1,0l0,1.1Z" class="g24_1" />
<path d="M0,-0.1l-1,0l0,-1.1l1,0l0,1.1Z" class="g25_1" />
<path d="M0,-0.1l-1,0l0,-1.1l1,0l0,1.1Z" class="g26_1" />
<path d="M0,-0.1l-1,0l0,-1.1l1,0l0,1.1Z" class="g26_1" />
<path d="M0,-0.1l-1,0l0,-1.1l1,0l0,1.1Z" class="g27_1" />
<path d="M0,-0.1l-1,0l0,-1.1l1,0l0,1.1Z" class="g28_1" />
<path d="M0,-0.1l-1,0l0,-1.1l1,0l0,1.1Z" class="g29_1" />
<path d="M0,-0.1l-1,0l0,-1.1l1,0l0,1.1Z" class="g30_1" />
<path d="M0,-0.1l-1,0l0,-1.1l1,0l0,1.1Z" class="g31_1" />
<path d="M0,-0.1l-1,0l0,-1.1l1,0l0,1.1Z" class="g32_1" />
<path d="M0,-0.1l-1,0l0,-1.1l1,0l0,1.1Z" class="g33_1" />
<path d="M0,-0.1l-1,0l0,-1.1l1,0l0,1.1Z" class="g34_1" />
<path d="M0,-0.1l-1,0l0,-1.1l1,0l0,1.1Z" class="g35_1" />
<path d="M0,-0.1l-1,0l0,-1.1l1,0l0,1.1Z" class="g36_1" />
<path d="M0,-0.1l-1,0l0,-1.1l1,0l0,1.1Z" class="g37_1" />
<path d="M0,-0.1l-1,0l0,-1.1l1,0l0,1.1Z" class="g37_1" />
<path d="M0,-0.1l-1,0l0,-1.1l1,0l0,1.1Z" class="g38_1" />
<path d="M0,-0.1l-1,0l0,-1.1l1,0l0,1.1Z" class="g39_1" />
<path d="M0,-0.1l-1,0l0,-1.1l1,0l0,1.1Z" class="g40_1" />
<path d="M0,-0.1l-1,0l0,-1.1l1,0l0,1.1Z" class="g40_1" />
<path d="M0,-0.1l-1,0l0,-1.1l1,0l0,1.1Z" class="g41_1" />
<path d="M0,-0.1l-1,0l0,-1.1l1,0l0,1.1Z" class="g42_1" />
<path d="M0,-0.1l-1,0l0,-1.1l1,0l0,1.1Z" class="g43_1" />
<path d="M0,-0.1l-1,0l0,-1.1l1,0l0,1.1Z" class="g44_1" />
<path d="M0,-0.1l-1,0l0,-1.1l1,0l0,1.1Z" class="g45_1" />
<path d="M0,-0.1l-1,0l0,-1.1l1,0l0,1.1Z" class="g46_1" />
<path d="M0,-0.1l-1,0l0,-1.1l1,0l0,1.1Z" class="g47_1" />
<path d="M0,-0.1l-1,0l0,-1.1l1,0l0,1.1Z" class="g48_1" />
<path d="M0,-0.1l-1,0l0,-1.1l1,0l0,1.1Z" class="g49_1" />
<path d="M0,-0.1l-1,0l0,-1.1l1,0l0,1.1Z" class="g50_1" />
<path d="M0,-0.1l-1,0l0,-1.1l1,0l0,1.1Z" class="g51_1" />
<path d="M0,-0.1l-1,0l0,-1.1l1,0l0,1.1Z" class="g52_1" />
<path d="M0,-0.1l-1,0l0,-1.1l1,0l0,1.1Z" class="g53_1" />
<path d="M0,-0.1l-1,0l0,-1.1l1,0l0,1.1Z" class="g54_1" />
<path d="M0,-0.1l-1,0l0,-1.1l1,0l0,1.1Z" class="g54_1" />
<path d="M0,-0.1l-1,0l0,-1.1l1,0l0,1.1Z" class="g55_1" />
<path d="M0,-0.1l-1,0l0,-1.1l1,0l0,1.1Z" class="g56_1" />
<path d="M0,-0.1l-1,0l0,-1.1l1,0l0,1.1Z" class="g57_1" />
<path d="M0,-0.1l-1,0l0,-1.1l1,0l0,1.1Z" class="g58_1" />
<path d="M0,-0.1l-1,0l0,-1.1l1,0l0,1.1Z" class="g59_1" />
<path d="M0,-0.1l-1,0l0,-1.1l1,0l0,1.1Z" class="g60_1" />
<path d="M0,-0.1l-1,0l0,-1.1l1,0l0,1.1Z" class="g61_1" />
<path d="M0,-0.1l-1,0l0,-1.1l1,0l0,1.1Z" class="g62_1" />
<path d="M87.8,197.8l130.6,0l0,75.9l-130.6,0l0,-75.9Z" class="g3_1" />
<text 
x="114" 
y="214" 
dx="0,1,0.7,0.2,0.9,0.5,-0.4,0.2,0.2" 
class="s2_1"
>«&lt;&lt;war&gt;&gt;»</text>

<text 
x="107" 
y="228" 
dx="0,1.4,1,1,-0.4,-0.1,-0.1,-0.1,0.6,0.9" 
class="s1_1"
>AddressWS-</text>

<text 
x="111" 
y="242" 
dx="0,0.5,1,1,-0.3,-0.3,0.5,0.5,-0.4,-0.3,1" 
class="s1_1"
>application</text>

<path d="M202,208.8c0,-5.5,0,-5.5,4.3,-5.5l2.2,0c4.4,0,4.4,0,4.4,5.5l0,6.6c0,5.5,0,5.5,-4.4,5.5l-2.2,0c-4.3,0,-4.3,0,-4.3,-5.5l0,-6.6Z" class="g2_1" />
<path d="M202,208.8c0,-5.5,0,-5.5,4.3,-5.5l2.2,0c4.4,0,4.4,0,4.4,5.5l0,6.6c0,5.5,0,5.5,-4.4,5.5l-2.2,0c-4.3,0,-4.3,0,-4.3,-5.5l0,-6.6" class="g3_1" />
<path d="M198.7,208.8c0,-3.3,0,-3.3,2.2,-3.3l2.1,0c2.2,0,2.2,0,2.2,3.3l0,-2.2c0,3.3,0,3.3,-2.2,3.3l-2.1,0c-2.2,0,-2.2,0,-2.2,-3.3l0,2.2Z" class="g2_1" />
<path d="M198.7,208.8c0,-3.3,0,-3.3,2.2,-3.3l2.1,0c2.2,0,2.2,0,2.2,3.3l0,-2.2c0,3.3,0,3.3,-2.2,3.3l-2.1,0c-2.2,0,-2.2,0,-2.2,-3.3l0,2.2" class="g3_1" />
<path d="M198.7,216.5c0,-3.3,0,-3.3,2.2,-3.3l2.1,0c2.2,0,2.2,0,2.2,3.3l0,-2.2c0,3.3,0,3.3,-2.2,3.3l-2.1,0c-2.2,0,-2.2,0,-2.2,-3.3l0,2.2Z" class="g2_1" />
<path d="M198.7,216.5c0,-3.3,0,-3.3,2.2,-3.3l2.1,0c2.2,0,2.2,0,2.2,3.3l0,-2.2c0,3.3,0,3.3,-2.2,3.3l-2.1,0c-2.2,0,-2.2,0,-2.2,-3.3l0,2.2" class="g3_1" />
<path d="M365.5,52.6c0,-5.5,0,-5.5,5.5,-5.5l119.6,0c5.5,0,5.5,0,5.5,5.5l0,45.1c0,5.5,0,5.5,-5.5,5.5l-119.6,0c-5.5,0,-5.5,0,-5.5,-5.5l0,-45.1Z" class="g1_1" />
<path d="M362.2,49.3c0,-5.5,0,-5.5,5.5,-5.5l119.6,0c5.5,0,5.5,0,5.5,5.5l0,45.1c0,5.5,0,5.5,-5.5,5.5l-119.6,0c-5.5,0,-5.5,0,-5.5,-5.5l0,-45.1Z" class="g63_1" />
<path d="M362.2,49.3c0,-5.5,0,-5.5,5.5,-5.5l119.6,0c5.5,0,5.5,0,5.5,5.5l0,45.1c0,5.5,0,5.5,-5.5,5.5l-119.6,0c-5.5,0,-5.5,0,-5.5,-5.5l0,-45.1" class="g3_1" />
<path d="M362.2,49.3c0,-5.5,0,-5.5,5.5,-5.5l119.6,0c5.5,0,5.5,0,5.5,5.5l0,45.1c0,5.5,0,5.5,-5.5,5.5l-119.6,0c-5.5,0,-5.5,0,-5.5,-5.5l0,-45.1" class="g3_1" />
<path d="M0,-0.1l-1,0l0,-1.1l1,0l0,1.1Z" class="g63_1" />
<path d="M0,-0.1l-1,0l0,-1.1l1,0l0,1.1Z" class="g64_1" />
<path d="M0,-0.1l-1,0l0,-1.1l1,0l0,1.1Z" class="g65_1" />
<path d="M0,-0.1l-1,0l0,-1.1l1,0l0,1.1Z" class="g66_1" />
<path d="M0,-0.1l-1,0l0,-1.1l1,0l0,1.1Z" class="g67_1" />
<path d="M0,-0.1l-1,0l0,-1.1l1,0l0,1.1Z" class="g68_1" />
<path d="M0,-0.1l-1,0l0,-1.1l1,0l0,1.1Z" class="g69_1" />
<path d="M0,-0.1l-1,0l0,-1.1l1,0l0,1.1Z" class="g70_1" />
<path d="M0,-0.1l-1,0l0,-1.1l1,0l0,1.1Z" class="g71_1" />
<path d="M0,-0.1l-1,0l0,-1.1l1,0l0,1.1Z" class="g72_1" />
<path d="M0,-0.1l-1,0l0,-1.1l1,0l0,1.1Z" class="g73_1" />
<path d="M0,-0.1l-1,0l0,-1.1l1,0l0,1.1Z" class="g74_1" />
<path d="M0,-0.1l-1,0l0,-1.1l1,0l0,1.1Z" class="g75_1" />
<path d="M0,-0.1l-1,0l0,-1.1l1,0l0,1.1Z" class="g76_1" />
<path d="M0,-0.1l-1,0l0,-1.1l1,0l0,1.1Z" class="g77_1" />
<path d="M0,-0.1l-1,0l0,-1.1l1,0l0,1.1Z" class="g78_1" />
<path d="M0,-0.1l-1,0l0,-1.1l1,0l0,1.1Z" class="g79_1" />
<path d="M0,-0.1l-1,0l0,-1.1l1,0l0,1.1Z" class="g80_1" />
<path d="M0,-0.1l-1,0l0,-1.1l1,0l0,1.1Z" class="g81_1" />
<path d="M0,-0.1l-1,0l0,-1.1l1,0l0,1.1Z" class="g82_1" />
<path d="M0,-0.1l-1,0l0,-1.1l1,0l0,1.1Z" class="g83_1" />
<path d="M0,-0.1l-1,0l0,-1.1l1,0l0,1.1Z" class="g84_1" />
<path d="M0,-0.1l-1,0l0,-1.1l1,0l0,1.1Z" class="g85_1" />
<path d="M0,-0.1l-1,0l0,-1.1l1,0l0,1.1Z" class="g86_1" />
<path d="M0,-0.1l-1,0l0,-1.1l1,0l0,1.1Z" class="g87_1" />
<path d="M0,-0.1l-1,0l0,-1.1l1,0l0,1.1Z" class="g88_1" />
<path d="M0,-0.1l-1,0l0,-1.1l1,0l0,1.1Z" class="g89_1" />
<path d="M0,-0.1l-1,0l0,-1.1l1,0l0,1.1Z" class="g90_1" />
<path d="M0,-0.1l-1,0l0,-1.1l1,0l0,1.1Z" class="g91_1" />
<path d="M0,-0.1l-1,0l0,-1.1l1,0l0,1.1Z" class="g92_1" />
<path d="M0,-0.1l-1,0l0,-1.1l1,0l0,1.1Z" class="g93_1" />
<path d="M0,-0.1l-1,0l0,-1.1l1,0l0,1.1Z" class="g94_1" />
<path d="M0,-0.1l-1,0l0,-1.1l1,0l0,1.1Z" class="g95_1" />
<path d="M0,-0.1l-1,0l0,-1.1l1,0l0,1.1Z" class="g95_1" />
<path d="M0,-0.1l-1,0l0,-1.1l1,0l0,1.1Z" class="g96_1" />
<path d="M0,-0.1l-1,0l0,-1.1l1,0l0,1.1Z" class="g97_1" />
<path d="M0,-0.1l-1,0l0,-1.1l1,0l0,1.1Z" class="g98_1" />
<path d="M0,-0.1l-1,0l0,-1.1l1,0l0,1.1Z" class="g99_1" />
<path d="M0,-0.1l-1,0l0,-1.1l1,0l0,1.1Z" class="g100_1" />
<path d="M0,-0.1l-1,0l0,-1.1l1,0l0,1.1Z" class="g101_1" />
<path d="M0,-0.1l-1,0l0,-1.1l1,0l0,1.1Z" class="g102_1" />
<path d="M0,-0.1l-1,0l0,-1.1l1,0l0,1.1Z" class="g103_1" />
<path d="M0,-0.1l-1,0l0,-1.1l1,0l0,1.1Z" class="g104_1" />
<path d="M0,-0.1l-1,0l0,-1.1l1,0l0,1.1Z" class="g105_1" />
<path d="M0,-0.1l-1,0l0,-1.1l1,0l0,1.1Z" class="g106_1" />
<path d="M0,-0.1l-1,0l0,-1.1l1,0l0,1.1Z" class="g107_1" />
<path d="M0,-0.1l-1,0l0,-1.1l1,0l0,1.1Z" class="g108_1" />
<path d="M0,-0.1l-1,0l0,-1.1l1,0l0,1.1Z" class="g109_1" />
<path d="M0,-0.1l-1,0l0,-1.1l1,0l0,1.1Z" class="g110_1" />
<path d="M0,-0.1l-1,0l0,-1.1l1,0l0,1.1Z" class="g111_1" />
<path d="M0,-0.1l-1,0l0,-1.1l1,0l0,1.1Z" class="g111_1" />
<path d="M0,-0.1l-1,0l0,-1.1l1,0l0,1.1Z" class="g112_1" />
<path d="M0,-0.1l-1,0l0,-1.1l1,0l0,1.1Z" class="g113_1" />
<path d="M0,-0.1l-1,0l0,-1.1l1,0l0,1.1Z" class="g114_1" />
<path d="M0,-0.1l-1,0l0,-1.1l1,0l0,1.1Z" class="g115_1" />
<path d="M0,-0.1l-1,0l0,-1.1l1,0l0,1.1Z" class="g116_1" />
<path d="M0,-0.1l-1,0l0,-1.1l1,0l0,1.1Z" class="g117_1" />
<path d="M0,-0.1l-1,0l0,-1.1l1,0l0,1.1Z" class="g118_1" />
<path d="M0,-0.1l-1,0l0,-1.1l1,0l0,1.1Z" class="g119_1" />
<path d="M0,-0.1l-1,0l0,-1.1l1,0l0,1.1Z" class="g120_1" />
<path d="M0,-0.1l-1,0l0,-1.1l1,0l0,1.1Z" class="g121_1" />
<path d="M0,-0.1l-1,0l0,-1.1l1,0l0,1.1Z" class="g122_1" />
<path d="M0,-0.1l-1,0l0,-1.1l1,0l0,1.1Z" class="g123_1" />
<path d="M0,-0.1l-1,0l0,-1.1l1,0l0,1.1Z" class="g124_1" />
<path d="M0,-0.1l-1,0l0,-1.1l1,0l0,1.1Z" class="g125_1" />
<path d="M0,-0.1l-1,0l0,-1.1l1,0l0,1.1Z" class="g126_1" />
<path d="M362.2,43.8l130.6,0l0,56.1l-130.6,0l0,-56.1Z" class="g3_1" />
<text 
x="386" 
y="60" 
dx="0,0.5,0.2,0.2,0.5,1.5,1.4,0.2,-0.4" 
class="s2_1"
>«&lt;&lt;JAR&gt;&gt;»</text>

<text 
x="368" 
y="74" 
dx="0,0.9,1,-0.4,-0.3,1,1,-0.4,1,1,1,-0.4,0.2,0.5,-0.3,0.5,-0.3" 
class="s1_1"
>Spring-boot 1.4.3</text>

<path d="M476.3,54.8c0,-5.5,0,-5.5,4.4,-5.5l2.2,0c4.4,0,4.4,0,4.4,5.5l0,6.6c0,5.5,0,5.5,-4.4,5.5l-2.2,0c-4.4,0,-4.4,0,-4.4,-5.5l0,-6.6Z" class="g63_1" />
<path d="M476.3,54.8c0,-5.5,0,-5.5,4.4,-5.5l2.2,0c4.4,0,4.4,0,4.4,5.5l0,6.6c0,5.5,0,5.5,-4.4,5.5l-2.2,0c-4.4,0,-4.4,0,-4.4,-5.5l0,-6.6" class="g3_1" />
<path d="M473,54.8c0,-3.3,0,-3.3,2.2,-3.3l2.2,0c2.2,0,2.2,0,2.2,3.3l0,-2.2c0,3.3,0,3.3,-2.2,3.3l-2.2,0c-2.2,0,-2.2,0,-2.2,-3.3l0,2.2Z" class="g63_1" />
<path d="M473,54.8c0,-3.3,0,-3.3,2.2,-3.3l2.2,0c2.2,0,2.2,0,2.2,3.3l0,-2.2c0,3.3,0,3.3,-2.2,3.3l-2.2,0c-2.2,0,-2.2,0,-2.2,-3.3l0,2.2" class="g3_1" />
<path d="M473,62.5c0,-3.3,0,-3.3,2.2,-3.3l2.2,0c2.2,0,2.2,0,2.2,3.3l0,-2.2c0,3.3,0,3.3,-2.2,3.3l-2.2,0c-2.2,0,-2.2,0,-2.2,-3.3l0,2.2Z" class="g63_1" />
<path d="M473,62.5c0,-3.3,0,-3.3,2.2,-3.3l2.2,0c2.2,0,2.2,0,2.2,3.3l0,-2.2c0,3.3,0,3.3,-2.2,3.3l-2.2,0c-2.2,0,-2.2,0,-2.2,-3.3l0,2.2" class="g3_1" />
<path d="M672.8,349.6c0,-5.5,0,-5.5,5.5,-5.5l119.6,0c5.5,0,5.5,0,5.5,5.5l0,64.8c0,5.5,0,5.5,-5.5,5.5l-119.6,0c-5.5,0,-5.5,0,-5.5,-5.5l0,-64.8Z" class="g1_1" />
<path d="M669.5,346.3c0,-5.5,0,-5.5,5.5,-5.5l119.6,0c5.5,0,5.5,0,5.5,5.5l0,64.8c0,5.5,0,5.5,-5.5,5.5l-119.6,0c-5.5,0,-5.5,0,-5.5,-5.5l0,-64.8Z" class="g63_1" />
<path d="M669.5,346.3c0,-5.5,0,-5.5,5.5,-5.5l119.6,0c5.5,0,5.5,0,5.5,5.5l0,64.8c0,5.5,0,5.5,-5.5,5.5l-119.6,0c-5.5,0,-5.5,0,-5.5,-5.5l0,-64.8" class="g3_1" />
<path d="M669.5,346.3c0,-5.5,0,-5.5,5.5,-5.5l119.6,0c5.5,0,5.5,0,5.5,5.5l0,64.8c0,5.5,0,5.5,-5.5,5.5l-119.6,0c-5.5,0,-5.5,0,-5.5,-5.5l0,-64.8" class="g3_1" />
<path d="M0,-0.1l-1,0l0,-1.1l1,0l0,1.1Z" class="g63_1" />
<path d="M0,-0.1l-1,0l0,-1.1l1,0l0,1.1Z" class="g64_1" />
<path d="M0,-0.1l-1,0l0,-1.1l1,0l0,1.1Z" class="g65_1" />
<path d="M0,-0.1l-1,0l0,-1.1l1,0l0,1.1Z" class="g66_1" />
<path d="M0,-0.1l-1,0l0,-1.1l1,0l0,1.1Z" class="g67_1" />
<path d="M0,-0.1l-1,0l0,-1.1l1,0l0,1.1Z" class="g68_1" />
<path d="M0,-0.1l-1,0l0,-1.1l1,0l0,1.1Z" class="g69_1" />
<path d="M0,-0.1l-1,0l0,-1.1l1,0l0,1.1Z" class="g70_1" />
<path d="M0,-0.1l-1,0l0,-1.1l1,0l0,1.1Z" class="g71_1" />
<path d="M0,-0.1l-1,0l0,-1.1l1,0l0,1.1Z" class="g72_1" />
<path d="M0,-0.1l-1,0l0,-1.1l1,0l0,1.1Z" class="g73_1" />
<path d="M0,-0.1l-1,0l0,-1.1l1,0l0,1.1Z" class="g74_1" />
<path d="M0,-0.1l-1,0l0,-1.1l1,0l0,1.1Z" class="g75_1" />
<path d="M0,-0.1l-1,0l0,-1.1l1,0l0,1.1Z" class="g76_1" />
<path d="M0,-0.1l-1,0l0,-1.1l1,0l0,1.1Z" class="g77_1" />
<path d="M0,-0.1l-1,0l0,-1.1l1,0l0,1.1Z" class="g78_1" />
<path d="M0,-0.1l-1,0l0,-1.1l1,0l0,1.1Z" class="g79_1" />
<path d="M0,-0.1l-1,0l0,-1.1l1,0l0,1.1Z" class="g80_1" />
<path d="M0,-0.1l-1,0l0,-1.1l1,0l0,1.1Z" class="g81_1" />
<path d="M0,-0.1l-1,0l0,-1.1l1,0l0,1.1Z" class="g82_1" />
<path d="M0,-0.1l-1,0l0,-1.1l1,0l0,1.1Z" class="g83_1" />
<path d="M0,-0.1l-1,0l0,-1.1l1,0l0,1.1Z" class="g84_1" />
<path d="M0,-0.1l-1,0l0,-1.1l1,0l0,1.1Z" class="g85_1" />
<path d="M0,-0.1l-1,0l0,-1.1l1,0l0,1.1Z" class="g86_1" />
<path d="M0,-0.1l-1,0l0,-1.1l1,0l0,1.1Z" class="g87_1" />
<path d="M0,-0.1l-1,0l0,-1.1l1,0l0,1.1Z" class="g88_1" />
<path d="M0,-0.1l-1,0l0,-1.1l1,0l0,1.1Z" class="g89_1" />
<path d="M0,-0.1l-1,0l0,-1.1l1,0l0,1.1Z" class="g90_1" />
<path d="M0,-0.1l-1,0l0,-1.1l1,0l0,1.1Z" class="g91_1" />
<path d="M0,-0.1l-1,0l0,-1.1l1,0l0,1.1Z" class="g92_1" />
<path d="M0,-0.1l-1,0l0,-1.1l1,0l0,1.1Z" class="g93_1" />
<path d="M0,-0.1l-1,0l0,-1.1l1,0l0,1.1Z" class="g94_1" />
<path d="M0,-0.1l-1,0l0,-1.1l1,0l0,1.1Z" class="g95_1" />
<path d="M0,-0.1l-1,0l0,-1.1l1,0l0,1.1Z" class="g96_1" />
<path d="M0,-0.1l-1,0l0,-1.1l1,0l0,1.1Z" class="g97_1" />
<path d="M0,-0.1l-1,0l0,-1.1l1,0l0,1.1Z" class="g98_1" />
<path d="M0,-0.1l-1,0l0,-1.1l1,0l0,1.1Z" class="g99_1" />
<path d="M0,-0.1l-1,0l0,-1.1l1,0l0,1.1Z" class="g100_1" />
<path d="M0,-0.1l-1,0l0,-1.1l1,0l0,1.1Z" class="g101_1" />
<path d="M0,-0.1l-1,0l0,-1.1l1,0l0,1.1Z" class="g102_1" />
<path d="M0,-0.1l-1,0l0,-1.1l1,0l0,1.1Z" class="g103_1" />
<path d="M0,-0.1l-1,0l0,-1.1l1,0l0,1.1Z" class="g103_1" />
<path d="M0,-0.1l-1,0l0,-1.1l1,0l0,1.1Z" class="g104_1" />
<path d="M0,-0.1l-1,0l0,-1.1l1,0l0,1.1Z" class="g105_1" />
<path d="M0,-0.1l-1,0l0,-1.1l1,0l0,1.1Z" class="g106_1" />
<path d="M0,-0.1l-1,0l0,-1.1l1,0l0,1.1Z" class="g107_1" />
<path d="M0,-0.1l-1,0l0,-1.1l1,0l0,1.1Z" class="g108_1" />
<path d="M0,-0.1l-1,0l0,-1.1l1,0l0,1.1Z" class="g109_1" />
<path d="M0,-0.1l-1,0l0,-1.1l1,0l0,1.1Z" class="g110_1" />
<path d="M0,-0.1l-1,0l0,-1.1l1,0l0,1.1Z" class="g111_1" />
<path d="M0,-0.1l-1,0l0,-1.1l1,0l0,1.1Z" class="g112_1" />
<path d="M0,-0.1l-1,0l0,-1.1l1,0l0,1.1Z" class="g113_1" />
<path d="M0,-0.1l-1,0l0,-1.1l1,0l0,1.1Z" class="g114_1" />
<path d="M0,-0.1l-1,0l0,-1.1l1,0l0,1.1Z" class="g115_1" />
<path d="M0,-0.1l-1,0l0,-1.1l1,0l0,1.1Z" class="g116_1" />
<path d="M0,-0.1l-1,0l0,-1.1l1,0l0,1.1Z" class="g117_1" />
<path d="M0,-0.1l-1,0l0,-1.1l1,0l0,1.1Z" class="g118_1" />
<path d="M0,-0.1l-1,0l0,-1.1l1,0l0,1.1Z" class="g119_1" />
<path d="M0,-0.1l-1,0l0,-1.1l1,0l0,1.1Z" class="g119_1" />
<path d="M0,-0.1l-1,0l0,-1.1l1,0l0,1.1Z" class="g120_1" />
<path d="M0,-0.1l-1,0l0,-1.1l1,0l0,1.1Z" class="g121_1" />
<path d="M0,-0.1l-1,0l0,-1.1l1,0l0,1.1Z" class="g122_1" />
<path d="M0,-0.1l-1,0l0,-1.1l1,0l0,1.1Z" class="g123_1" />
<path d="M0,-0.1l-1,0l0,-1.1l1,0l0,1.1Z" class="g124_1" />
<path d="M0,-0.1l-1,0l0,-1.1l1,0l0,1.1Z" class="g125_1" />
<path d="M0,-0.1l-1,0l0,-1.1l1,0l0,1.1Z" class="g126_1" />
<path d="M669.5,340.8l130.6,0l0,75.8l-130.6,0l0,-75.8Z" class="g3_1" />
<text 
x="670" 
y="360" 
dx="0,0.9,1,-0.4,-0.3,1,1,-0.4,1,1,1,-0.4,-0.4,0.5,-0.4,0.5,-0.4,-0.4,-0.1,-0.4" 
class="s1_1"
>Spring-boot-starter-</text>

<text 
x="699" 
y="374" 
dx="0,1,0.5,-0.4,0.5,-0.4,0.5,0.9" 
class="s1_1"
>data-JPA</text>

<path d="M783.7,351.8c0,-5.5,0,-5.5,4.3,-5.5l2.2,0c4.4,0,4.4,0,4.4,5.5l0,6.6c0,5.5,0,5.5,-4.4,5.5l-2.2,0c-4.3,0,-4.3,0,-4.3,-5.5l0,-6.6Z" class="g63_1" />
<path d="M783.7,351.8c0,-5.5,0,-5.5,4.3,-5.5l2.2,0c4.4,0,4.4,0,4.4,5.5l0,6.6c0,5.5,0,5.5,-4.4,5.5l-2.2,0c-4.3,0,-4.3,0,-4.3,-5.5l0,-6.6" class="g3_1" />
<path d="M780.4,351.8c0,-3.3,0,-3.3,2.2,-3.3l2.2,0c2.2,0,2.2,0,2.2,3.3l0,-2.2c0,3.3,0,3.3,-2.2,3.3l-2.2,0c-2.2,0,-2.2,0,-2.2,-3.3l0,2.2Z" class="g63_1" />
<path d="M780.4,351.8c0,-3.3,0,-3.3,2.2,-3.3l2.2,0c2.2,0,2.2,0,2.2,3.3l0,-2.2c0,3.3,0,3.3,-2.2,3.3l-2.2,0c-2.2,0,-2.2,0,-2.2,-3.3l0,2.2" class="g3_1" />
<path d="M780.4,359.5c0,-3.3,0,-3.3,2.2,-3.3l2.2,0c2.2,0,2.2,0,2.2,3.3l0,-2.2c0,3.3,0,3.3,-2.2,3.3l-2.2,0c-2.2,0,-2.2,0,-2.2,-3.3l0,2.2Z" class="g63_1" />
<path d="M780.4,359.5c0,-3.3,0,-3.3,2.2,-3.3l2.2,0c2.2,0,2.2,0,2.2,3.3l0,-2.2c0,3.3,0,3.3,-2.2,3.3l-2.2,0c-2.2,0,-2.2,0,-2.2,-3.3l0,2.2" class="g3_1" />
<path d="M102.1,349.6c0,-5.5,0,-5.5,5.5,-5.5l97.6,0c5.5,0,5.5,0,5.5,5.5l0,45c0,5.5,0,5.5,-5.5,5.5l-97.6,0c-5.5,0,-5.5,0,-5.5,-5.5l0,-45Z" class="g1_1" />
<path d="M98.8,346.3c0,-5.5,0,-5.5,5.5,-5.5l97.7,0c5.4,0,5.4,0,5.4,5.5l0,45c0,5.5,0,5.5,-5.4,5.5l-97.7,0c-5.5,0,-5.5,0,-5.5,-5.5l0,-45Z" class="g63_1" />
<path d="M98.8,346.3c0,-5.5,0,-5.5,5.5,-5.5l97.7,0c5.4,0,5.4,0,5.4,5.5l0,45c0,5.5,0,5.5,-5.4,5.5l-97.7,0c-5.5,0,-5.5,0,-5.5,-5.5l0,-45" class="g3_1" />
<path d="M98.8,346.3c0,-5.5,0,-5.5,5.5,-5.5l97.7,0c5.4,0,5.4,0,5.4,5.5l0,45c0,5.5,0,5.5,-5.4,5.5l-97.7,0c-5.5,0,-5.5,0,-5.5,-5.5l0,-45" class="g3_1" />
<path d="M0,-0.1l-1,0l0,-1.1l1,0l0,1.1Z" class="g63_1" />
<path d="M0,-0.1l-1,0l0,-1.1l1,0l0,1.1Z" class="g63_1" />
<path d="M0,-0.1l-1,0l0,-1.1l1,0l0,1.1Z" class="g64_1" />
<path d="M0,-0.1l-1,0l0,-1.1l1,0l0,1.1Z" class="g65_1" />
<path d="M0,-0.1l-1,0l0,-1.1l1,0l0,1.1Z" class="g66_1" />
<path d="M0,-0.1l-1,0l0,-1.1l1,0l0,1.1Z" class="g67_1" />
<path d="M0,-0.1l-1,0l0,-1.1l1,0l0,1.1Z" class="g68_1" />
<path d="M0,-0.1l-1,0l0,-1.1l1,0l0,1.1Z" class="g69_1" />
<path d="M0,-0.1l-1,0l0,-1.1l1,0l0,1.1Z" class="g70_1" />
<path d="M0,-0.1l-1,0l0,-1.1l1,0l0,1.1Z" class="g71_1" />
<path d="M0,-0.1l-1,0l0,-1.1l1,0l0,1.1Z" class="g72_1" />
<path d="M0,-0.1l-1,0l0,-1.1l1,0l0,1.1Z" class="g73_1" />
<path d="M0,-0.1l-1,0l0,-1.1l1,0l0,1.1Z" class="g74_1" />
<path d="M0,-0.1l-1,0l0,-1.1l1,0l0,1.1Z" class="g75_1" />
<path d="M0,-0.1l-1,0l0,-1.1l1,0l0,1.1Z" class="g76_1" />
<path d="M0,-0.1l-1,0l0,-1.1l1,0l0,1.1Z" class="g77_1" />
<path d="M0,-0.1l-1,0l0,-1.1l1,0l0,1.1Z" class="g78_1" />
<path d="M0,-0.1l-1,0l0,-1.1l1,0l0,1.1Z" class="g79_1" />
<path d="M0,-0.1l-1,0l0,-1.1l1,0l0,1.1Z" class="g80_1" />
<path d="M0,-0.1l-1,0l0,-1.1l1,0l0,1.1Z" class="g81_1" />
<path d="M0,-0.1l-1,0l0,-1.1l1,0l0,1.1Z" class="g82_1" />
<path d="M0,-0.1l-1,0l0,-1.1l1,0l0,1.1Z" class="g83_1" />
<path d="M0,-0.1l-1,0l0,-1.1l1,0l0,1.1Z" class="g84_1" />
<path d="M0,-0.1l-1,0l0,-1.1l1,0l0,1.1Z" class="g85_1" />
<path d="M0,-0.1l-1,0l0,-1.1l1,0l0,1.1Z" class="g86_1" />
<path d="M0,-0.1l-1,0l0,-1.1l1,0l0,1.1Z" class="g87_1" />
<path d="M0,-0.1l-1,0l0,-1.1l1,0l0,1.1Z" class="g88_1" />
<path d="M0,-0.1l-1,0l0,-1.1l1,0l0,1.1Z" class="g89_1" />
<path d="M0,-0.1l-1,0l0,-1.1l1,0l0,1.1Z" class="g90_1" />
<path d="M0,-0.1l-1,0l0,-1.1l1,0l0,1.1Z" class="g91_1" />
<path d="M0,-0.1l-1,0l0,-1.1l1,0l0,1.1Z" class="g92_1" />
<path d="M0,-0.1l-1,0l0,-1.1l1,0l0,1.1Z" class="g93_1" />
<path d="M0,-0.1l-1,0l0,-1.1l1,0l0,1.1Z" class="g94_1" />
<path d="M0,-0.1l-1,0l0,-1.1l1,0l0,1.1Z" class="g95_1" />
<path d="M0,-0.1l-1,0l0,-1.1l1,0l0,1.1Z" class="g96_1" />
<path d="M0,-0.1l-1,0l0,-1.1l1,0l0,1.1Z" class="g97_1" />
<path d="M0,-0.1l-1,0l0,-1.1l1,0l0,1.1Z" class="g98_1" />
<path d="M0,-0.1l-1,0l0,-1.1l1,0l0,1.1Z" class="g99_1" />
<path d="M0,-0.1l-1,0l0,-1.1l1,0l0,1.1Z" class="g100_1" />
<path d="M0,-0.1l-1,0l0,-1.1l1,0l0,1.1Z" class="g101_1" />
<path d="M0,-0.1l-1,0l0,-1.1l1,0l0,1.1Z" class="g102_1" />
<path d="M0,-0.1l-1,0l0,-1.1l1,0l0,1.1Z" class="g103_1" />
<path d="M0,-0.1l-1,0l0,-1.1l1,0l0,1.1Z" class="g104_1" />
<path d="M0,-0.1l-1,0l0,-1.1l1,0l0,1.1Z" class="g105_1" />
<path d="M0,-0.1l-1,0l0,-1.1l1,0l0,1.1Z" class="g106_1" />
<path d="M0,-0.1l-1,0l0,-1.1l1,0l0,1.1Z" class="g107_1" />
<path d="M0,-0.1l-1,0l0,-1.1l1,0l0,1.1Z" class="g108_1" />
<path d="M0,-0.1l-1,0l0,-1.1l1,0l0,1.1Z" class="g109_1" />
<path d="M0,-0.1l-1,0l0,-1.1l1,0l0,1.1Z" class="g110_1" />
<path d="M0,-0.1l-1,0l0,-1.1l1,0l0,1.1Z" class="g111_1" />
<path d="M0,-0.1l-1,0l0,-1.1l1,0l0,1.1Z" class="g112_1" />
<path d="M0,-0.1l-1,0l0,-1.1l1,0l0,1.1Z" class="g113_1" />
<path d="M0,-0.1l-1,0l0,-1.1l1,0l0,1.1Z" class="g114_1" />
<path d="M0,-0.1l-1,0l0,-1.1l1,0l0,1.1Z" class="g115_1" />
<path d="M0,-0.1l-1,0l0,-1.1l1,0l0,1.1Z" class="g116_1" />
<path d="M0,-0.1l-1,0l0,-1.1l1,0l0,1.1Z" class="g117_1" />
<path d="M0,-0.1l-1,0l0,-1.1l1,0l0,1.1Z" class="g118_1" />
<path d="M0,-0.1l-1,0l0,-1.1l1,0l0,1.1Z" class="g119_1" />
<path d="M0,-0.1l-1,0l0,-1.1l1,0l0,1.1Z" class="g120_1" />
<path d="M0,-0.1l-1,0l0,-1.1l1,0l0,1.1Z" class="g121_1" />
<path d="M0,-0.1l-1,0l0,-1.1l1,0l0,1.1Z" class="g122_1" />
<path d="M0,-0.1l-1,0l0,-1.1l1,0l0,1.1Z" class="g123_1" />
<path d="M0,-0.1l-1,0l0,-1.1l1,0l0,1.1Z" class="g124_1" />
<path d="M0,-0.1l-1,0l0,-1.1l1,0l0,1.1Z" class="g125_1" />
<path d="M0,-0.1l-1,0l0,-1.1l1,0l0,1.1Z" class="g126_1" />
<path d="M98.8,340.8l108.6,0l0,56l-108.6,0l0,-56Z" class="g3_1" />
<text 
x="108" 
y="360" 
dx="0,0.9,1,-0.4,-0.3,0.4,0.4,-0.4,0.4,0.4,0.4,-0.4" 
class="s1_1"
>Spring-boot-</text>

<text 
x="110" 
y="374" 
dx="0,1,0.2,1,0.1,0.2,0.5,-0.4,-0.4,0.8,0.5" 
class="s1_1"
>starter-web</text>

<path d="M191,351.8c0,-5.5,0,-5.5,4.4,-5.5l2.2,0c4.4,0,4.4,0,4.4,5.5l0,6.6c0,5.5,0,5.5,-4.4,5.5l-2.2,0c-4.4,0,-4.4,0,-4.4,-5.5l0,-6.6Z" class="g63_1" />
<path d="M191,351.8c0,-5.5,0,-5.5,4.4,-5.5l2.2,0c4.4,0,4.4,0,4.4,5.5l0,6.6c0,5.5,0,5.5,-4.4,5.5l-2.2,0c-4.4,0,-4.4,0,-4.4,-5.5l0,-6.6" class="g3_1" />
<path d="M187.7,351.8c0,-3.3,0,-3.3,2.2,-3.3l2.2,0c2.2,0,2.2,0,2.2,3.3l0,-2.2c0,3.3,0,3.3,-2.2,3.3l-2.2,0c-2.2,0,-2.2,0,-2.2,-3.3l0,2.2Z" class="g63_1" />
<path d="M187.7,351.8c0,-3.3,0,-3.3,2.2,-3.3l2.2,0c2.2,0,2.2,0,2.2,3.3l0,-2.2c0,3.3,0,3.3,-2.2,3.3l-2.2,0c-2.2,0,-2.2,0,-2.2,-3.3l0,2.2" class="g3_1" />
<path d="M187.7,359.5c0,-3.3,0,-3.3,2.2,-3.3l2.2,0c2.2,0,2.2,0,2.2,3.3l0,-2.2c0,3.3,0,3.3,-2.2,3.3l-2.2,0c-2.2,0,-2.2,0,-2.2,-3.3l0,2.2Z" class="g63_1" />
<path d="M187.7,359.5c0,-3.3,0,-3.3,2.2,-3.3l2.2,0c2.2,0,2.2,0,2.2,3.3l0,-2.2c0,3.3,0,3.3,-2.2,3.3l-2.2,0c-2.2,0,-2.2,0,-2.2,-3.3l0,2.2" class="g3_1" />
<path d="M497.2,349.6c0,-5.5,0,-5.5,5.5,-5.5l97.7,0c5.5,0,5.5,0,5.5,5.5l0,45c0,5.5,0,5.5,-5.5,5.5l-97.7,0c-5.5,0,-5.5,0,-5.5,-5.5l0,-45Z" class="g1_1" />
<path d="M493.9,346.3c0,-5.5,0,-5.5,5.5,-5.5l97.7,0c5.5,0,5.5,0,5.5,5.5l0,45c0,5.5,0,5.5,-5.5,5.5l-97.7,0c-5.5,0,-5.5,0,-5.5,-5.5l0,-45Z" class="g63_1" />
<path d="M493.9,346.3c0,-5.5,0,-5.5,5.5,-5.5l97.7,0c5.5,0,5.5,0,5.5,5.5l0,45c0,5.5,0,5.5,-5.5,5.5l-97.7,0c-5.5,0,-5.5,0,-5.5,-5.5l0,-45" class="g3_1" />
<path d="M493.9,346.3c0,-5.5,0,-5.5,5.5,-5.5l97.7,0c5.5,0,5.5,0,5.5,5.5l0,45c0,5.5,0,5.5,-5.5,5.5l-97.7,0c-5.5,0,-5.5,0,-5.5,-5.5l0,-45" class="g3_1" />
<path d="M0,-0.1l-1,0l0,-1.1l1,0l0,1.1Z" class="g63_1" />
<path d="M0,-0.1l-1,0l0,-1.1l1,0l0,1.1Z" class="g64_1" />
<path d="M0,-0.1l-1,0l0,-1.1l1,0l0,1.1Z" class="g65_1" />
<path d="M0,-0.1l-1,0l0,-1.1l1,0l0,1.1Z" class="g66_1" />
<path d="M0,-0.1l-1,0l0,-1.1l1,0l0,1.1Z" class="g67_1" />
<path d="M0,-0.1l-1,0l0,-1.1l1,0l0,1.1Z" class="g67_1" />
<path d="M0,-0.1l-1,0l0,-1.1l1,0l0,1.1Z" class="g68_1" />
<path d="M0,-0.1l-1,0l0,-1.1l1,0l0,1.1Z" class="g69_1" />
<path d="M0,-0.1l-1,0l0,-1.1l1,0l0,1.1Z" class="g70_1" />
<path d="M0,-0.1l-1,0l0,-1.1l1,0l0,1.1Z" class="g71_1" />
<path d="M0,-0.1l-1,0l0,-1.1l1,0l0,1.1Z" class="g72_1" />
<path d="M0,-0.1l-1,0l0,-1.1l1,0l0,1.1Z" class="g73_1" />
<path d="M0,-0.1l-1,0l0,-1.1l1,0l0,1.1Z" class="g74_1" />
<path d="M0,-0.1l-1,0l0,-1.1l1,0l0,1.1Z" class="g75_1" />
<path d="M0,-0.1l-1,0l0,-1.1l1,0l0,1.1Z" class="g76_1" />
<path d="M0,-0.1l-1,0l0,-1.1l1,0l0,1.1Z" class="g77_1" />
<path d="M0,-0.1l-1,0l0,-1.1l1,0l0,1.1Z" class="g78_1" />
<path d="M0,-0.1l-1,0l0,-1.1l1,0l0,1.1Z" class="g79_1" />
<path d="M0,-0.1l-1,0l0,-1.1l1,0l0,1.1Z" class="g80_1" />
<path d="M0,-0.1l-1,0l0,-1.1l1,0l0,1.1Z" class="g81_1" />
<path d="M0,-0.1l-1,0l0,-1.1l1,0l0,1.1Z" class="g82_1" />
<path d="M0,-0.1l-1,0l0,-1.1l1,0l0,1.1Z" class="g83_1" />
<path d="M0,-0.1l-1,0l0,-1.1l1,0l0,1.1Z" class="g84_1" />
<path d="M0,-0.1l-1,0l0,-1.1l1,0l0,1.1Z" class="g85_1" />
<path d="M0,-0.1l-1,0l0,-1.1l1,0l0,1.1Z" class="g86_1" />
<path d="M0,-0.1l-1,0l0,-1.1l1,0l0,1.1Z" class="g87_1" />
<path d="M0,-0.1l-1,0l0,-1.1l1,0l0,1.1Z" class="g88_1" />
<path d="M0,-0.1l-1,0l0,-1.1l1,0l0,1.1Z" class="g89_1" />
<path d="M0,-0.1l-1,0l0,-1.1l1,0l0,1.1Z" class="g90_1" />
<path d="M0,-0.1l-1,0l0,-1.1l1,0l0,1.1Z" class="g91_1" />
<path d="M0,-0.1l-1,0l0,-1.1l1,0l0,1.1Z" class="g92_1" />
<path d="M0,-0.1l-1,0l0,-1.1l1,0l0,1.1Z" class="g93_1" />
<path d="M0,-0.1l-1,0l0,-1.1l1,0l0,1.1Z" class="g94_1" />
<path d="M0,-0.1l-1,0l0,-1.1l1,0l0,1.1Z" class="g95_1" />
<path d="M0,-0.1l-1,0l0,-1.1l1,0l0,1.1Z" class="g96_1" />
<path d="M0,-0.1l-1,0l0,-1.1l1,0l0,1.1Z" class="g97_1" />
<path d="M0,-0.1l-1,0l0,-1.1l1,0l0,1.1Z" class="g98_1" />
<path d="M0,-0.1l-1,0l0,-1.1l1,0l0,1.1Z" class="g99_1" />
<path d="M0,-0.1l-1,0l0,-1.1l1,0l0,1.1Z" class="g100_1" />
<path d="M0,-0.1l-1,0l0,-1.1l1,0l0,1.1Z" class="g101_1" />
<path d="M0,-0.1l-1,0l0,-1.1l1,0l0,1.1Z" class="g102_1" />
<path d="M0,-0.1l-1,0l0,-1.1l1,0l0,1.1Z" class="g103_1" />
<path d="M0,-0.1l-1,0l0,-1.1l1,0l0,1.1Z" class="g104_1" />
<path d="M0,-0.1l-1,0l0,-1.1l1,0l0,1.1Z" class="g105_1" />
<path d="M0,-0.1l-1,0l0,-1.1l1,0l0,1.1Z" class="g106_1" />
<path d="M0,-0.1l-1,0l0,-1.1l1,0l0,1.1Z" class="g107_1" />
<path d="M0,-0.1l-1,0l0,-1.1l1,0l0,1.1Z" class="g108_1" />
<path d="M0,-0.1l-1,0l0,-1.1l1,0l0,1.1Z" class="g109_1" />
<path d="M0,-0.1l-1,0l0,-1.1l1,0l0,1.1Z" class="g110_1" />
<path d="M0,-0.1l-1,0l0,-1.1l1,0l0,1.1Z" class="g111_1" />
<path d="M0,-0.1l-1,0l0,-1.1l1,0l0,1.1Z" class="g112_1" />
<path d="M0,-0.1l-1,0l0,-1.1l1,0l0,1.1Z" class="g113_1" />
<path d="M0,-0.1l-1,0l0,-1.1l1,0l0,1.1Z" class="g114_1" />
<path d="M0,-0.1l-1,0l0,-1.1l1,0l0,1.1Z" class="g115_1" />
<path d="M0,-0.1l-1,0l0,-1.1l1,0l0,1.1Z" class="g116_1" />
<path d="M0,-0.1l-1,0l0,-1.1l1,0l0,1.1Z" class="g117_1" />
<path d="M0,-0.1l-1,0l0,-1.1l1,0l0,1.1Z" class="g118_1" />
<path d="M0,-0.1l-1,0l0,-1.1l1,0l0,1.1Z" class="g119_1" />
<path d="M0,-0.1l-1,0l0,-1.1l1,0l0,1.1Z" class="g120_1" />
<path d="M0,-0.1l-1,0l0,-1.1l1,0l0,1.1Z" class="g121_1" />
<path d="M0,-0.1l-1,0l0,-1.1l1,0l0,1.1Z" class="g122_1" />
<path d="M0,-0.1l-1,0l0,-1.1l1,0l0,1.1Z" class="g123_1" />
<path d="M0,-0.1l-1,0l0,-1.1l1,0l0,1.1Z" class="g124_1" />
<path d="M0,-0.1l-1,0l0,-1.1l1,0l0,1.1Z" class="g125_1" />
<path d="M0,-0.1l-1,0l0,-1.1l1,0l0,1.1Z" class="g126_1" />
<path d="M493.9,340.8l108.7,0l0,56l-108.7,0l0,-56Z" class="g3_1" />
<text 
x="504" 
y="360" 
dx="0,0.5,0.4,-0.4,-0.3,0.4,0.4,-0.4,0.4,0.4,0.4,-0.4" 
class="s1_1"
>spring-boot-</text>

<text 
x="503" 
y="374" 
dx="0,1,0.2,1,0.1,0.2,1,0.1,-0.4,0.8,0.5,1" 
class="s1_1"
>starter-web-</text>

<text 
x="512" 
y="389" 
dx="0,1,1,0.1,1,0.2,1,1" 
class="s1_1"
>services</text>

<path d="M586.1,351.8c0,-5.5,0,-5.5,4.4,-5.5l2.2,0c4.4,0,4.4,0,4.4,5.5l0,6.6c0,5.5,0,5.5,-4.4,5.5l-2.2,0c-4.4,0,-4.4,0,-4.4,-5.5l0,-6.6Z" class="g63_1" />
<path d="M586.1,351.8c0,-5.5,0,-5.5,4.4,-5.5l2.2,0c4.4,0,4.4,0,4.4,5.5l0,6.6c0,5.5,0,5.5,-4.4,5.5l-2.2,0c-4.4,0,-4.4,0,-4.4,-5.5l0,-6.6" class="g3_1" />
<path d="M582.8,351.8c0,-3.3,0,-3.3,2.2,-3.3l2.2,0c2.2,0,2.2,0,2.2,3.3l0,-2.2c0,3.3,0,3.3,-2.2,3.3l-2.2,0c-2.2,0,-2.2,0,-2.2,-3.3l0,2.2Z" class="g63_1" />
<path d="M582.8,351.8c0,-3.3,0,-3.3,2.2,-3.3l2.2,0c2.2,0,2.2,0,2.2,3.3l0,-2.2c0,3.3,0,3.3,-2.2,3.3l-2.2,0c-2.2,0,-2.2,0,-2.2,-3.3l0,2.2" class="g3_1" />
<path d="M582.8,359.5c0,-3.3,0,-3.3,2.2,-3.3l2.2,0c2.2,0,2.2,0,2.2,3.3l0,-2.2c0,3.3,0,3.3,-2.2,3.3l-2.2,0c-2.2,0,-2.2,0,-2.2,-3.3l0,2.2Z" class="g63_1" />
<path d="M582.8,359.5c0,-3.3,0,-3.3,2.2,-3.3l2.2,0c2.2,0,2.2,0,2.2,3.3l0,-2.2c0,3.3,0,3.3,-2.2,3.3l-2.2,0c-2.2,0,-2.2,0,-2.2,-3.3l0,2.2" class="g3_1" />
<path d="M91.1,85.6c0,-5.5,0,-5.5,5.5,-5.5l119.6,0c5.5,0,5.5,0,5.5,5.5l0,64.9c0,5.5,0,5.5,-5.5,5.5L96.6,156c-5.5,0,-5.5,0,-5.5,-5.5l0,-64.9Z" class="g1_1" />
<path d="M87.8,82.3c0,-5.5,0,-5.5,5.5,-5.5l119.6,0c5.5,0,5.5,0,5.5,5.5l0,64.9c0,5.5,0,5.5,-5.5,5.5l-119.6,0c-5.5,0,-5.5,0,-5.5,-5.5l0,-64.9Z" class="g127_1" />
<path d="M87.8,82.3c0,-5.5,0,-5.5,5.5,-5.5l119.6,0c5.5,0,5.5,0,5.5,5.5l0,64.9c0,5.5,0,5.5,-5.5,5.5l-119.6,0c-5.5,0,-5.5,0,-5.5,-5.5l0,-64.9" class="g3_1" />
<path d="M87.8,82.3c0,-5.5,0,-5.5,5.5,-5.5l119.6,0c5.5,0,5.5,0,5.5,5.5l0,64.9c0,5.5,0,5.5,-5.5,5.5l-119.6,0c-5.5,0,-5.5,0,-5.5,-5.5l0,-64.9" class="g3_1" />
<path d="M0,-0.1l-1,0l0,-1.1l1,0l0,1.1Z" class="g127_1" />
<path d="M0,-0.1l-1,0l0,-1.1l1,0l0,1.1Z" class="g128_1" />
<path d="M0,-0.1l-1,0l0,-1.1l1,0l0,1.1Z" class="g129_1" />
<path d="M0,-0.1l-1,0l0,-1.1l1,0l0,1.1Z" class="g130_1" />
<path d="M0,-0.1l-1,0l0,-1.1l1,0l0,1.1Z" class="g131_1" />
<path d="M0,-0.1l-1,0l0,-1.1l1,0l0,1.1Z" class="g131_1" />
<path d="M0,-0.1l-1,0l0,-1.1l1,0l0,1.1Z" class="g132_1" />
<path d="M0,-0.1l-1,0l0,-1.1l1,0l0,1.1Z" class="g133_1" />
<path d="M0,-0.1l-1,0l0,-1.1l1,0l0,1.1Z" class="g134_1" />
<path d="M0,-0.1l-1,0l0,-1.1l1,0l0,1.1Z" class="g135_1" />
<path d="M0,-0.1l-1,0l0,-1.1l1,0l0,1.1Z" class="g136_1" />
<path d="M0,-0.1l-1,0l0,-1.1l1,0l0,1.1Z" class="g137_1" />
<path d="M0,-0.1l-1,0l0,-1.1l1,0l0,1.1Z" class="g138_1" />
<path d="M0,-0.1l-1,0l0,-1.1l1,0l0,1.1Z" class="g139_1" />
<path d="M0,-0.1l-1,0l0,-1.1l1,0l0,1.1Z" class="g140_1" />
<path d="M0,-0.1l-1,0l0,-1.1l1,0l0,1.1Z" class="g141_1" />
<path d="M0,-0.1l-1,0l0,-1.1l1,0l0,1.1Z" class="g142_1" />
<path d="M0,-0.1l-1,0l0,-1.1l1,0l0,1.1Z" class="g143_1" />
<path d="M0,-0.1l-1,0l0,-1.1l1,0l0,1.1Z" class="g144_1" />
<path d="M0,-0.1l-1,0l0,-1.1l1,0l0,1.1Z" class="g145_1" />
<path d="M0,-0.1l-1,0l0,-1.1l1,0l0,1.1Z" class="g146_1" />
<path d="M0,-0.1l-1,0l0,-1.1l1,0l0,1.1Z" class="g146_1" />
<path d="M0,-0.1l-1,0l0,-1.1l1,0l0,1.1Z" class="g146_1" />
<path d="M0,-0.1l-1,0l0,-1.1l1,0l0,1.1Z" class="g147_1" />
<path d="M0,-0.1l-1,0l0,-1.1l1,0l0,1.1Z" class="g148_1" />
<path d="M0,-0.1l-1,0l0,-1.1l1,0l0,1.1Z" class="g149_1" />
<path d="M0,-0.1l-1,0l0,-1.1l1,0l0,1.1Z" class="g150_1" />
<path d="M0,-0.1l-1,0l0,-1.1l1,0l0,1.1Z" class="g151_1" />
<path d="M0,-0.1l-1,0l0,-1.1l1,0l0,1.1Z" class="g152_1" />
<path d="M0,-0.1l-1,0l0,-1.1l1,0l0,1.1Z" class="g153_1" />
<path d="M0,-0.1l-1,0l0,-1.1l1,0l0,1.1Z" class="g154_1" />
<path d="M0,-0.1l-1,0l0,-1.1l1,0l0,1.1Z" class="g155_1" />
<path d="M0,-0.1l-1,0l0,-1.1l1,0l0,1.1Z" class="g156_1" />
<path d="M0,-0.1l-1,0l0,-1.1l1,0l0,1.1Z" class="g157_1" />
<path d="M0,-0.1l-1,0l0,-1.1l1,0l0,1.1Z" class="g158_1" />
<path d="M0,-0.1l-1,0l0,-1.1l1,0l0,1.1Z" class="g159_1" />
<path d="M0,-0.1l-1,0l0,-1.1l1,0l0,1.1Z" class="g160_1" />
<path d="M0,-0.1l-1,0l0,-1.1l1,0l0,1.1Z" class="g161_1" />
<path d="M0,-0.1l-1,0l0,-1.1l1,0l0,1.1Z" class="g162_1" />
<path d="M0,-0.1l-1,0l0,-1.1l1,0l0,1.1Z" class="g162_1" />
<path d="M0,-0.1l-1,0l0,-1.1l1,0l0,1.1Z" class="g163_1" />
<path d="M0,-0.1l-1,0l0,-1.1l1,0l0,1.1Z" class="g164_1" />
<path d="M0,-0.1l-1,0l0,-1.1l1,0l0,1.1Z" class="g165_1" />
<path d="M0,-0.1l-1,0l0,-1.1l1,0l0,1.1Z" class="g166_1" />
<path d="M0,-0.1l-1,0l0,-1.1l1,0l0,1.1Z" class="g167_1" />
<path d="M0,-0.1l-1,0l0,-1.1l1,0l0,1.1Z" class="g168_1" />
<path d="M0,-0.1l-1,0l0,-1.1l1,0l0,1.1Z" class="g169_1" />
<path d="M0,-0.1l-1,0l0,-1.1l1,0l0,1.1Z" class="g170_1" />
<path d="M0,-0.1l-1,0l0,-1.1l1,0l0,1.1Z" class="g170_1" />
<path d="M0,-0.1l-1,0l0,-1.1l1,0l0,1.1Z" class="g171_1" />
<path d="M0,-0.1l-1,0l0,-1.1l1,0l0,1.1Z" class="g172_1" />
<path d="M0,-0.1l-1,0l0,-1.1l1,0l0,1.1Z" class="g173_1" />
<path d="M0,-0.1l-1,0l0,-1.1l1,0l0,1.1Z" class="g174_1" />
<path d="M0,-0.1l-1,0l0,-1.1l1,0l0,1.1Z" class="g175_1" />
<path d="M0,-0.1l-1,0l0,-1.1l1,0l0,1.1Z" class="g176_1" />
<path d="M0,-0.1l-1,0l0,-1.1l1,0l0,1.1Z" class="g177_1" />
<path d="M0,-0.1l-1,0l0,-1.1l1,0l0,1.1Z" class="g178_1" />
<path d="M0,-0.1l-1,0l0,-1.1l1,0l0,1.1Z" class="g179_1" />
<path d="M0,-0.1l-1,0l0,-1.1l1,0l0,1.1Z" class="g180_1" />
<path d="M0,-0.1l-1,0l0,-1.1l1,0l0,1.1Z" class="g181_1" />
<path d="M0,-0.1l-1,0l0,-1.1l1,0l0,1.1Z" class="g182_1" />
<path d="M0,-0.1l-1,0l0,-1.1l1,0l0,1.1Z" class="g183_1" />
<path d="M0,-0.1l-1,0l0,-1.1l1,0l0,1.1Z" class="g184_1" />
<path d="M0,-0.1l-1,0l0,-1.1l1,0l0,1.1Z" class="g185_1" />
<path d="M0,-0.1l-1,0l0,-1.1l1,0l0,1.1Z" class="g186_1" />
<path d="M0,-0.1l-1,0l0,-1.1l1,0l0,1.1Z" class="g187_1" />
<path d="M0,-0.1l-1,0l0,-1.1l1,0l0,1.1Z" class="g188_1" />
<path d="M87.8,76.8l130.6,0l0,75.9l-130.6,0l0,-75.9Z" class="g3_1" />
<text 
x="121" 
y="96" 
dx="0,0.5,1.3,1.5,-0.1,-0.4" 
class="s1_1"
>JQuery</text>

<path d="M202,87.8c0,-5.5,0,-5.5,4.3,-5.5l2.2,0c4.4,0,4.4,0,4.4,5.5l0,6.6c0,5.5,0,5.5,-4.4,5.5l-2.2,0c-4.3,0,-4.3,0,-4.3,-5.5l0,-6.6Z" class="g127_1" />
<path d="M202,87.8c0,-5.5,0,-5.5,4.3,-5.5l2.2,0c4.4,0,4.4,0,4.4,5.5l0,6.6c0,5.5,0,5.5,-4.4,5.5l-2.2,0c-4.3,0,-4.3,0,-4.3,-5.5l0,-6.6" class="g3_1" />
<path d="M198.7,87.8c0,-3.3,0,-3.3,2.2,-3.3l2.1,0c2.2,0,2.2,0,2.2,3.3l0,-2.2c0,3.3,0,3.3,-2.2,3.3l-2.1,0c-2.2,0,-2.2,0,-2.2,-3.3l0,2.2Z" class="g127_1" />
<path d="M198.7,87.8c0,-3.3,0,-3.3,2.2,-3.3l2.1,0c2.2,0,2.2,0,2.2,3.3l0,-2.2c0,3.3,0,3.3,-2.2,3.3l-2.1,0c-2.2,0,-2.2,0,-2.2,-3.3l0,2.2" class="g3_1" />
<path d="M198.7,95.5c0,-3.3,0,-3.3,2.2,-3.3l2.1,0c2.2,0,2.2,0,2.2,3.3l0,-2.2c0,3.3,0,3.3,-2.2,3.3l-2.1,0c-2.2,0,-2.2,0,-2.2,-3.3l0,2.2Z" class="g127_1" />
<path d="M198.7,95.5c0,-3.3,0,-3.3,2.2,-3.3l2.1,0c2.2,0,2.2,0,2.2,3.3l0,-2.2c0,3.3,0,3.3,-2.2,3.3l-2.1,0c-2.2,0,-2.2,0,-2.2,-3.3l0,2.2" class="g3_1" />
<path d="M672.8,41.6c0,-5.5,0,-5.5,5.5,-5.5l119.6,0c5.5,0,5.5,0,5.5,5.5l0,64.9c0,5.5,0,5.5,-5.5,5.5l-119.6,0c-5.5,0,-5.5,0,-5.5,-5.5l0,-64.9Z" class="g1_1" />
<path d="M669.5,38.3c0,-5.5,0,-5.5,5.5,-5.5l119.6,0c5.5,0,5.5,0,5.5,5.5l0,64.9c0,5.5,0,5.5,-5.5,5.5l-119.6,0c-5.5,0,-5.5,0,-5.5,-5.5l0,-64.9Z" class="g2_1" />
<path d="M669.5,38.3c0,-5.5,0,-5.5,5.5,-5.5l119.6,0c5.5,0,5.5,0,5.5,5.5l0,64.9c0,5.5,0,5.5,-5.5,5.5l-119.6,0c-5.5,0,-5.5,0,-5.5,-5.5l0,-64.9" class="g3_1" />
<path d="M669.5,38.3c0,-5.5,0,-5.5,5.5,-5.5l119.6,0c5.5,0,5.5,0,5.5,5.5l0,64.9c0,5.5,0,5.5,-5.5,5.5l-119.6,0c-5.5,0,-5.5,0,-5.5,-5.5l0,-64.9" class="g3_1" />
<path d="M0,-0.1l-1,0l0,-1.1l1,0l0,1.1Z" class="g2_1" />
<path d="M0,-0.1l-1,0l0,-1.1l1,0l0,1.1Z" class="g4_1" />
<path d="M0,-0.1l-1,0l0,-1.1l1,0l0,1.1Z" class="g5_1" />
<path d="M0,-0.1l-1,0l0,-1.1l1,0l0,1.1Z" class="g6_1" />
<path d="M0,-0.1l-1,0l0,-1.1l1,0l0,1.1Z" class="g7_1" />
<path d="M0,-0.1l-1,0l0,-1.1l1,0l0,1.1Z" class="g8_1" />
<path d="M0,-0.1l-1,0l0,-1.1l1,0l0,1.1Z" class="g9_1" />
<path d="M0,-0.1l-1,0l0,-1.1l1,0l0,1.1Z" class="g10_1" />
<path d="M0,-0.1l-1,0l0,-1.1l1,0l0,1.1Z" class="g11_1" />
<path d="M0,-0.1l-1,0l0,-1.1l1,0l0,1.1Z" class="g12_1" />
<path d="M0,-0.1l-1,0l0,-1.1l1,0l0,1.1Z" class="g12_1" />
<path d="M0,-0.1l-1,0l0,-1.1l1,0l0,1.1Z" class="g13_1" />
<path d="M0,-0.1l-1,0l0,-1.1l1,0l0,1.1Z" class="g14_1" />
<path d="M0,-0.1l-1,0l0,-1.1l1,0l0,1.1Z" class="g15_1" />
<path d="M0,-0.1l-1,0l0,-1.1l1,0l0,1.1Z" class="g16_1" />
<path d="M0,-0.1l-1,0l0,-1.1l1,0l0,1.1Z" class="g17_1" />
<path d="M0,-0.1l-1,0l0,-1.1l1,0l0,1.1Z" class="g18_1" />
<path d="M0,-0.1l-1,0l0,-1.1l1,0l0,1.1Z" class="g19_1" />
<path d="M0,-0.1l-1,0l0,-1.1l1,0l0,1.1Z" class="g20_1" />
<path d="M0,-0.1l-1,0l0,-1.1l1,0l0,1.1Z" class="g21_1" />
<path d="M0,-0.1l-1,0l0,-1.1l1,0l0,1.1Z" class="g22_1" />
<path d="M0,-0.1l-1,0l0,-1.1l1,0l0,1.1Z" class="g23_1" />
<path d="M0,-0.1l-1,0l0,-1.1l1,0l0,1.1Z" class="g24_1" />
<path d="M0,-0.1l-1,0l0,-1.1l1,0l0,1.1Z" class="g25_1" />
<path d="M0,-0.1l-1,0l0,-1.1l1,0l0,1.1Z" class="g26_1" />
<path d="M0,-0.1l-1,0l0,-1.1l1,0l0,1.1Z" class="g26_1" />
<path d="M0,-0.1l-1,0l0,-1.1l1,0l0,1.1Z" class="g27_1" />
<path d="M0,-0.1l-1,0l0,-1.1l1,0l0,1.1Z" class="g28_1" />
<path d="M0,-0.1l-1,0l0,-1.1l1,0l0,1.1Z" class="g29_1" />
<path d="M0,-0.1l-1,0l0,-1.1l1,0l0,1.1Z" class="g30_1" />
<path d="M0,-0.1l-1,0l0,-1.1l1,0l0,1.1Z" class="g31_1" />
<path d="M0,-0.1l-1,0l0,-1.1l1,0l0,1.1Z" class="g32_1" />
<path d="M0,-0.1l-1,0l0,-1.1l1,0l0,1.1Z" class="g33_1" />
<path d="M0,-0.1l-1,0l0,-1.1l1,0l0,1.1Z" class="g34_1" />
<path d="M0,-0.1l-1,0l0,-1.1l1,0l0,1.1Z" class="g35_1" />
<path d="M0,-0.1l-1,0l0,-1.1l1,0l0,1.1Z" class="g36_1" />
<path d="M0,-0.1l-1,0l0,-1.1l1,0l0,1.1Z" class="g37_1" />
<path d="M0,-0.1l-1,0l0,-1.1l1,0l0,1.1Z" class="g38_1" />
<path d="M0,-0.1l-1,0l0,-1.1l1,0l0,1.1Z" class="g39_1" />
<path d="M0,-0.1l-1,0l0,-1.1l1,0l0,1.1Z" class="g40_1" />
<path d="M0,-0.1l-1,0l0,-1.1l1,0l0,1.1Z" class="g40_1" />
<path d="M0,-0.1l-1,0l0,-1.1l1,0l0,1.1Z" class="g40_1" />
<path d="M0,-0.1l-1,0l0,-1.1l1,0l0,1.1Z" class="g41_1" />
<path d="M0,-0.1l-1,0l0,-1.1l1,0l0,1.1Z" class="g42_1" />
<path d="M0,-0.1l-1,0l0,-1.1l1,0l0,1.1Z" class="g43_1" />
<path d="M0,-0.1l-1,0l0,-1.1l1,0l0,1.1Z" class="g44_1" />
<path d="M0,-0.1l-1,0l0,-1.1l1,0l0,1.1Z" class="g45_1" />
<path d="M0,-0.1l-1,0l0,-1.1l1,0l0,1.1Z" class="g46_1" />
<path d="M0,-0.1l-1,0l0,-1.1l1,0l0,1.1Z" class="g47_1" />
<path d="M0,-0.1l-1,0l0,-1.1l1,0l0,1.1Z" class="g48_1" />
<path d="M0,-0.1l-1,0l0,-1.1l1,0l0,1.1Z" class="g49_1" />
<path d="M0,-0.1l-1,0l0,-1.1l1,0l0,1.1Z" class="g50_1" />
<path d="M0,-0.1l-1,0l0,-1.1l1,0l0,1.1Z" class="g51_1" />
<path d="M0,-0.1l-1,0l0,-1.1l1,0l0,1.1Z" class="g52_1" />
<path d="M0,-0.1l-1,0l0,-1.1l1,0l0,1.1Z" class="g53_1" />
<path d="M0,-0.1l-1,0l0,-1.1l1,0l0,1.1Z" class="g54_1" />
<path d="M0,-0.1l-1,0l0,-1.1l1,0l0,1.1Z" class="g54_1" />
<path d="M0,-0.1l-1,0l0,-1.1l1,0l0,1.1Z" class="g55_1" />
<path d="M0,-0.1l-1,0l0,-1.1l1,0l0,1.1Z" class="g55_1" />
<path d="M0,-0.1l-1,0l0,-1.1l1,0l0,1.1Z" class="g56_1" />
<path d="M0,-0.1l-1,0l0,-1.1l1,0l0,1.1Z" class="g57_1" />
<path d="M0,-0.1l-1,0l0,-1.1l1,0l0,1.1Z" class="g58_1" />
<path d="M0,-0.1l-1,0l0,-1.1l1,0l0,1.1Z" class="g59_1" />
<path d="M0,-0.1l-1,0l0,-1.1l1,0l0,1.1Z" class="g60_1" />
<path d="M0,-0.1l-1,0l0,-1.1l1,0l0,1.1Z" class="g61_1" />
<path d="M0,-0.1l-1,0l0,-1.1l1,0l0,1.1Z" class="g62_1" />
<path d="M669.5,32.8l130.6,0l0,75.9l-130.6,0l0,-75.9Z" class="g3_1" />
<text 
x="692" 
y="49" 
dx="0,1,0.7,0.7,1,0,0.5,0,0.2,0.2" 
class="s2_1"
>«&lt;&lt;exec&gt;&gt;»</text>

<text 
x="676" 
y="63" 
dx="0,1.5,1,0.5,-0.4,1,-0.4,0.5,0.5,0.9,0.8,1,0.2,0.5,-0.3" 
class="s1_1"
>PostgresSQL 9.0</text>

<path d="M783.7,43.8c0,-5.5,0,-5.5,4.3,-5.5l2.2,0c4.4,0,4.4,0,4.4,5.5l0,6.6c0,5.5,0,5.5,-4.4,5.5l-2.2,0c-4.3,0,-4.3,0,-4.3,-5.5l0,-6.6Z" class="g2_1" />
<path d="M783.7,43.8c0,-5.5,0,-5.5,4.3,-5.5l2.2,0c4.4,0,4.4,0,4.4,5.5l0,6.6c0,5.5,0,5.5,-4.4,5.5l-2.2,0c-4.3,0,-4.3,0,-4.3,-5.5l0,-6.6" class="g3_1" />
<path d="M780.4,43.8c0,-3.3,0,-3.3,2.2,-3.3l2.2,0c2.2,0,2.2,0,2.2,3.3l0,-2.2c0,3.3,0,3.3,-2.2,3.3l-2.2,0c-2.2,0,-2.2,0,-2.2,-3.3l0,2.2Z" class="g2_1" />
<path d="M780.4,43.8c0,-3.3,0,-3.3,2.2,-3.3l2.2,0c2.2,0,2.2,0,2.2,3.3l0,-2.2c0,3.3,0,3.3,-2.2,3.3l-2.2,0c-2.2,0,-2.2,0,-2.2,-3.3l0,2.2" class="g3_1" />
<path d="M780.4,51.5c0,-3.3,0,-3.3,2.2,-3.3l2.2,0c2.2,0,2.2,0,2.2,3.3l0,-2.2c0,3.3,0,3.3,-2.2,3.3l-2.2,0c-2.2,0,-2.2,0,-2.2,-3.3l0,2.2Z" class="g2_1" />
<path d="M780.4,51.5c0,-3.3,0,-3.3,2.2,-3.3l2.2,0c2.2,0,2.2,0,2.2,3.3l0,-2.2c0,3.3,0,3.3,-2.2,3.3l-2.2,0c-2.2,0,-2.2,0,-2.2,-3.3l0,2.2" class="g3_1" />
<path d="M299.6,349.6c0,-5.5,0,-5.5,5.5,-5.5l97.7,0c5.5,0,5.5,0,5.5,5.5l0,45c0,5.5,0,5.5,-5.5,5.5l-97.7,0c-5.5,0,-5.5,0,-5.5,-5.5l0,-45Z" class="g1_1" />
<path d="M296.3,346.3c0,-5.5,0,-5.5,5.5,-5.5l97.7,0c5.5,0,5.5,0,5.5,5.5l0,45c0,5.5,0,5.5,-5.5,5.5l-97.7,0c-5.5,0,-5.5,0,-5.5,-5.5l0,-45Z" class="g2_1" />
<path d="M296.3,346.3c0,-5.5,0,-5.5,5.5,-5.5l97.7,0c5.5,0,5.5,0,5.5,5.5l0,45c0,5.5,0,5.5,-5.5,5.5l-97.7,0c-5.5,0,-5.5,0,-5.5,-5.5l0,-45" class="g3_1" />
<path d="M296.3,346.3c0,-5.5,0,-5.5,5.5,-5.5l97.7,0c5.5,0,5.5,0,5.5,5.5l0,45c0,5.5,0,5.5,-5.5,5.5l-97.7,0c-5.5,0,-5.5,0,-5.5,-5.5l0,-45" class="g3_1" />
<path d="M0,-0.1l-1,0l0,-1.1l1,0l0,1.1Z" class="g2_1" />
<path d="M0,-0.1l-1,0l0,-1.1l1,0l0,1.1Z" class="g4_1" />
<path d="M0,-0.1l-1,0l0,-1.1l1,0l0,1.1Z" class="g5_1" />
<path d="M0,-0.1l-1,0l0,-1.1l1,0l0,1.1Z" class="g6_1" />
<path d="M0,-0.1l-1,0l0,-1.1l1,0l0,1.1Z" class="g7_1" />
<path d="M0,-0.1l-1,0l0,-1.1l1,0l0,1.1Z" class="g8_1" />
<path d="M0,-0.1l-1,0l0,-1.1l1,0l0,1.1Z" class="g9_1" />
<path d="M0,-0.1l-1,0l0,-1.1l1,0l0,1.1Z" class="g10_1" />
<path d="M0,-0.1l-1,0l0,-1.1l1,0l0,1.1Z" class="g11_1" />
<path d="M0,-0.1l-1,0l0,-1.1l1,0l0,1.1Z" class="g12_1" />
<path d="M0,-0.1l-1,0l0,-1.1l1,0l0,1.1Z" class="g12_1" />
<path d="M0,-0.1l-1,0l0,-1.1l1,0l0,1.1Z" class="g13_1" />
<path d="M0,-0.1l-1,0l0,-1.1l1,0l0,1.1Z" class="g14_1" />
<path d="M0,-0.1l-1,0l0,-1.1l1,0l0,1.1Z" class="g15_1" />
<path d="M0,-0.1l-1,0l0,-1.1l1,0l0,1.1Z" class="g16_1" />
<path d="M0,-0.1l-1,0l0,-1.1l1,0l0,1.1Z" class="g17_1" />
<path d="M0,-0.1l-1,0l0,-1.1l1,0l0,1.1Z" class="g18_1" />
<path d="M0,-0.1l-1,0l0,-1.1l1,0l0,1.1Z" class="g19_1" />
<path d="M0,-0.1l-1,0l0,-1.1l1,0l0,1.1Z" class="g20_1" />
<path d="M0,-0.1l-1,0l0,-1.1l1,0l0,1.1Z" class="g21_1" />
<path d="M0,-0.1l-1,0l0,-1.1l1,0l0,1.1Z" class="g22_1" />
<path d="M0,-0.1l-1,0l0,-1.1l1,0l0,1.1Z" class="g23_1" />
<path d="M0,-0.1l-1,0l0,-1.1l1,0l0,1.1Z" class="g24_1" />
<path d="M0,-0.1l-1,0l0,-1.1l1,0l0,1.1Z" class="g25_1" />
<path d="M0,-0.1l-1,0l0,-1.1l1,0l0,1.1Z" class="g26_1" />
<path d="M0,-0.1l-1,0l0,-1.1l1,0l0,1.1Z" class="g26_1" />
<path d="M0,-0.1l-1,0l0,-1.1l1,0l0,1.1Z" class="g27_1" />
<path d="M0,-0.1l-1,0l0,-1.1l1,0l0,1.1Z" class="g28_1" />
<path d="M0,-0.1l-1,0l0,-1.1l1,0l0,1.1Z" class="g29_1" />
<path d="M0,-0.1l-1,0l0,-1.1l1,0l0,1.1Z" class="g30_1" />
<path d="M0,-0.1l-1,0l0,-1.1l1,0l0,1.1Z" class="g31_1" />
<path d="M0,-0.1l-1,0l0,-1.1l1,0l0,1.1Z" class="g32_1" />
<path d="M0,-0.1l-1,0l0,-1.1l1,0l0,1.1Z" class="g33_1" />
<path d="M0,-0.1l-1,0l0,-1.1l1,0l0,1.1Z" class="g34_1" />
<path d="M0,-0.1l-1,0l0,-1.1l1,0l0,1.1Z" class="g35_1" />
<path d="M0,-0.1l-1,0l0,-1.1l1,0l0,1.1Z" class="g36_1" />
<path d="M0,-0.1l-1,0l0,-1.1l1,0l0,1.1Z" class="g37_1" />
<path d="M0,-0.1l-1,0l0,-1.1l1,0l0,1.1Z" class="g38_1" />
<path d="M0,-0.1l-1,0l0,-1.1l1,0l0,1.1Z" class="g39_1" />
<path d="M0,-0.1l-1,0l0,-1.1l1,0l0,1.1Z" class="g40_1" />
<path d="M0,-0.1l-1,0l0,-1.1l1,0l0,1.1Z" class="g40_1" />
<path d="M0,-0.1l-1,0l0,-1.1l1,0l0,1.1Z" class="g41_1" />
<path d="M0,-0.1l-1,0l0,-1.1l1,0l0,1.1Z" class="g42_1" />
<path d="M0,-0.1l-1,0l0,-1.1l1,0l0,1.1Z" class="g43_1" />
<path d="M0,-0.1l-1,0l0,-1.1l1,0l0,1.1Z" class="g44_1" />
<path d="M0,-0.1l-1,0l0,-1.1l1,0l0,1.1Z" class="g45_1" />
<path d="M0,-0.1l-1,0l0,-1.1l1,0l0,1.1Z" class="g46_1" />
<path d="M0,-0.1l-1,0l0,-1.1l1,0l0,1.1Z" class="g47_1" />
<path d="M0,-0.1l-1,0l0,-1.1l1,0l0,1.1Z" class="g48_1" />
<path d="M0,-0.1l-1,0l0,-1.1l1,0l0,1.1Z" class="g49_1" />
<path d="M0,-0.1l-1,0l0,-1.1l1,0l0,1.1Z" class="g50_1" />
<path d="M0,-0.1l-1,0l0,-1.1l1,0l0,1.1Z" class="g51_1" />
<path d="M0,-0.1l-1,0l0,-1.1l1,0l0,1.1Z" class="g52_1" />
<path d="M0,-0.1l-1,0l0,-1.1l1,0l0,1.1Z" class="g53_1" />
<path d="M0,-0.1l-1,0l0,-1.1l1,0l0,1.1Z" class="g54_1" />
<path d="M0,-0.1l-1,0l0,-1.1l1,0l0,1.1Z" class="g54_1" />
<path d="M0,-0.1l-1,0l0,-1.1l1,0l0,1.1Z" class="g55_1" />
<path d="M0,-0.1l-1,0l0,-1.1l1,0l0,1.1Z" class="g56_1" />
<path d="M0,-0.1l-1,0l0,-1.1l1,0l0,1.1Z" class="g57_1" />
<path d="M0,-0.1l-1,0l0,-1.1l1,0l0,1.1Z" class="g58_1" />
<path d="M0,-0.1l-1,0l0,-1.1l1,0l0,1.1Z" class="g59_1" />
<path d="M0,-0.1l-1,0l0,-1.1l1,0l0,1.1Z" class="g60_1" />
<path d="M0,-0.1l-1,0l0,-1.1l1,0l0,1.1Z" class="g61_1" />
<path d="M0,-0.1l-1,0l0,-1.1l1,0l0,1.1Z" class="g62_1" />
<path d="M296.3,340.8l108.7,0l0,56l-108.7,0l0,-56Z" class="g3_1" />
<text 
x="322" 
y="360" 
dx="0,-0.1,0.9,0.8,0.9" 
class="s1_1"
>JSON </text>

<text 
x="312" 
y="374" 
dx="0,1,1,1,1,0.5,0.5,0.5" 
class="s1_1"
>20151123</text>

<path d="M388.5,351.8c0,-5.5,0,-5.5,4.4,-5.5l2.2,0c4.4,0,4.4,0,4.4,5.5l0,6.6c0,5.5,0,5.5,-4.4,5.5l-2.2,0c-4.4,0,-4.4,0,-4.4,-5.5l0,-6.6Z" class="g2_1" />
<path d="M388.5,351.8c0,-5.5,0,-5.5,4.4,-5.5l2.2,0c4.4,0,4.4,0,4.4,5.5l0,6.6c0,5.5,0,5.5,-4.4,5.5l-2.2,0c-4.4,0,-4.4,0,-4.4,-5.5l0,-6.6" class="g3_1" />
<path d="M385.2,351.8c0,-3.3,0,-3.3,2.2,-3.3l2.2,0c2.2,0,2.2,0,2.2,3.3l0,-2.2c0,3.3,0,3.3,-2.2,3.3l-2.2,0c-2.2,0,-2.2,0,-2.2,-3.3l0,2.2Z" class="g2_1" />
<path d="M385.2,351.8c0,-3.3,0,-3.3,2.2,-3.3l2.2,0c2.2,0,2.2,0,2.2,3.3l0,-2.2c0,3.3,0,3.3,-2.2,3.3l-2.2,0c-2.2,0,-2.2,0,-2.2,-3.3l0,2.2" class="g3_1" />
<path d="M385.2,359.5c0,-3.3,0,-3.3,2.2,-3.3l2.2,0c2.2,0,2.2,0,2.2,3.3l0,-2.2c0,3.3,0,3.3,-2.2,3.3l-2.2,0c-2.2,0,-2.2,0,-2.2,-3.3l0,2.2Z" class="g2_1" />
<path d="M385.2,359.5c0,-3.3,0,-3.3,2.2,-3.3l2.2,0c2.2,0,2.2,0,2.2,3.3l0,-2.2c0,3.3,0,3.3,-2.2,3.3l-2.2,0c-2.2,0,-2.2,0,-2.2,-3.3l0,2.2" class="g3_1" />
<path d="M153.7,340.8l0,-7.7" class="g3_1" />
<path d="M153.7,328.7l0,-7.7" class="g3_1" />
<path d="M153.7,316.6l0,-7.7" class="g3_1" />
<path d="M153.7,304.5l0,-7.7" class="g3_1" />
<path d="M153.7,292.4l0,-7.7" class="g3_1" />
<path d="M153.7,280.3l0,-5.5" class="g3_1" />
<path d="M147.1,324.3l13.1,0l-6.5,16.5l-6.6,-16.5" class="g189_1" />
<path d="M545.5,340.8l0,-7.7" class="g3_1" />
<path d="M545.5,328.7L544.4,321" class="g3_1" />
<path d="M544.4,316.6l-1.1,-7.7" class="g3_1" />
<path d="M543.3,304.5l-1.1,-7.7" class="g3_1" />
<path d="M542.2,292.4l-1.1,-7.7" class="g3_1" />
<path d="M541.1,280.3L540,274.8" class="g3_1" />
<path d="M537.8,325.4L551,324.3l-5.5,16.5l-7.7,-15.4" class="g189_1" />
<path d="M735.4,340.8l0,-7.7" class="g3_1" />
<path d="M735.4,328.7l0,-7.7" class="g3_1" />
<path d="M735.4,316.6l0,-7.7" class="g3_1" />
<path d="M735.4,304.5l0,-7.7" class="g3_1" />
<path d="M735.4,292.4l0,-7.7" class="g3_1" />
<path d="M735.4,280.3l0,-5.5" class="g3_1" />
<path d="M728.8,324.3l13.2,0l-6.6,16.5l-6.6,-16.5" class="g189_1" />
<path d="M379.8,101l-7.7,4.4" class="g3_1" />
<path d="M367.7,107.6L360,112" class="g3_1" />
<path d="M355.6,115.3l-7.7,4.4" class="g3_1" />
<path d="M343.5,121.9l-7.6,4.4" class="g3_1" />
<path d="M331.5,129.6l-7.7,4.4" class="g3_1" />
<path d="M319.4,136.2l-7.7,4.4" class="g3_1" />
<path d="M307.3,143.9l-7.7,4.4" class="g3_1" />
<path d="M295.2,150.5l-7.6,4.4" class="g3_1" />
<path d="M283.2,158.2l-7.7,4.4" class="g3_1" />
<path d="M271.1,164.8l-7.7,5.5" class="g3_1" />
<path d="M259,172.5l-7.7,4.4" class="g3_1" />
<path d="M247,179.1l-7.7,5.5" class="g3_1" />
<path d="M234.9,186.8l-7.7,4.4" class="g3_1" />
<path d="M222.8,194.5l-5.5,3.3" class="g3_1" />
<path d="M368.8,115.3l-6.6,-11L379.8,101l-11,14.3" class="g189_1" />
<path d="M413.8,101l-3.3,7.7" class="g3_1" />
<path d="M408.3,113.1l-3.3,7.7" class="g3_1" />
<path d="M402.8,125.2l-3.3,7.7" class="g3_1" />
<path d="M397.3,137.3L394,145" class="g3_1" />
<path d="M391.8,149.4l-3.3,7.7" class="g3_1" />
<path d="M386.3,161.5l-3.3,7.7" class="g3_1" />
<path d="M380.9,173.6l-4.4,7.7" class="g3_1" />
<path d="M375.4,185.7l-4.4,7.7" class="g3_1" />
<path d="M412.7,118.6l-12.1,-5.5L413.8,101l-1.1,17.6" class="g189_1" />
<path d="M446.7,101l4.4,7.7" class="g3_1" />
<path d="M454.4,113.1l5.5,7.7" class="g3_1" />
<path d="M462.1,125.2l5.5,7.7" class="g3_1" />
<path d="M470.9,137.3l4.3,7.7" class="g3_1" />
<path d="M478.5,149.4l5.5,7.7" class="g3_1" />
<path d="M486.2,161.5l5.5,7.7" class="g3_1" />
<path d="M495,173.6l4.4,7.7" class="g3_1" />
<path d="M502.7,185.7l5.5,7.7" class="g3_1" />
<path d="M461,110.9l-11,7.7L446.7,101l14.3,9.9" class="g189_1" />
<path d="M480.7,101l7.7,3.3" class="g3_1" />
<path d="M492.8,106.5l7.7,4.4" class="g3_1" />
<path d="M504.9,113.1l7.7,4.4" class="g3_1" />
<path d="M517,119.7l7.6,4.4" class="g3_1" />
<path d="M529,126.3l7.7,3.3" class="g3_1" />
<path d="M541.1,132.9l7.7,3.3" class="g3_1" />
<path d="M553.2,138.4l7.7,4.4" class="g3_1" />
<path d="M565.2,145l7.7,4.4" class="g3_1" />
<path d="M577.3,151.6L585,156" class="g3_1" />
<path d="M589.4,158.2l7.7,4.4" class="g3_1" />
<path d="M601.5,164.8l7.6,3.3" class="g3_1" />
<path d="M613.5,171.4l7.7,3.3" class="g3_1" />
<path d="M625.6,176.9l7.7,4.4" class="g3_1" />
<path d="M637.7,183.5l7.7,4.4" class="g3_1" />
<path d="M649.8,190.1l7.6,4.4" class="g3_1" />
<path d="M661.8,196.7l7.7,4.4" class="g3_1" />
<path d="M498.3,103.2l-6.6,11L480.7,101l17.6,2.2" class="g189_1" />
<path d="M153.7,153.8l0,7.7" class="g3_1" />
<path d="M153.7,165.9l0,7.7" class="g3_1" />
<path d="M153.7,178l0,7.7" class="g3_1" />
<path d="M153.7,190.1l0,7.7" class="g3_1" />
<path d="M160.2,170.3l-13.1,0l6.6,-16.5l6.5,16.5" class="g189_1" />
<path d="M219.5,236.3l23.1,0" class="g3_1" />
<path d="M252.6,224.8c-0.4,0,-0.8,-0.1,-1.3,-0.1c-5.2,0.6,-9.8,5.3,-9.8,11c0,5.8,4.6,10.5,10.4,10.5c-0.2,-0.6,0.1,-0.6,0.5,-0.6" class="g3_1" />
<path d="M259,236.3l26.4,0" class="g3_1" />
<path d="M244.8,235.7c0,-3.9,3.1,-7.1,7.1,-7.1c3.9,0,7.1,3.2,7.1,7.1c0,4,-3.2,7.2,-7.1,7.2c-4,0,-7.1,-3.2,-7.1,-7.2Z" class="g190_1" />
<path d="M244.8,235.7c0,-3.9,3.1,-7.1,7.1,-7.1c3.9,0,7.1,3.2,7.1,7.1c0,4,-3.2,7.2,-7.1,7.2c-4,0,-7.1,-3.2,-7.1,-7.2" class="g3_1" />
<path d="M417.1,236.3l17.5,0" class="g3_1" />
<path d="M444.7,224.8c-0.4,0,-0.9,-0.1,-1.3,-0.1c-5.2,0.6,-9.9,5.3,-9.9,11c0,5.8,4.7,10.5,10.5,10.5c-0.2,-0.6,0.1,-0.6,0.5,-0.6" class="g3_1" />
<path d="M451.1,236.3l20.9,0" class="g3_1" />
<path d="M436.8,235.7c0,-3.9,3.2,-7.1,7.2,-7.1c3.9,0,7.1,3.2,7.1,7.1c0,4,-3.2,7.2,-7.1,7.2c-4,0,-7.2,-3.2,-7.2,-7.2Z" class="g190_1" />
<path d="M436.8,235.7c0,-3.9,3.2,-7.1,7.2,-7.1c3.9,0,7.1,3.2,7.1,7.1c0,4,-3.2,7.2,-7.1,7.2c-4,0,-7.2,-3.2,-7.2,-7.2" class="g3_1" />
<path d="M603.7,236.3l23,0" class="g3_1" />
<path d="M636.8,224.8c-0.4,0,-0.9,-0.1,-1.3,-0.1c-5.2,0.6,-9.9,5.3,-9.9,11c0,5.8,4.7,10.5,10.4,10.5c-0.2,-0.6,0.2,-0.6,0.5,-0.6" class="g3_1" />
<path d="M643.2,236.3l26.3,0" class="g3_1" />
<path d="M628.9,235.7c0,-3.9,3.2,-7.1,7.1,-7.1c4,0,7.2,3.2,7.2,7.1c0,4,-3.2,7.2,-7.2,7.2c-3.9,0,-7.1,-3.2,-7.1,-7.2Z" class="g190_1" />
<path d="M628.9,235.7c0,-3.9,3.2,-7.1,7.1,-7.1c4,0,7.2,3.2,7.2,7.1c0,4,-3.2,7.2,-7.2,7.2c-3.9,0,-7.1,-3.2,-7.1,-7.2" class="g3_1" />
<path d="M735.4,109.8l0,34.1" class="g3_1" />
<path d="M744.6,153.8c0.1,-0.4,0.1,-0.7,0.1,-1.1c0.5,-5.2,-4.1,-9.9,-9.9,-9.9c-5.7,0,-10.4,4.7,-10.4,10.5c-0.6,-0.2,-0.5,0.2,-0.5,0.6" class="g3_1" />
<path d="M735.4,161.5l0,36.3" class="g3_1" />
<path d="M727.7,153.3c0,-4,3.2,-7.2,7.1,-7.2c4,0,7.2,3.2,7.2,7.2c0,3.9,-3.2,7.1,-7.2,7.1c-3.9,0,-7.1,-3.2,-7.1,-7.1Z" class="g190_1" />
<path d="M727.7,153.3c0,-4,3.2,-7.2,7.1,-7.2c4,0,7.2,3.2,7.2,7.2c0,3.9,-3.2,7.1,-7.2,7.1c-3.9,0,-7.1,-3.2,-7.1,-7.1" class="g3_1" />
<path d="M351.2,340.8l0,-7.7" class="g3_1" />
<path d="M351.2,328.7l0,-7.7" class="g3_1" />
<path d="M351.2,316.6l0,-7.7" class="g3_1" />
<path d="M351.2,304.5l0,-7.7" class="g3_1" />
<path d="M351.2,292.4l0,-7.7" class="g3_1" />
<path d="M351.2,280.3l0,-5.5" class="g3_1" />
<path d="M344.6,324.3l13.2,0l-6.6,16.5l-6.6,-16.5" class="g189_1" />
<path d="M724.4,138.4l23,0l0,12.1l-23,0l0,-12.1Z" class="g191_1" />
<text 
x="724" 
y="148" 
dx="0,0.3,1,1" 
class="s2_1"
>jdbc</text>



<!-- Any embedded fonts defined here -->
<style type="text/css" ><![CDATA[

@font-face {
	font-family: ArialUnicode_a;
	src: url("fonts/ArialUnicode_a.woff") format("woff");
}

@font-face {
	font-family: ArialUnicode-Bold_g;
	src: url("fonts/ArialUnicode-Bold_g.woff") format("woff");
}

]]></style>

</svg>
