<?xml version="1.0" encoding="UTF-8" standalone="no"?>
<!DOCTYPE svg PUBLIC "-//W3C//DTD SVG 1.1//EN"
"http://www.w3.org/Graphics/SVG/1.1/DTD/svg11.dtd">


<!-- Page 1 -->
<svg x="0" y="0" width="881" height="1260" viewBox="0 0 881 1260" version="1.1" xmlns="http://www.w3.org/2000/svg" xmlns:xlink="http://www.w3.org/1999/xlink"
style="display: block;margin-left: auto;margin-right: auto;">
<defs>

<style type="text/css"><![CDATA[

.g1_1{
fill: #DFDFDF;
}
.g2_1{
fill: #F8E2C1;
}
.g3_1{
fill: none;
stroke: #000000;
stroke-width: 1.0975593;
stroke-linecap: round;
stroke-linejoin: miter;
}
.g4_1{
fill: #00FFFF;
}
.g5_1{
fill: #00FEFE;
}
.g6_1{
fill: #00FDFD;
}
.g7_1{
fill: #00FCFC;
}
.g8_1{
fill: #00FBFB;
}
.g9_1{
fill: #00FAFB;
}
.g10_1{
fill: #00FAFA;
}
.g11_1{
fill: #00F9F9;
}
.g12_1{
fill: #00F8F8;
}
.g13_1{
fill: #00F7F7;
}
.g14_1{
fill: #00F6F7;
}
.g15_1{
fill: #00F6F6;
}
.g16_1{
fill: #00F5F5;
}
.g17_1{
fill: #00F4F4;
}
.g18_1{
fill: #00F3F3;
}
.g19_1{
fill: #00F2F3;
}
.g20_1{
fill: #00F2F2;
}
.g21_1{
fill: #00F1F1;
}
.g22_1{
fill: #00F0F0;
}
.g23_1{
fill: #00EFEF;
}
.g24_1{
fill: #00EEEF;
}
.g25_1{
fill: #00EDEE;
}
.g26_1{
fill: #00EDED;
}
.g27_1{
fill: #00ECEC;
}
.g28_1{
fill: #00EBEB;
}
.g29_1{
fill: #00EAEB;
}
.g30_1{
fill: #00E9EA;
}
.g31_1{
fill: #00E9E9;
}
.g32_1{
fill: #00E8E8;
}
.g33_1{
fill: #00E7E7;
}
.g34_1{
fill: #00E6E7;
}
.g35_1{
fill: #00E5E6;
}
.g36_1{
fill: #00E5E5;
}
.g37_1{
fill: #00E4E4;
}
.g38_1{
fill: #00E3E3;
}
.g39_1{
fill: #00E2E3;
}
.g40_1{
fill: #00E1E2;
}
.g41_1{
fill: #00E0E1;
}
.g42_1{
fill: #00E0E0;
}
.g43_1{
fill: #00DFDF;
}
.g44_1{
fill: #00DEDF;
}
.g45_1{
fill: #00DDDE;
}
.g46_1{
fill: #00DCDD;
}
.g47_1{
fill: #00DCDC;
}
.g48_1{
fill: #00DBDB;
}
.g49_1{
fill: #00DADB;
}
.g50_1{
fill: #00D9DA;
}
.g51_1{
fill: #00D8D9;
}
.g52_1{
fill: #00D8D8;
}
.g53_1{
fill: #00D7D7;
}
.g54_1{
fill: #00D6D7;
}
.g55_1{
fill: #00D5D6;
}
.g56_1{
fill: #00D4D5;
}
.g57_1{
fill: #00D3D4;
}
.g58_1{
fill: #00D3D3;
}
.g59_1{
fill: #00D2D3;
}
.g60_1{
fill: #00D1D2;
}
.g61_1{
fill: #00D0D1;
}
.g62_1{
fill: #00CFD0;
}
.g63_1{
fill: #00CFCF;
}
.g64_1{
fill: #00CECF;
}
.g65_1{
fill: #00CDCE;
}
.g66_1{
fill: #00CCCD;
}
.g67_1{
fill: #00CBCC;
}
.g68_1{
fill: none;
stroke: #C0C0C0;
stroke-width: 2.1951187;
stroke-linecap: round;
stroke-linejoin: miter;
}
.g69_1{
fill: #FCF2E3;
stroke: #000000;
stroke-width: 1.0975593;
stroke-linecap: round;
stroke-linejoin: miter;
}
.g70_1{
stroke: #000000;
stroke-width: 1.0975593;
stroke-linecap: round;
stroke-linejoin: miter;
}
.g71_1{
fill: #FFFFFF;
}

.s1_1{
font-size: 11.00px;
font-family: ArialUnicode_a;
fill: #000000;
}
.s2_1{
font-size: 11.00px;
font-family: ArialUnicode-Bold_g;
fill: #000000;
}

]]></style>

</defs>
<path d="M0,0
L0,1260
L881,1260
L881,0 Z " 
fill="#FFFFFF" stroke="none" />
<path d="M161.3,62c0,-2.8,2.2,-5,5,-5c2.7,0,4.9,2.2,4.9,5c0,2.7,-2.2,4.9,-4.9,4.9c-2.8,0,-5,-2.2,-5,-4.9Z" class="g1_1" />
<path d="M159.1,59.8c0,-2.8,2.3,-5,5,-5c2.7,0,4.9,2.2,4.9,5c0,2.7,-2.2,4.9,-4.9,4.9c-2.7,0,-5,-2.2,-5,-4.9Z" class="g2_1" />
<path d="M159.1,59.8c0,-2.8,2.3,-5,5,-5c2.7,0,4.9,2.2,4.9,5c0,2.7,-2.2,4.9,-4.9,4.9c-2.7,0,-5,-2.2,-5,-4.9" class="g3_1" />
<path d="M164.6,65.8l0,11" class="g3_1" />
<path d="M159.1,71.3l11,0" class="g3_1" />
<path d="M159.1,87.8l5.5,-11" class="g3_1" />
<path d="M170.1,87.8l-5.5,-11" class="g3_1" />
<text 
x="147" 
y="103" 
dx="0,0.9,0,0.5,-0.1,-0.1" 
class="s1_1"
>Usager</text>

<path d="M164.6,107.6l0,7.7" class="g3_1" />
<path d="M164.6,119.7l0,7.7" class="g3_1" />
<path d="M164.6,131.8l0,7.7" class="g3_1" />
<path d="M164.6,143.9l0,7.7" class="g3_1" />
<path d="M164.6,156l0,7.7" class="g3_1" />
<path d="M164.6,168.1l0,7.7" class="g3_1" />
<path d="M164.6,180.2l0,7.7" class="g3_1" />
<path d="M164.6,192.3l0,7.7" class="g3_1" />
<path d="M164.6,204.4l0,7.7" class="g3_1" />
<path d="M164.6,216.5l0,7.7" class="g3_1" />
<path d="M164.6,228.6l0,7.7" class="g3_1" />
<path d="M164.6,240.7l0,7.7" class="g3_1" />
<path d="M164.6,252.8l0,7.7" class="g3_1" />
<path d="M164.6,264.9l0,7.7" class="g3_1" />
<path d="M164.6,277l0,7.7" class="g3_1" />
<path d="M164.6,289.1l0,7.7" class="g3_1" />
<path d="M164.6,301.2l0,7.7" class="g3_1" />
<path d="M164.6,313.3l0,7.7" class="g3_1" />
<path d="M164.6,325.4l0,7.7" class="g3_1" />
<path d="M164.6,337.5l0,7.7" class="g3_1" />
<path d="M164.6,349.6l0,7.7" class="g3_1" />
<path d="M164.6,361.7l0,7.7" class="g3_1" />
<path d="M164.6,373.8l0,7.7" class="g3_1" />
<path d="M164.6,385.9l0,7.6" class="g3_1" />
<path d="M164.6,397.9l0,7.7" class="g3_1" />
<path d="M164.6,410l0,7.7" class="g3_1" />
<path d="M164.6,422.1l0,7.7" class="g3_1" />
<path d="M164.6,434.2l0,7.7" class="g3_1" />
<path d="M164.6,446.3l0,4.4" class="g3_1" />
<path d="M159.1,153.8c0,-5.5,0,-5.5,3.9,-5.5l2.2,0c3.8,0,3.8,0,3.8,5.5l0,252.9c0,5.5,0,5.5,-3.8,5.5l-2.2,0c-3.9,0,-3.9,0,-3.9,-5.5l0,-252.9Z" class="g2_1" />
<path d="M159.1,153.8c0,-5.5,0,-5.5,3.9,-5.5l2.2,0c3.8,0,3.8,0,3.8,5.5l0,252.9c0,5.5,0,5.5,-3.8,5.5l-2.2,0c-3.9,0,-3.9,0,-3.9,-5.5l0,-252.9" class="g3_1" />
<path d="M164.6,248.9c0,-7.1,0,-7.1,3.9,-7.1l2.2,0c3.8,0,3.8,0,3.8,7.1l0,-2.2c0,7.2,0,7.2,-3.8,7.2l-2.2,0c-3.9,0,-3.9,0,-3.9,-7.2l0,2.2Z" class="g2_1" />
<path d="M164.6,248.9c0,-7.1,0,-7.1,3.9,-7.1l2.2,0c3.8,0,3.8,0,3.8,7.1l0,-2.2c0,7.2,0,7.2,-3.8,7.2l-2.2,0c-3.9,0,-3.9,0,-3.9,-7.2l0,2.2" class="g3_1" />
<path d="M354.5,63.6c0,-5.5,0,-5.5,5.5,-5.5l86.7,0c5.5,0,5.5,0,5.5,5.5l0,42.9c0,5.5,0,5.5,-5.5,5.5L360,112c-5.5,0,-5.5,0,-5.5,-5.5l0,-42.9Z" class="g1_1" />
<path d="M351.2,60.3c0,-5.5,0,-5.5,5.5,-5.5l86.7,0c5.5,0,5.5,0,5.5,5.5l0,42.9c0,5.5,0,5.5,-5.5,5.5l-86.7,0c-5.5,0,-5.5,0,-5.5,-5.5l0,-42.9Z" class="g4_1" />
<path d="M351.2,60.3c0,-5.5,0,-5.5,5.5,-5.5l86.7,0c5.5,0,5.5,0,5.5,5.5l0,42.9c0,5.5,0,5.5,-5.5,5.5l-86.7,0c-5.5,0,-5.5,0,-5.5,-5.5l0,-42.9" class="g3_1" />
<path d="M351.2,60.3c0,-5.5,0,-5.5,5.5,-5.5l86.7,0c5.5,0,5.5,0,5.5,5.5l0,42.9c0,5.5,0,5.5,-5.5,5.5l-86.7,0c-5.5,0,-5.5,0,-5.5,-5.5l0,-42.9" class="g3_1" />
<path d="M0,-0.1l-1,0l0,-1.1l1,0l0,1.1Z" class="g4_1" />
<path d="M0,-0.1l-1,0l0,-1.1l1,0l0,1.1Z" class="g5_1" />
<path d="M0,-0.1l-1,0l0,-1.1l1,0l0,1.1Z" class="g6_1" />
<path d="M0,-0.1l-1,0l0,-1.1l1,0l0,1.1Z" class="g7_1" />
<path d="M0,-0.1l-1,0l0,-1.1l1,0l0,1.1Z" class="g8_1" />
<path d="M0,-0.1l-1,0l0,-1.1l1,0l0,1.1Z" class="g9_1" />
<path d="M0,-0.1l-1,0l0,-1.1l1,0l0,1.1Z" class="g10_1" />
<path d="M0,-0.1l-1,0l0,-1.1l1,0l0,1.1Z" class="g11_1" />
<path d="M0,-0.1l-1,0l0,-1.1l1,0l0,1.1Z" class="g12_1" />
<path d="M0,-0.1l-1,0l0,-1.1l1,0l0,1.1Z" class="g13_1" />
<path d="M0,-0.1l-1,0l0,-1.1l1,0l0,1.1Z" class="g14_1" />
<path d="M0,-0.1l-1,0l0,-1.1l1,0l0,1.1Z" class="g15_1" />
<path d="M0,-0.1l-1,0l0,-1.1l1,0l0,1.1Z" class="g16_1" />
<path d="M0,-0.1l-1,0l0,-1.1l1,0l0,1.1Z" class="g17_1" />
<path d="M0,-0.1l-1,0l0,-1.1l1,0l0,1.1Z" class="g18_1" />
<path d="M0,-0.1l-1,0l0,-1.1l1,0l0,1.1Z" class="g18_1" />
<path d="M0,-0.1l-1,0l0,-1.1l1,0l0,1.1Z" class="g19_1" />
<path d="M0,-0.1l-1,0l0,-1.1l1,0l0,1.1Z" class="g20_1" />
<path d="M0,-0.1l-1,0l0,-1.1l1,0l0,1.1Z" class="g21_1" />
<path d="M0,-0.1l-1,0l0,-1.1l1,0l0,1.1Z" class="g22_1" />
<path d="M0,-0.1l-1,0l0,-1.1l1,0l0,1.1Z" class="g23_1" />
<path d="M0,-0.1l-1,0l0,-1.1l1,0l0,1.1Z" class="g24_1" />
<path d="M0,-0.1l-1,0l0,-1.1l1,0l0,1.1Z" class="g25_1" />
<path d="M0,-0.1l-1,0l0,-1.1l1,0l0,1.1Z" class="g26_1" />
<path d="M0,-0.1l-1,0l0,-1.1l1,0l0,1.1Z" class="g27_1" />
<path d="M0,-0.1l-1,0l0,-1.1l1,0l0,1.1Z" class="g28_1" />
<path d="M0,-0.1l-1,0l0,-1.1l1,0l0,1.1Z" class="g29_1" />
<path d="M0,-0.1l-1,0l0,-1.1l1,0l0,1.1Z" class="g30_1" />
<path d="M0,-0.1l-1,0l0,-1.1l1,0l0,1.1Z" class="g31_1" />
<path d="M0,-0.1l-1,0l0,-1.1l1,0l0,1.1Z" class="g32_1" />
<path d="M0,-0.1l-1,0l0,-1.1l1,0l0,1.1Z" class="g33_1" />
<path d="M0,-0.1l-1,0l0,-1.1l1,0l0,1.1Z" class="g34_1" />
<path d="M0,-0.1l-1,0l0,-1.1l1,0l0,1.1Z" class="g35_1" />
<path d="M0,-0.1l-1,0l0,-1.1l1,0l0,1.1Z" class="g36_1" />
<path d="M0,-0.1l-1,0l0,-1.1l1,0l0,1.1Z" class="g37_1" />
<path d="M0,-0.1l-1,0l0,-1.1l1,0l0,1.1Z" class="g38_1" />
<path d="M0,-0.1l-1,0l0,-1.1l1,0l0,1.1Z" class="g39_1" />
<path d="M0,-0.1l-1,0l0,-1.1l1,0l0,1.1Z" class="g39_1" />
<path d="M0,-0.1l-1,0l0,-1.1l1,0l0,1.1Z" class="g40_1" />
<path d="M0,-0.1l-1,0l0,-1.1l1,0l0,1.1Z" class="g41_1" />
<path d="M0,-0.1l-1,0l0,-1.1l1,0l0,1.1Z" class="g42_1" />
<path d="M0,-0.1l-1,0l0,-1.1l1,0l0,1.1Z" class="g43_1" />
<path d="M0,-0.1l-1,0l0,-1.1l1,0l0,1.1Z" class="g44_1" />
<path d="M0,-0.1l-1,0l0,-1.1l1,0l0,1.1Z" class="g45_1" />
<path d="M0,-0.1l-1,0l0,-1.1l1,0l0,1.1Z" class="g46_1" />
<path d="M0,-0.1l-1,0l0,-1.1l1,0l0,1.1Z" class="g47_1" />
<path d="M0,-0.1l-1,0l0,-1.1l1,0l0,1.1Z" class="g48_1" />
<path d="M0,-0.1l-1,0l0,-1.1l1,0l0,1.1Z" class="g49_1" />
<path d="M0,-0.1l-1,0l0,-1.1l1,0l0,1.1Z" class="g50_1" />
<path d="M0,-0.1l-1,0l0,-1.1l1,0l0,1.1Z" class="g51_1" />
<path d="M0,-0.1l-1,0l0,-1.1l1,0l0,1.1Z" class="g52_1" />
<path d="M0,-0.1l-1,0l0,-1.1l1,0l0,1.1Z" class="g53_1" />
<path d="M0,-0.1l-1,0l0,-1.1l1,0l0,1.1Z" class="g54_1" />
<path d="M0,-0.1l-1,0l0,-1.1l1,0l0,1.1Z" class="g55_1" />
<path d="M0,-0.1l-1,0l0,-1.1l1,0l0,1.1Z" class="g56_1" />
<path d="M0,-0.1l-1,0l0,-1.1l1,0l0,1.1Z" class="g57_1" />
<path d="M0,-0.1l-1,0l0,-1.1l1,0l0,1.1Z" class="g58_1" />
<path d="M0,-0.1l-1,0l0,-1.1l1,0l0,1.1Z" class="g59_1" />
<path d="M0,-0.1l-1,0l0,-1.1l1,0l0,1.1Z" class="g60_1" />
<path d="M0,-0.1l-1,0l0,-1.1l1,0l0,1.1Z" class="g61_1" />
<path d="M0,-0.1l-1,0l0,-1.1l1,0l0,1.1Z" class="g61_1" />
<path d="M0,-0.1l-1,0l0,-1.1l1,0l0,1.1Z" class="g62_1" />
<path d="M0,-0.1l-1,0l0,-1.1l1,0l0,1.1Z" class="g63_1" />
<path d="M0,-0.1l-1,0l0,-1.1l1,0l0,1.1Z" class="g64_1" />
<path d="M0,-0.1l-1,0l0,-1.1l1,0l0,1.1Z" class="g65_1" />
<path d="M0,-0.1l-1,0l0,-1.1l1,0l0,1.1Z" class="g66_1" />
<path d="M0,-0.1l-1,0l0,-1.1l1,0l0,1.1Z" class="g67_1" />
<path d="M351.2,54.8l97.7,0l0,53.9l-97.7,0l0,-53.9Z" class="g3_1" />
<text 
x="364" 
y="68" 
dx="0,1.5,0.5,-0.4,0.9,0.5,0.2,0.9,0,0,-0.3,0.5" 
class="s1_1"
>KarCo System</text>

<path d="M400.6,109.8l0,7.7" class="g3_1" />
<path d="M400.6,121.9l0,7.7" class="g3_1" />
<path d="M400.6,134l0,7.7" class="g3_1" />
<path d="M400.6,146.1l0,7.7" class="g3_1" />
<path d="M400.6,158.2l0,7.7" class="g3_1" />
<path d="M400.6,170.3l0,7.7" class="g3_1" />
<path d="M400.6,182.4l0,7.7" class="g3_1" />
<path d="M400.6,194.5l0,7.7" class="g3_1" />
<path d="M400.6,206.6l0,7.7" class="g3_1" />
<path d="M400.6,218.7l0,7.7" class="g3_1" />
<path d="M400.6,230.8l0,7.7" class="g3_1" />
<path d="M400.6,242.9l0,7.7" class="g3_1" />
<path d="M400.6,255l0,7.7" class="g3_1" />
<path d="M400.6,267.1l0,7.7" class="g3_1" />
<path d="M400.6,279.2l0,7.7" class="g3_1" />
<path d="M400.6,291.3l0,7.7" class="g3_1" />
<path d="M400.6,303.4l0,7.7" class="g3_1" />
<path d="M400.6,315.5l0,7.7" class="g3_1" />
<path d="M400.6,327.6l0,7.7" class="g3_1" />
<path d="M400.6,339.7l0,7.7" class="g3_1" />
<path d="M400.6,351.8l0,7.7" class="g3_1" />
<path d="M400.6,363.9l0,7.7" class="g3_1" />
<path d="M400.6,376l0,7.7" class="g3_1" />
<path d="M400.6,388.1l0,7.6" class="g3_1" />
<path d="M400.6,400.1l0,7.7" class="g3_1" />
<path d="M400.6,412.2l0,7.7" class="g3_1" />
<path d="M400.6,424.3l0,7.7" class="g3_1" />
<path d="M400.6,436.4l0,7.7" class="g3_1" />
<path d="M400.6,448.5l0,2.2" class="g3_1" />
<path d="M395.1,153.8c0,-5.5,0,-5.5,3.9,-5.5l2.2,0c3.8,0,3.8,0,3.8,5.5l0,97.9c0,5.5,0,5.5,-3.8,5.5l-2.2,0c-3.9,0,-3.9,0,-3.9,-5.5l0,-97.9Z" class="g4_1" />
<path d="M395.1,153.8c0,-5.5,0,-5.5,3.9,-5.5l2.2,0c3.8,0,3.8,0,3.8,5.5l0,97.9c0,5.5,0,5.5,-3.8,5.5l-2.2,0c-3.9,0,-3.9,0,-3.9,-5.5l0,-97.9" class="g3_1" />
<path d="M395.1,314.4c0,-5.5,0,-5.5,3.9,-5.5l2.2,0c3.8,0,3.8,0,3.8,5.5l0,63.8c0,5.5,0,5.5,-3.8,5.5l-2.2,0c-3.9,0,-3.9,0,-3.9,-5.5l0,-63.8Z" class="g4_1" />
<path d="M395.1,314.4c0,-5.5,0,-5.5,3.9,-5.5l2.2,0c3.8,0,3.8,0,3.8,5.5l0,63.8c0,5.5,0,5.5,-3.8,5.5l-2.2,0c-3.9,0,-3.9,0,-3.9,-5.5l0,-63.8" class="g3_1" />
<path d="M395.1,402.9c0,-6.1,0,-6.1,3.9,-6.1l2.2,0c3.8,0,3.8,0,3.8,6.1l0,-2.2c0,6,0,6,-3.8,6l-2.2,0c-3.9,0,-3.9,0,-3.9,-6l0,2.2Z" class="g4_1" />
<path d="M395.1,402.9c0,-6.1,0,-6.1,3.9,-6.1l2.2,0c3.8,0,3.8,0,3.8,6.1l0,-2.2c0,6,0,6,-3.8,6l-2.2,0c-3.9,0,-3.9,0,-3.9,-6l0,2.2" class="g3_1" />
<path d="M400.6,370.5c0,-6.6,0,-6.6,3.9,-6.6l2.1,0c3.9,0,3.9,0,3.9,6.6l0,-2.2c0,6.6,0,6.6,-3.9,6.6l-2.1,0c-3.9,0,-3.9,0,-3.9,-6.6l0,2.2Z" class="g4_1" />
<path d="M400.6,370.5c0,-6.6,0,-6.6,3.9,-6.6l2.1,0c3.9,0,3.9,0,3.9,6.6l0,-2.2c0,6.6,0,6.6,-3.9,6.6l-2.1,0c-3.9,0,-3.9,0,-3.9,-6.6l0,2.2" class="g3_1" />
<path d="M142.7,186.8l0,33" class="g68_1" />
<path d="M142.7,219.8l340.2,0" class="g68_1" />
<path d="M482.9,219.8l0,-33" class="g68_1" />
<path d="M482.9,186.8l-340.2,0" class="g68_1" />
<path d="M142.7,186.8l0,33" class="g3_1" />
<path d="M142.7,219.8l340.2,0" class="g3_1" />
<path d="M482.9,219.8l0,-33" class="g3_1" />
<path d="M482.9,186.8l-340.2,0" class="g3_1" />
<path d="M142.7,186.8l0,20.9l172.3,0l14.3,-15.4l0,-5.5l-186.6,0" class="g69_1" />
<path d="M142.7,186.8l0,20.9l172.3,0l14.3,-15.4l0,-5.5l-186.6,0Z" class="g3_1" />
<text 
x="148" 
y="199" 
dx="0,0.5,-0.3,-0.4,0.2,0.9,0.5,-0.4,0.5,-0.4,0.5,1,0.5,0.5,0.2,0.7,1,0.5,0.5,0.9,1,1,1,0.5,0.5,-0.4,-0.3,0.4" 
class="s2_1"
>alt Reference MockSuggestion</text>

<path d="M153.7,274.8l0,99" class="g68_1" />
<path d="M153.7,373.8l340.2,0" class="g68_1" />
<path d="M493.9,373.8l0,-99" class="g68_1" />
<path d="M493.9,274.8l-340.2,0" class="g68_1" />
<path d="M153.7,274.8l0,99" class="g3_1" />
<path d="M153.7,373.8l340.2,0" class="g3_1" />
<path d="M493.9,373.8l0,-99" class="g3_1" />
<path d="M493.9,274.8l-340.2,0" class="g3_1" />
<path d="M153.7,274.8l0,20.9l158,0L326,280.3l0,-5.5l-172.3,0" class="g69_1" />
<path d="M153.7,274.8l0,20.9l158,0L326,280.3l0,-5.5l-172.3,0Z" class="g3_1" />
<text 
x="159" 
y="287" 
dx="0,1,0.2,0.2,0.8,-0.3,-0.4,0.2,0.9,1,1,1,0.5,0.5,-0.4,-0.3,1,1,0.2,-0.3,0.5,0.2,0.9,-0.4,0.5,-0.3,0.5,-0.4,-0.3,0.5" 
class="s2_1"
>alt if Suggestion is Staisfied</text>

<path d="M170.1,148.3l225,0" class="g3_1" />
<path d="M382,143.9l0,4.4l0,4.4l13.1,-4.4L382,143.9" class="g70_1" />
<path d="M395.1,241.8l-219.5,0" class="g3_1" />
<path d="M188.8,237.4l0,4.4l0,4.4l-13.2,-4.4l13.2,-4.4" class="g70_1" />
<path d="M170.1,308.9l225,0" class="g3_1" />
<path d="M382,304.5l0,4.4l0,4.4l13.1,-4.4L382,304.5" class="g70_1" />
<path d="M406.1,347.4l43.9,0" class="g3_1" />
<path d="M450,347.4l0,16.5" class="g3_1" />
<path d="M450,363.9l-38.4,0" class="g3_1" />
<path d="M424.8,359.5l0,4.4l0,4.4l-13.2,-4.4l13.2,-4.4" class="g70_1" />
<path d="M170.1,396.8l225,0" class="g3_1" />
<path d="M382,392.4l0,4.4l0,4.4l13.1,-4.4L382,392.4" class="g70_1" />
<path d="M241.5,132.9l84.5,0l0,12.1l-84.5,0l0,-12.1Z" class="g71_1" />
<text 
x="241" 
y="142" 
dx="0,1.5,1,1,0.5,0.2,0.9,0.5,0.7,0.5,0.5,0.5,-0.4" 
class="s1_1"
>Send Demand()</text>

<path d="M454.4,349.6l204.1,0l0,12.1l-204.1,0l0,-12.1Z" class="g71_1" />
<text 
x="454" 
y="359" 
dx="0,1.4,1,1,1,0.2,1,1.4,1,1.3,0.5,0.5,0.5,0.5,0.9,-0.3,0.5,-0.3,0.5,0.5,-0.4,0.5,-0.3,0.5,0.5,-0.3,0.5,0.2,-0.3,-0.2,0.5,-0.2,0.5,0.5,0.5" 
class="s1_1"
>UpdateDemandeStatus(stauts=finishe)</text>

<path d="M232.7,293.5l104.3,0l0,12.1l-104.3,0l0,-12.1Z" class="g71_1" />
<text 
x="232" 
y="303" 
dx="0,1.5,1.1,1.1,1,1,-0.3,0.9,0.5,0.5,0.5,0.5,0.5,-0.3,-0.2,0.5,0.5,-0.4" 
class="s1_1"
>AcceptSuggestion()</text>

<path d="M239.3,226.4l96.6,0l0,12.1l-96.6,0l0,-12.1Z" class="g71_1" />
<text 
x="239" 
y="236" 
dx="0,1.5,1,1,1,1.5,1,0.5,0.5,0.5,0.5,-0.3,-0.2,0.5,0.5,-0.4" 
class="s1_1"
>SendSuggestion()</text>



<!-- Any embedded fonts defined here -->
<style type="text/css" ><![CDATA[

@font-face {
	font-family: ArialUnicode_a;
	src: url("fonts/ArialUnicode_a.woff") format("woff");
}

@font-face {
	font-family: ArialUnicode-Bold_g;
	src: url("fonts/ArialUnicode-Bold_g.woff") format("woff");
}

]]></style>

</svg>
