<?xml version="1.0" encoding="UTF-8" standalone="no"?>
<!DOCTYPE svg PUBLIC "-//W3C//DTD SVG 1.1//EN"
"http://www.w3.org/Graphics/SVG/1.1/DTD/svg11.dtd">


<!-- Page 1 -->
<svg x="0" y="0" width="881" height="1260" viewBox="0 0 881 1260" version="1.1" xmlns="http://www.w3.org/2000/svg" xmlns:xlink="http://www.w3.org/1999/xlink"
style="display: block;margin-left: auto;margin-right: auto;">
<defs>

<style type="text/css"><![CDATA[

.g1_1{
fill: #DFDFDF;
}
.g2_1{
fill: #00FFFF;
}
.g3_1{
fill: none;
stroke: #000000;
stroke-width: 1.0975593;
stroke-linecap: round;
stroke-linejoin: miter;
}
.g4_1{
fill: #00FEFE;
}
.g5_1{
fill: #00FDFD;
}
.g6_1{
fill: #00FCFC;
}
.g7_1{
fill: #00FBFB;
}
.g8_1{
fill: #00FAFB;
}
.g9_1{
fill: #00FAFA;
}
.g10_1{
fill: #00F9F9;
}
.g11_1{
fill: #00F8F8;
}
.g12_1{
fill: #00F7F7;
}
.g13_1{
fill: #00F6F7;
}
.g14_1{
fill: #00F6F6;
}
.g15_1{
fill: #00F5F5;
}
.g16_1{
fill: #00F4F4;
}
.g17_1{
fill: #00F3F3;
}
.g18_1{
fill: #00F2F3;
}
.g19_1{
fill: #00F2F2;
}
.g20_1{
fill: #00F1F1;
}
.g21_1{
fill: #00F0F0;
}
.g22_1{
fill: #00EFEF;
}
.g23_1{
fill: #00EEEF;
}
.g24_1{
fill: #00EDEE;
}
.g25_1{
fill: #00EDED;
}
.g26_1{
fill: #00ECEC;
}
.g27_1{
fill: #00EBEB;
}
.g28_1{
fill: #00EAEB;
}
.g29_1{
fill: #00E9EA;
}
.g30_1{
fill: #00E9E9;
}
.g31_1{
fill: #00E8E8;
}
.g32_1{
fill: #00E7E7;
}
.g33_1{
fill: #00E6E7;
}
.g34_1{
fill: #00E5E6;
}
.g35_1{
fill: #00E5E5;
}
.g36_1{
fill: #00E4E4;
}
.g37_1{
fill: #00E3E3;
}
.g38_1{
fill: #00E2E3;
}
.g39_1{
fill: #00E1E2;
}
.g40_1{
fill: #00E0E1;
}
.g41_1{
fill: #00E0E0;
}
.g42_1{
fill: #00DFDF;
}
.g43_1{
fill: #00DEDF;
}
.g44_1{
fill: #00DDDE;
}
.g45_1{
fill: #00DCDD;
}
.g46_1{
fill: #00DCDC;
}
.g47_1{
fill: #00DBDB;
}
.g48_1{
fill: #00DADB;
}
.g49_1{
fill: #00D9DA;
}
.g50_1{
fill: #00D8D9;
}
.g51_1{
fill: #00D8D8;
}
.g52_1{
fill: #00D7D7;
}
.g53_1{
fill: #00D6D7;
}
.g54_1{
fill: #00D5D6;
}
.g55_1{
fill: #00D4D5;
}
.g56_1{
fill: #00D3D4;
}
.g57_1{
fill: #00D3D3;
}
.g58_1{
fill: #00D2D3;
}
.g59_1{
fill: #00D1D2;
}
.g60_1{
fill: #00D0D1;
}
.g61_1{
fill: #00CFD0;
}
.g62_1{
fill: #00CFCF;
}
.g63_1{
fill: #00CECF;
}
.g64_1{
fill: #00CDCE;
}
.g65_1{
fill: #00CCCD;
}
.g66_1{
fill: #00CBCC;
}
.g67_1{
fill: none;
stroke: #C0C0C0;
stroke-width: 2.1951187;
stroke-linecap: round;
stroke-linejoin: miter;
}
.g68_1{
fill: #FCF2E3;
stroke: #000000;
stroke-width: 1.0975593;
stroke-linecap: round;
stroke-linejoin: miter;
}
.g69_1{
fill: #E3FBEB;
stroke: #000000;
stroke-width: 1.0975593;
stroke-linecap: round;
stroke-linejoin: miter;
}
.g70_1{
fill: #C0D8C8;
stroke: #000000;
stroke-width: 1.0975593;
stroke-linecap: round;
stroke-linejoin: miter;
}
.g71_1{
stroke: #000000;
stroke-width: 1.0975593;
stroke-linecap: round;
stroke-linejoin: miter;
}
.g72_1{
fill: #FFFFFF;
}

.s1_1{
font-size: 11.00px;
font-family: ArialUnicode_a;
fill: #000000;
}
.s2_1{
font-size: 11.00px;
font-family: ArialUnicode-Bold_g;
fill: #000000;
}
.s3_1{
font-size: 11.00px;
font-family: SegoeUIUnicode_m;
fill: #000000;
}

]]></style>

</defs>
<path d="M0,0
L0,1260
L881,1260
L881,0 Z " 
fill="#FFFFFF" stroke="none" />
<path d="M124,63.6c0,-5.5,0,-5.5,5.5,-5.5l86.7,0c5.5,0,5.5,0,5.5,5.5l0,42.9c0,5.5,0,5.5,-5.5,5.5l-86.7,0c-5.5,0,-5.5,0,-5.5,-5.5l0,-42.9Z" class="g1_1" />
<path d="M120.7,60.3c0,-5.5,0,-5.5,5.5,-5.5l86.7,0c5.5,0,5.5,0,5.5,5.5l0,42.9c0,5.5,0,5.5,-5.5,5.5l-86.7,0c-5.5,0,-5.5,0,-5.5,-5.5l0,-42.9Z" class="g2_1" />
<path d="M120.7,60.3c0,-5.5,0,-5.5,5.5,-5.5l86.7,0c5.5,0,5.5,0,5.5,5.5l0,42.9c0,5.5,0,5.5,-5.5,5.5l-86.7,0c-5.5,0,-5.5,0,-5.5,-5.5l0,-42.9" class="g3_1" />
<path d="M120.7,60.3c0,-5.5,0,-5.5,5.5,-5.5l86.7,0c5.5,0,5.5,0,5.5,5.5l0,42.9c0,5.5,0,5.5,-5.5,5.5l-86.7,0c-5.5,0,-5.5,0,-5.5,-5.5l0,-42.9" class="g3_1" />
<path d="M0,-0.1l-1,0l0,-1.1l1,0l0,1.1Z" class="g2_1" />
<path d="M0,-0.1l-1,0l0,-1.1l1,0l0,1.1Z" class="g4_1" />
<path d="M0,-0.1l-1,0l0,-1.1l1,0l0,1.1Z" class="g5_1" />
<path d="M0,-0.1l-1,0l0,-1.1l1,0l0,1.1Z" class="g6_1" />
<path d="M0,-0.1l-1,0l0,-1.1l1,0l0,1.1Z" class="g7_1" />
<path d="M0,-0.1l-1,0l0,-1.1l1,0l0,1.1Z" class="g8_1" />
<path d="M0,-0.1l-1,0l0,-1.1l1,0l0,1.1Z" class="g9_1" />
<path d="M0,-0.1l-1,0l0,-1.1l1,0l0,1.1Z" class="g9_1" />
<path d="M0,-0.1l-1,0l0,-1.1l1,0l0,1.1Z" class="g10_1" />
<path d="M0,-0.1l-1,0l0,-1.1l1,0l0,1.1Z" class="g11_1" />
<path d="M0,-0.1l-1,0l0,-1.1l1,0l0,1.1Z" class="g12_1" />
<path d="M0,-0.1l-1,0l0,-1.1l1,0l0,1.1Z" class="g13_1" />
<path d="M0,-0.1l-1,0l0,-1.1l1,0l0,1.1Z" class="g14_1" />
<path d="M0,-0.1l-1,0l0,-1.1l1,0l0,1.1Z" class="g15_1" />
<path d="M0,-0.1l-1,0l0,-1.1l1,0l0,1.1Z" class="g16_1" />
<path d="M0,-0.1l-1,0l0,-1.1l1,0l0,1.1Z" class="g17_1" />
<path d="M0,-0.1l-1,0l0,-1.1l1,0l0,1.1Z" class="g18_1" />
<path d="M0,-0.1l-1,0l0,-1.1l1,0l0,1.1Z" class="g19_1" />
<path d="M0,-0.1l-1,0l0,-1.1l1,0l0,1.1Z" class="g20_1" />
<path d="M0,-0.1l-1,0l0,-1.1l1,0l0,1.1Z" class="g21_1" />
<path d="M0,-0.1l-1,0l0,-1.1l1,0l0,1.1Z" class="g22_1" />
<path d="M0,-0.1l-1,0l0,-1.1l1,0l0,1.1Z" class="g23_1" />
<path d="M0,-0.1l-1,0l0,-1.1l1,0l0,1.1Z" class="g24_1" />
<path d="M0,-0.1l-1,0l0,-1.1l1,0l0,1.1Z" class="g25_1" />
<path d="M0,-0.1l-1,0l0,-1.1l1,0l0,1.1Z" class="g26_1" />
<path d="M0,-0.1l-1,0l0,-1.1l1,0l0,1.1Z" class="g27_1" />
<path d="M0,-0.1l-1,0l0,-1.1l1,0l0,1.1Z" class="g28_1" />
<path d="M0,-0.1l-1,0l0,-1.1l1,0l0,1.1Z" class="g29_1" />
<path d="M0,-0.1l-1,0l0,-1.1l1,0l0,1.1Z" class="g30_1" />
<path d="M0,-0.1l-1,0l0,-1.1l1,0l0,1.1Z" class="g30_1" />
<path d="M0,-0.1l-1,0l0,-1.1l1,0l0,1.1Z" class="g31_1" />
<path d="M0,-0.1l-1,0l0,-1.1l1,0l0,1.1Z" class="g32_1" />
<path d="M0,-0.1l-1,0l0,-1.1l1,0l0,1.1Z" class="g33_1" />
<path d="M0,-0.1l-1,0l0,-1.1l1,0l0,1.1Z" class="g34_1" />
<path d="M0,-0.1l-1,0l0,-1.1l1,0l0,1.1Z" class="g35_1" />
<path d="M0,-0.1l-1,0l0,-1.1l1,0l0,1.1Z" class="g36_1" />
<path d="M0,-0.1l-1,0l0,-1.1l1,0l0,1.1Z" class="g37_1" />
<path d="M0,-0.1l-1,0l0,-1.1l1,0l0,1.1Z" class="g38_1" />
<path d="M0,-0.1l-1,0l0,-1.1l1,0l0,1.1Z" class="g39_1" />
<path d="M0,-0.1l-1,0l0,-1.1l1,0l0,1.1Z" class="g40_1" />
<path d="M0,-0.1l-1,0l0,-1.1l1,0l0,1.1Z" class="g41_1" />
<path d="M0,-0.1l-1,0l0,-1.1l1,0l0,1.1Z" class="g42_1" />
<path d="M0,-0.1l-1,0l0,-1.1l1,0l0,1.1Z" class="g43_1" />
<path d="M0,-0.1l-1,0l0,-1.1l1,0l0,1.1Z" class="g44_1" />
<path d="M0,-0.1l-1,0l0,-1.1l1,0l0,1.1Z" class="g45_1" />
<path d="M0,-0.1l-1,0l0,-1.1l1,0l0,1.1Z" class="g46_1" />
<path d="M0,-0.1l-1,0l0,-1.1l1,0l0,1.1Z" class="g47_1" />
<path d="M0,-0.1l-1,0l0,-1.1l1,0l0,1.1Z" class="g48_1" />
<path d="M0,-0.1l-1,0l0,-1.1l1,0l0,1.1Z" class="g49_1" />
<path d="M0,-0.1l-1,0l0,-1.1l1,0l0,1.1Z" class="g50_1" />
<path d="M0,-0.1l-1,0l0,-1.1l1,0l0,1.1Z" class="g51_1" />
<path d="M0,-0.1l-1,0l0,-1.1l1,0l0,1.1Z" class="g52_1" />
<path d="M0,-0.1l-1,0l0,-1.1l1,0l0,1.1Z" class="g52_1" />
<path d="M0,-0.1l-1,0l0,-1.1l1,0l0,1.1Z" class="g53_1" />
<path d="M0,-0.1l-1,0l0,-1.1l1,0l0,1.1Z" class="g54_1" />
<path d="M0,-0.1l-1,0l0,-1.1l1,0l0,1.1Z" class="g55_1" />
<path d="M0,-0.1l-1,0l0,-1.1l1,0l0,1.1Z" class="g56_1" />
<path d="M0,-0.1l-1,0l0,-1.1l1,0l0,1.1Z" class="g57_1" />
<path d="M0,-0.1l-1,0l0,-1.1l1,0l0,1.1Z" class="g58_1" />
<path d="M0,-0.1l-1,0l0,-1.1l1,0l0,1.1Z" class="g59_1" />
<path d="M0,-0.1l-1,0l0,-1.1l1,0l0,1.1Z" class="g60_1" />
<path d="M0,-0.1l-1,0l0,-1.1l1,0l0,1.1Z" class="g61_1" />
<path d="M0,-0.1l-1,0l0,-1.1l1,0l0,1.1Z" class="g62_1" />
<path d="M0,-0.1l-1,0l0,-1.1l1,0l0,1.1Z" class="g63_1" />
<path d="M0,-0.1l-1,0l0,-1.1l1,0l0,1.1Z" class="g64_1" />
<path d="M0,-0.1l-1,0l0,-1.1l1,0l0,1.1Z" class="g65_1" />
<path d="M0,-0.1l-1,0l0,-1.1l1,0l0,1.1Z" class="g66_1" />
<path d="M120.7,54.8l97.7,0l0,53.9l-97.7,0l0,-53.9Z" class="g3_1" />
<text 
x="142" 
y="68" 
dx="0,0.3,1,1,1,1.1,0.2,1,0.2,1.3" 
class="s1_1"
>index.html</text>

<path d="M170.1,109.8l0,7.7" class="g3_1" />
<path d="M170.1,121.9l0,7.7" class="g3_1" />
<path d="M170.1,134l0,7.7" class="g3_1" />
<path d="M170.1,146.1l0,7.7" class="g3_1" />
<path d="M170.1,158.2l0,7.7" class="g3_1" />
<path d="M170.1,170.3l0,7.7" class="g3_1" />
<path d="M170.1,182.4l0,7.7" class="g3_1" />
<path d="M170.1,194.5l0,7.7" class="g3_1" />
<path d="M170.1,206.6l0,7.7" class="g3_1" />
<path d="M170.1,218.7l0,7.7" class="g3_1" />
<path d="M170.1,230.8l0,7.7" class="g3_1" />
<path d="M170.1,242.9l0,7.7" class="g3_1" />
<path d="M170.1,255l0,7.7" class="g3_1" />
<path d="M170.1,267.1l0,7.7" class="g3_1" />
<path d="M170.1,279.2l0,7.7" class="g3_1" />
<path d="M170.1,291.3l0,7.7" class="g3_1" />
<path d="M170.1,303.4l0,7.7" class="g3_1" />
<path d="M170.1,315.5l0,7.7" class="g3_1" />
<path d="M170.1,327.6l0,7.7" class="g3_1" />
<path d="M170.1,339.7l0,7.7" class="g3_1" />
<path d="M170.1,351.8l0,7.7" class="g3_1" />
<path d="M170.1,363.9l0,7.7" class="g3_1" />
<path d="M164.6,314.9c0,-6,0,-6,3.9,-6l2.2,0c3.8,0,3.8,0,3.8,6l0,-2.2c0,6.1,0,6.1,-3.8,6.1l-2.2,0c-3.9,0,-3.9,0,-3.9,-6.1l0,2.2Z" class="g2_1" />
<path d="M164.6,314.9c0,-6,0,-6,3.9,-6l2.2,0c3.8,0,3.8,0,3.8,6l0,-2.2c0,6.1,0,6.1,-3.8,6.1l-2.2,0c-3.9,0,-3.9,0,-3.9,-6.1l0,2.2" class="g3_1" />
<path d="M288.7,63.6c0,-5.5,0,-5.5,5.4,-5.5l86.8,0c5.4,0,5.4,0,5.4,5.5l0,42.9c0,5.5,0,5.5,-5.4,5.5l-86.8,0c-5.4,0,-5.4,0,-5.4,-5.5l0,-42.9Z" class="g1_1" />
<path d="M285.4,60.3c0,-5.5,0,-5.5,5.5,-5.5l86.7,0c5.4,0,5.4,0,5.4,5.5l0,42.9c0,5.5,0,5.5,-5.4,5.5l-86.7,0c-5.5,0,-5.5,0,-5.5,-5.5l0,-42.9Z" class="g2_1" />
<path d="M285.4,60.3c0,-5.5,0,-5.5,5.5,-5.5l86.7,0c5.4,0,5.4,0,5.4,5.5l0,42.9c0,5.5,0,5.5,-5.4,5.5l-86.7,0c-5.5,0,-5.5,0,-5.5,-5.5l0,-42.9" class="g3_1" />
<path d="M285.4,60.3c0,-5.5,0,-5.5,5.5,-5.5l86.7,0c5.4,0,5.4,0,5.4,5.5l0,42.9c0,5.5,0,5.5,-5.4,5.5l-86.7,0c-5.5,0,-5.5,0,-5.5,-5.5l0,-42.9" class="g3_1" />
<path d="M0,-0.1l-1,0l0,-1.1l1,0l0,1.1Z" class="g2_1" />
<path d="M0,-0.1l-1,0l0,-1.1l1,0l0,1.1Z" class="g4_1" />
<path d="M0,-0.1l-1,0l0,-1.1l1,0l0,1.1Z" class="g5_1" />
<path d="M0,-0.1l-1,0l0,-1.1l1,0l0,1.1Z" class="g5_1" />
<path d="M0,-0.1l-1,0l0,-1.1l1,0l0,1.1Z" class="g6_1" />
<path d="M0,-0.1l-1,0l0,-1.1l1,0l0,1.1Z" class="g7_1" />
<path d="M0,-0.1l-1,0l0,-1.1l1,0l0,1.1Z" class="g8_1" />
<path d="M0,-0.1l-1,0l0,-1.1l1,0l0,1.1Z" class="g9_1" />
<path d="M0,-0.1l-1,0l0,-1.1l1,0l0,1.1Z" class="g10_1" />
<path d="M0,-0.1l-1,0l0,-1.1l1,0l0,1.1Z" class="g11_1" />
<path d="M0,-0.1l-1,0l0,-1.1l1,0l0,1.1Z" class="g12_1" />
<path d="M0,-0.1l-1,0l0,-1.1l1,0l0,1.1Z" class="g13_1" />
<path d="M0,-0.1l-1,0l0,-1.1l1,0l0,1.1Z" class="g14_1" />
<path d="M0,-0.1l-1,0l0,-1.1l1,0l0,1.1Z" class="g15_1" />
<path d="M0,-0.1l-1,0l0,-1.1l1,0l0,1.1Z" class="g16_1" />
<path d="M0,-0.1l-1,0l0,-1.1l1,0l0,1.1Z" class="g17_1" />
<path d="M0,-0.1l-1,0l0,-1.1l1,0l0,1.1Z" class="g18_1" />
<path d="M0,-0.1l-1,0l0,-1.1l1,0l0,1.1Z" class="g19_1" />
<path d="M0,-0.1l-1,0l0,-1.1l1,0l0,1.1Z" class="g20_1" />
<path d="M0,-0.1l-1,0l0,-1.1l1,0l0,1.1Z" class="g21_1" />
<path d="M0,-0.1l-1,0l0,-1.1l1,0l0,1.1Z" class="g22_1" />
<path d="M0,-0.1l-1,0l0,-1.1l1,0l0,1.1Z" class="g23_1" />
<path d="M0,-0.1l-1,0l0,-1.1l1,0l0,1.1Z" class="g24_1" />
<path d="M0,-0.1l-1,0l0,-1.1l1,0l0,1.1Z" class="g25_1" />
<path d="M0,-0.1l-1,0l0,-1.1l1,0l0,1.1Z" class="g26_1" />
<path d="M0,-0.1l-1,0l0,-1.1l1,0l0,1.1Z" class="g27_1" />
<path d="M0,-0.1l-1,0l0,-1.1l1,0l0,1.1Z" class="g28_1" />
<path d="M0,-0.1l-1,0l0,-1.1l1,0l0,1.1Z" class="g29_1" />
<path d="M0,-0.1l-1,0l0,-1.1l1,0l0,1.1Z" class="g30_1" />
<path d="M0,-0.1l-1,0l0,-1.1l1,0l0,1.1Z" class="g31_1" />
<path d="M0,-0.1l-1,0l0,-1.1l1,0l0,1.1Z" class="g32_1" />
<path d="M0,-0.1l-1,0l0,-1.1l1,0l0,1.1Z" class="g33_1" />
<path d="M0,-0.1l-1,0l0,-1.1l1,0l0,1.1Z" class="g34_1" />
<path d="M0,-0.1l-1,0l0,-1.1l1,0l0,1.1Z" class="g35_1" />
<path d="M0,-0.1l-1,0l0,-1.1l1,0l0,1.1Z" class="g36_1" />
<path d="M0,-0.1l-1,0l0,-1.1l1,0l0,1.1Z" class="g37_1" />
<path d="M0,-0.1l-1,0l0,-1.1l1,0l0,1.1Z" class="g38_1" />
<path d="M0,-0.1l-1,0l0,-1.1l1,0l0,1.1Z" class="g39_1" />
<path d="M0,-0.1l-1,0l0,-1.1l1,0l0,1.1Z" class="g40_1" />
<path d="M0,-0.1l-1,0l0,-1.1l1,0l0,1.1Z" class="g41_1" />
<path d="M0,-0.1l-1,0l0,-1.1l1,0l0,1.1Z" class="g42_1" />
<path d="M0,-0.1l-1,0l0,-1.1l1,0l0,1.1Z" class="g43_1" />
<path d="M0,-0.1l-1,0l0,-1.1l1,0l0,1.1Z" class="g44_1" />
<path d="M0,-0.1l-1,0l0,-1.1l1,0l0,1.1Z" class="g45_1" />
<path d="M0,-0.1l-1,0l0,-1.1l1,0l0,1.1Z" class="g46_1" />
<path d="M0,-0.1l-1,0l0,-1.1l1,0l0,1.1Z" class="g47_1" />
<path d="M0,-0.1l-1,0l0,-1.1l1,0l0,1.1Z" class="g48_1" />
<path d="M0,-0.1l-1,0l0,-1.1l1,0l0,1.1Z" class="g49_1" />
<path d="M0,-0.1l-1,0l0,-1.1l1,0l0,1.1Z" class="g49_1" />
<path d="M0,-0.1l-1,0l0,-1.1l1,0l0,1.1Z" class="g50_1" />
<path d="M0,-0.1l-1,0l0,-1.1l1,0l0,1.1Z" class="g51_1" />
<path d="M0,-0.1l-1,0l0,-1.1l1,0l0,1.1Z" class="g52_1" />
<path d="M0,-0.1l-1,0l0,-1.1l1,0l0,1.1Z" class="g53_1" />
<path d="M0,-0.1l-1,0l0,-1.1l1,0l0,1.1Z" class="g54_1" />
<path d="M0,-0.1l-1,0l0,-1.1l1,0l0,1.1Z" class="g55_1" />
<path d="M0,-0.1l-1,0l0,-1.1l1,0l0,1.1Z" class="g56_1" />
<path d="M0,-0.1l-1,0l0,-1.1l1,0l0,1.1Z" class="g57_1" />
<path d="M0,-0.1l-1,0l0,-1.1l1,0l0,1.1Z" class="g58_1" />
<path d="M0,-0.1l-1,0l0,-1.1l1,0l0,1.1Z" class="g59_1" />
<path d="M0,-0.1l-1,0l0,-1.1l1,0l0,1.1Z" class="g60_1" />
<path d="M0,-0.1l-1,0l0,-1.1l1,0l0,1.1Z" class="g61_1" />
<path d="M0,-0.1l-1,0l0,-1.1l1,0l0,1.1Z" class="g62_1" />
<path d="M0,-0.1l-1,0l0,-1.1l1,0l0,1.1Z" class="g63_1" />
<path d="M0,-0.1l-1,0l0,-1.1l1,0l0,1.1Z" class="g64_1" />
<path d="M0,-0.1l-1,0l0,-1.1l1,0l0,1.1Z" class="g65_1" />
<path d="M0,-0.1l-1,0l0,-1.1l1,0l0,1.1Z" class="g66_1" />
<path d="M285.4,54.8l97.6,0l0,53.9l-97.6,0l0,-53.9Z" class="g3_1" />
<text 
x="314" 
y="68" 
dx="0,0.3,1,1,1,1.1,-0.3,-0.2" 
class="s1_1"
>index.js</text>

<path d="M334.8,109.8l0,7.7" class="g3_1" />
<path d="M334.8,121.9l0,7.7" class="g3_1" />
<path d="M334.8,134l0,7.7" class="g3_1" />
<path d="M334.8,146.1l0,7.7" class="g3_1" />
<path d="M334.8,158.2l0,7.7" class="g3_1" />
<path d="M334.8,170.3l0,7.7" class="g3_1" />
<path d="M334.8,182.4l0,7.7" class="g3_1" />
<path d="M334.8,194.5l0,7.7" class="g3_1" />
<path d="M334.8,206.6l0,7.7" class="g3_1" />
<path d="M334.8,218.7l0,7.7" class="g3_1" />
<path d="M334.8,230.8l0,7.7" class="g3_1" />
<path d="M334.8,242.9l0,7.7" class="g3_1" />
<path d="M334.8,255l0,7.7" class="g3_1" />
<path d="M334.8,267.1l0,7.7" class="g3_1" />
<path d="M334.8,279.2l0,7.7" class="g3_1" />
<path d="M334.8,291.3l0,7.7" class="g3_1" />
<path d="M334.8,303.4l0,7.7" class="g3_1" />
<path d="M334.8,315.5l0,7.7" class="g3_1" />
<path d="M334.8,327.6l0,7.7" class="g3_1" />
<path d="M334.8,339.7l0,7.7" class="g3_1" />
<path d="M334.8,351.8l0,7.7" class="g3_1" />
<path d="M334.8,363.9l0,7.7" class="g3_1" />
<path d="M329.3,275.9c0,-5.5,0,-5.5,3.8,-5.5l2.2,0c3.8,0,3.8,0,3.8,5.5l0,42.9c0,5.5,0,5.5,-3.8,5.5l-2.2,0c-3.8,0,-3.8,0,-3.8,-5.5l0,-42.9Z" class="g2_1" />
<path d="M329.3,275.9c0,-5.5,0,-5.5,3.8,-5.5l2.2,0c3.8,0,3.8,0,3.8,5.5l0,42.9c0,5.5,0,5.5,-3.8,5.5l-2.2,0c-3.8,0,-3.8,0,-3.8,-5.5l0,-42.9" class="g3_1" />
<path d="M431.3,63.6c0,-5.5,0,-5.5,5.5,-5.5l147.1,0c5.5,0,5.5,0,5.5,5.5l0,42.9c0,5.5,0,5.5,-5.5,5.5l-147.1,0c-5.5,0,-5.5,0,-5.5,-5.5l0,-42.9Z" class="g1_1" />
<path d="M428,60.3c0,-5.5,0,-5.5,5.5,-5.5l147.1,0c5.5,0,5.5,0,5.5,5.5l0,42.9c0,5.5,0,5.5,-5.5,5.5l-147.1,0c-5.5,0,-5.5,0,-5.5,-5.5l0,-42.9Z" class="g2_1" />
<path d="M428,60.3c0,-5.5,0,-5.5,5.5,-5.5l147.1,0c5.5,0,5.5,0,5.5,5.5l0,42.9c0,5.5,0,5.5,-5.5,5.5l-147.1,0c-5.5,0,-5.5,0,-5.5,-5.5l0,-42.9" class="g3_1" />
<path d="M428,60.3c0,-5.5,0,-5.5,5.5,-5.5l147.1,0c5.5,0,5.5,0,5.5,5.5l0,42.9c0,5.5,0,5.5,-5.5,5.5l-147.1,0c-5.5,0,-5.5,0,-5.5,-5.5l0,-42.9" class="g3_1" />
<path d="M0,-0.1l-1,0l0,-1.1l1,0l0,1.1Z" class="g2_1" />
<path d="M0,-0.1l-1,0l0,-1.1l1,0l0,1.1Z" class="g4_1" />
<path d="M0,-0.1l-1,0l0,-1.1l1,0l0,1.1Z" class="g5_1" />
<path d="M0,-0.1l-1,0l0,-1.1l1,0l0,1.1Z" class="g6_1" />
<path d="M0,-0.1l-1,0l0,-1.1l1,0l0,1.1Z" class="g7_1" />
<path d="M0,-0.1l-1,0l0,-1.1l1,0l0,1.1Z" class="g8_1" />
<path d="M0,-0.1l-1,0l0,-1.1l1,0l0,1.1Z" class="g9_1" />
<path d="M0,-0.1l-1,0l0,-1.1l1,0l0,1.1Z" class="g10_1" />
<path d="M0,-0.1l-1,0l0,-1.1l1,0l0,1.1Z" class="g11_1" />
<path d="M0,-0.1l-1,0l0,-1.1l1,0l0,1.1Z" class="g12_1" />
<path d="M0,-0.1l-1,0l0,-1.1l1,0l0,1.1Z" class="g13_1" />
<path d="M0,-0.1l-1,0l0,-1.1l1,0l0,1.1Z" class="g14_1" />
<path d="M0,-0.1l-1,0l0,-1.1l1,0l0,1.1Z" class="g15_1" />
<path d="M0,-0.1l-1,0l0,-1.1l1,0l0,1.1Z" class="g16_1" />
<path d="M0,-0.1l-1,0l0,-1.1l1,0l0,1.1Z" class="g17_1" />
<path d="M0,-0.1l-1,0l0,-1.1l1,0l0,1.1Z" class="g18_1" />
<path d="M0,-0.1l-1,0l0,-1.1l1,0l0,1.1Z" class="g19_1" />
<path d="M0,-0.1l-1,0l0,-1.1l1,0l0,1.1Z" class="g20_1" />
<path d="M0,-0.1l-1,0l0,-1.1l1,0l0,1.1Z" class="g21_1" />
<path d="M0,-0.1l-1,0l0,-1.1l1,0l0,1.1Z" class="g22_1" />
<path d="M0,-0.1l-1,0l0,-1.1l1,0l0,1.1Z" class="g23_1" />
<path d="M0,-0.1l-1,0l0,-1.1l1,0l0,1.1Z" class="g24_1" />
<path d="M0,-0.1l-1,0l0,-1.1l1,0l0,1.1Z" class="g25_1" />
<path d="M0,-0.1l-1,0l0,-1.1l1,0l0,1.1Z" class="g26_1" />
<path d="M0,-0.1l-1,0l0,-1.1l1,0l0,1.1Z" class="g27_1" />
<path d="M0,-0.1l-1,0l0,-1.1l1,0l0,1.1Z" class="g28_1" />
<path d="M0,-0.1l-1,0l0,-1.1l1,0l0,1.1Z" class="g29_1" />
<path d="M0,-0.1l-1,0l0,-1.1l1,0l0,1.1Z" class="g30_1" />
<path d="M0,-0.1l-1,0l0,-1.1l1,0l0,1.1Z" class="g31_1" />
<path d="M0,-0.1l-1,0l0,-1.1l1,0l0,1.1Z" class="g32_1" />
<path d="M0,-0.1l-1,0l0,-1.1l1,0l0,1.1Z" class="g33_1" />
<path d="M0,-0.1l-1,0l0,-1.1l1,0l0,1.1Z" class="g34_1" />
<path d="M0,-0.1l-1,0l0,-1.1l1,0l0,1.1Z" class="g35_1" />
<path d="M0,-0.1l-1,0l0,-1.1l1,0l0,1.1Z" class="g36_1" />
<path d="M0,-0.1l-1,0l0,-1.1l1,0l0,1.1Z" class="g37_1" />
<path d="M0,-0.1l-1,0l0,-1.1l1,0l0,1.1Z" class="g38_1" />
<path d="M0,-0.1l-1,0l0,-1.1l1,0l0,1.1Z" class="g39_1" />
<path d="M0,-0.1l-1,0l0,-1.1l1,0l0,1.1Z" class="g40_1" />
<path d="M0,-0.1l-1,0l0,-1.1l1,0l0,1.1Z" class="g41_1" />
<path d="M0,-0.1l-1,0l0,-1.1l1,0l0,1.1Z" class="g42_1" />
<path d="M0,-0.1l-1,0l0,-1.1l1,0l0,1.1Z" class="g43_1" />
<path d="M0,-0.1l-1,0l0,-1.1l1,0l0,1.1Z" class="g44_1" />
<path d="M0,-0.1l-1,0l0,-1.1l1,0l0,1.1Z" class="g45_1" />
<path d="M0,-0.1l-1,0l0,-1.1l1,0l0,1.1Z" class="g46_1" />
<path d="M0,-0.1l-1,0l0,-1.1l1,0l0,1.1Z" class="g47_1" />
<path d="M0,-0.1l-1,0l0,-1.1l1,0l0,1.1Z" class="g48_1" />
<path d="M0,-0.1l-1,0l0,-1.1l1,0l0,1.1Z" class="g49_1" />
<path d="M0,-0.1l-1,0l0,-1.1l1,0l0,1.1Z" class="g50_1" />
<path d="M0,-0.1l-1,0l0,-1.1l1,0l0,1.1Z" class="g51_1" />
<path d="M0,-0.1l-1,0l0,-1.1l1,0l0,1.1Z" class="g52_1" />
<path d="M0,-0.1l-1,0l0,-1.1l1,0l0,1.1Z" class="g53_1" />
<path d="M0,-0.1l-1,0l0,-1.1l1,0l0,1.1Z" class="g54_1" />
<path d="M0,-0.1l-1,0l0,-1.1l1,0l0,1.1Z" class="g55_1" />
<path d="M0,-0.1l-1,0l0,-1.1l1,0l0,1.1Z" class="g56_1" />
<path d="M0,-0.1l-1,0l0,-1.1l1,0l0,1.1Z" class="g57_1" />
<path d="M0,-0.1l-1,0l0,-1.1l1,0l0,1.1Z" class="g58_1" />
<path d="M0,-0.1l-1,0l0,-1.1l1,0l0,1.1Z" class="g59_1" />
<path d="M0,-0.1l-1,0l0,-1.1l1,0l0,1.1Z" class="g60_1" />
<path d="M0,-0.1l-1,0l0,-1.1l1,0l0,1.1Z" class="g61_1" />
<path d="M0,-0.1l-1,0l0,-1.1l1,0l0,1.1Z" class="g62_1" />
<path d="M0,-0.1l-1,0l0,-1.1l1,0l0,1.1Z" class="g63_1" />
<path d="M0,-0.1l-1,0l0,-1.1l1,0l0,1.1Z" class="g64_1" />
<path d="M0,-0.1l-1,0l0,-1.1l1,0l0,1.1Z" class="g65_1" />
<path d="M0,-0.1l-1,0l0,-1.1l1,0l0,1.1Z" class="g66_1" />
<path d="M428,54.8l158.1,0l0,53.9l-158.1,0l0,-53.9Z" class="g3_1" />
<text 
x="430" 
y="68" 
dx="0,1.4,1,1.3,0.5,0.5,0.5,0.5,0.9,0.5,0,-0.2,0.5,0.5,0,0,0.9,0.5,0,-0.3,0.9,0.5,-0.4,0,-0.2,0" 
class="s1_1"
>DemandeBusinessRestService</text>

<path d="M507.1,109.8l0,7.7" class="g3_1" />
<path d="M507.1,121.9l0,7.7" class="g3_1" />
<path d="M507.1,134l0,7.7" class="g3_1" />
<path d="M507.1,146.1l0,7.7" class="g3_1" />
<path d="M507.1,158.2l0,7.7" class="g3_1" />
<path d="M507.1,170.3l0,7.7" class="g3_1" />
<path d="M507.1,182.4l0,7.7" class="g3_1" />
<path d="M507.1,194.5l0,7.7" class="g3_1" />
<path d="M507.1,206.6l0,7.7" class="g3_1" />
<path d="M507.1,218.7l0,7.7" class="g3_1" />
<path d="M507.1,230.8l0,7.7" class="g3_1" />
<path d="M507.1,242.9l0,7.7" class="g3_1" />
<path d="M507.1,255l0,7.7" class="g3_1" />
<path d="M507.1,267.1l0,7.7" class="g3_1" />
<path d="M507.1,279.2l0,7.7" class="g3_1" />
<path d="M507.1,291.3l0,7.7" class="g3_1" />
<path d="M507.1,303.4l0,7.7" class="g3_1" />
<path d="M507.1,315.5l0,7.7" class="g3_1" />
<path d="M507.1,327.6l0,7.7" class="g3_1" />
<path d="M507.1,339.7l0,7.7" class="g3_1" />
<path d="M507.1,351.8l0,7.7" class="g3_1" />
<path d="M507.1,363.9l0,7.7" class="g3_1" />
<path d="M501.6,237.4c0,-5.5,0,-5.5,3.8,-5.5l2.2,0c3.9,0,3.9,0,3.9,5.5l0,81.4c0,5.5,0,5.5,-3.9,5.5l-2.2,0c-3.8,0,-3.8,0,-3.8,-5.5l0,-81.4Z" class="g2_1" />
<path d="M501.6,237.4c0,-5.5,0,-5.5,3.8,-5.5l2.2,0c3.9,0,3.9,0,3.9,5.5l0,81.4c0,5.5,0,5.5,-3.9,5.5l-2.2,0c-3.8,0,-3.8,0,-3.8,-5.5l0,-81.4" class="g3_1" />
<path d="M650.9,63.6c0,-5.5,0,-5.5,5.4,-5.5l86.7,0c5.5,0,5.5,0,5.5,5.5l0,42.9c0,5.5,0,5.5,-5.5,5.5l-86.7,0c-5.4,0,-5.4,0,-5.4,-5.5l0,-42.9Z" class="g1_1" />
<path d="M647.6,60.3c0,-5.5,0,-5.5,5.4,-5.5l86.8,0c5.4,0,5.4,0,5.4,5.5l0,42.9c0,5.5,0,5.5,-5.4,5.5l-86.8,0c-5.4,0,-5.4,0,-5.4,-5.5l0,-42.9Z" class="g2_1" />
<path d="M647.6,60.3c0,-5.5,0,-5.5,5.4,-5.5l86.8,0c5.4,0,5.4,0,5.4,5.5l0,42.9c0,5.5,0,5.5,-5.4,5.5l-86.8,0c-5.4,0,-5.4,0,-5.4,-5.5l0,-42.9" class="g3_1" />
<path d="M647.6,60.3c0,-5.5,0,-5.5,5.4,-5.5l86.8,0c5.4,0,5.4,0,5.4,5.5l0,42.9c0,5.5,0,5.5,-5.4,5.5l-86.8,0c-5.4,0,-5.4,0,-5.4,-5.5l0,-42.9" class="g3_1" />
<path d="M0,-0.1l-1,0l0,-1.1l1,0l0,1.1Z" class="g2_1" />
<path d="M0,-0.1l-1,0l0,-1.1l1,0l0,1.1Z" class="g4_1" />
<path d="M0,-0.1l-1,0l0,-1.1l1,0l0,1.1Z" class="g5_1" />
<path d="M0,-0.1l-1,0l0,-1.1l1,0l0,1.1Z" class="g6_1" />
<path d="M0,-0.1l-1,0l0,-1.1l1,0l0,1.1Z" class="g7_1" />
<path d="M0,-0.1l-1,0l0,-1.1l1,0l0,1.1Z" class="g8_1" />
<path d="M0,-0.1l-1,0l0,-1.1l1,0l0,1.1Z" class="g9_1" />
<path d="M0,-0.1l-1,0l0,-1.1l1,0l0,1.1Z" class="g10_1" />
<path d="M0,-0.1l-1,0l0,-1.1l1,0l0,1.1Z" class="g11_1" />
<path d="M0,-0.1l-1,0l0,-1.1l1,0l0,1.1Z" class="g12_1" />
<path d="M0,-0.1l-1,0l0,-1.1l1,0l0,1.1Z" class="g13_1" />
<path d="M0,-0.1l-1,0l0,-1.1l1,0l0,1.1Z" class="g14_1" />
<path d="M0,-0.1l-1,0l0,-1.1l1,0l0,1.1Z" class="g15_1" />
<path d="M0,-0.1l-1,0l0,-1.1l1,0l0,1.1Z" class="g15_1" />
<path d="M0,-0.1l-1,0l0,-1.1l1,0l0,1.1Z" class="g16_1" />
<path d="M0,-0.1l-1,0l0,-1.1l1,0l0,1.1Z" class="g17_1" />
<path d="M0,-0.1l-1,0l0,-1.1l1,0l0,1.1Z" class="g18_1" />
<path d="M0,-0.1l-1,0l0,-1.1l1,0l0,1.1Z" class="g19_1" />
<path d="M0,-0.1l-1,0l0,-1.1l1,0l0,1.1Z" class="g20_1" />
<path d="M0,-0.1l-1,0l0,-1.1l1,0l0,1.1Z" class="g21_1" />
<path d="M0,-0.1l-1,0l0,-1.1l1,0l0,1.1Z" class="g22_1" />
<path d="M0,-0.1l-1,0l0,-1.1l1,0l0,1.1Z" class="g23_1" />
<path d="M0,-0.1l-1,0l0,-1.1l1,0l0,1.1Z" class="g24_1" />
<path d="M0,-0.1l-1,0l0,-1.1l1,0l0,1.1Z" class="g25_1" />
<path d="M0,-0.1l-1,0l0,-1.1l1,0l0,1.1Z" class="g26_1" />
<path d="M0,-0.1l-1,0l0,-1.1l1,0l0,1.1Z" class="g27_1" />
<path d="M0,-0.1l-1,0l0,-1.1l1,0l0,1.1Z" class="g28_1" />
<path d="M0,-0.1l-1,0l0,-1.1l1,0l0,1.1Z" class="g29_1" />
<path d="M0,-0.1l-1,0l0,-1.1l1,0l0,1.1Z" class="g30_1" />
<path d="M0,-0.1l-1,0l0,-1.1l1,0l0,1.1Z" class="g31_1" />
<path d="M0,-0.1l-1,0l0,-1.1l1,0l0,1.1Z" class="g32_1" />
<path d="M0,-0.1l-1,0l0,-1.1l1,0l0,1.1Z" class="g33_1" />
<path d="M0,-0.1l-1,0l0,-1.1l1,0l0,1.1Z" class="g34_1" />
<path d="M0,-0.1l-1,0l0,-1.1l1,0l0,1.1Z" class="g35_1" />
<path d="M0,-0.1l-1,0l0,-1.1l1,0l0,1.1Z" class="g36_1" />
<path d="M0,-0.1l-1,0l0,-1.1l1,0l0,1.1Z" class="g36_1" />
<path d="M0,-0.1l-1,0l0,-1.1l1,0l0,1.1Z" class="g37_1" />
<path d="M0,-0.1l-1,0l0,-1.1l1,0l0,1.1Z" class="g38_1" />
<path d="M0,-0.1l-1,0l0,-1.1l1,0l0,1.1Z" class="g39_1" />
<path d="M0,-0.1l-1,0l0,-1.1l1,0l0,1.1Z" class="g40_1" />
<path d="M0,-0.1l-1,0l0,-1.1l1,0l0,1.1Z" class="g41_1" />
<path d="M0,-0.1l-1,0l0,-1.1l1,0l0,1.1Z" class="g42_1" />
<path d="M0,-0.1l-1,0l0,-1.1l1,0l0,1.1Z" class="g43_1" />
<path d="M0,-0.1l-1,0l0,-1.1l1,0l0,1.1Z" class="g44_1" />
<path d="M0,-0.1l-1,0l0,-1.1l1,0l0,1.1Z" class="g45_1" />
<path d="M0,-0.1l-1,0l0,-1.1l1,0l0,1.1Z" class="g46_1" />
<path d="M0,-0.1l-1,0l0,-1.1l1,0l0,1.1Z" class="g47_1" />
<path d="M0,-0.1l-1,0l0,-1.1l1,0l0,1.1Z" class="g48_1" />
<path d="M0,-0.1l-1,0l0,-1.1l1,0l0,1.1Z" class="g49_1" />
<path d="M0,-0.1l-1,0l0,-1.1l1,0l0,1.1Z" class="g50_1" />
<path d="M0,-0.1l-1,0l0,-1.1l1,0l0,1.1Z" class="g51_1" />
<path d="M0,-0.1l-1,0l0,-1.1l1,0l0,1.1Z" class="g52_1" />
<path d="M0,-0.1l-1,0l0,-1.1l1,0l0,1.1Z" class="g53_1" />
<path d="M0,-0.1l-1,0l0,-1.1l1,0l0,1.1Z" class="g54_1" />
<path d="M0,-0.1l-1,0l0,-1.1l1,0l0,1.1Z" class="g55_1" />
<path d="M0,-0.1l-1,0l0,-1.1l1,0l0,1.1Z" class="g56_1" />
<path d="M0,-0.1l-1,0l0,-1.1l1,0l0,1.1Z" class="g57_1" />
<path d="M0,-0.1l-1,0l0,-1.1l1,0l0,1.1Z" class="g58_1" />
<path d="M0,-0.1l-1,0l0,-1.1l1,0l0,1.1Z" class="g59_1" />
<path d="M0,-0.1l-1,0l0,-1.1l1,0l0,1.1Z" class="g60_1" />
<path d="M0,-0.1l-1,0l0,-1.1l1,0l0,1.1Z" class="g61_1" />
<path d="M0,-0.1l-1,0l0,-1.1l1,0l0,1.1Z" class="g62_1" />
<path d="M0,-0.1l-1,0l0,-1.1l1,0l0,1.1Z" class="g63_1" />
<path d="M0,-0.1l-1,0l0,-1.1l1,0l0,1.1Z" class="g64_1" />
<path d="M0,-0.1l-1,0l0,-1.1l1,0l0,1.1Z" class="g65_1" />
<path d="M0,-0.1l-1,0l0,-1.1l1,0l0,1.1Z" class="g66_1" />
<path d="M647.6,54.8l97.6,0l0,53.9l-97.6,0l0,-53.9Z" class="g3_1" />
<text 
x="649" 
y="68" 
dx="0,1.4,0.5,1.3,0.5,0.5,0.5,0.5,1.5,0.5,0,-0.2,-0.1,-0.1,0" 
class="s1_1"
>DemandeBusiness</text>

<path d="M697,109.8l0,7.7" class="g3_1" />
<path d="M697,121.9l0,7.7" class="g3_1" />
<path d="M697,134l0,7.7" class="g3_1" />
<path d="M697,146.1l0,7.7" class="g3_1" />
<path d="M697,158.2l0,7.7" class="g3_1" />
<path d="M697,170.3l0,7.7" class="g3_1" />
<path d="M697,182.4l0,7.7" class="g3_1" />
<path d="M697,194.5l0,7.7" class="g3_1" />
<path d="M697,206.6l0,7.7" class="g3_1" />
<path d="M697,218.7l0,7.7" class="g3_1" />
<path d="M697,230.8l0,7.7" class="g3_1" />
<path d="M697,242.9l0,7.7" class="g3_1" />
<path d="M697,255l0,7.7" class="g3_1" />
<path d="M697,267.1l0,7.7" class="g3_1" />
<path d="M697,279.2l0,7.7" class="g3_1" />
<path d="M697,291.3l0,7.7" class="g3_1" />
<path d="M697,303.4l0,7.7" class="g3_1" />
<path d="M697,315.5l0,7.7" class="g3_1" />
<path d="M697,327.6l0,7.7" class="g3_1" />
<path d="M697,339.7l0,7.7" class="g3_1" />
<path d="M697,351.8l0,7.7" class="g3_1" />
<path d="M697,363.9l0,7.7" class="g3_1" />
<path d="M691.5,237.4c0,-5.5,0,-5.5,3.8,-5.5l2.2,0c3.8,0,3.8,0,3.8,5.5l0,81.4c0,5.5,0,5.5,-3.8,5.5l-2.2,0c-3.8,0,-3.8,0,-3.8,-5.5l0,-81.4Z" class="g2_1" />
<path d="M691.5,237.4c0,-5.5,0,-5.5,3.8,-5.5l2.2,0c3.8,0,3.8,0,3.8,5.5l0,81.4c0,5.5,0,5.5,-3.8,5.5l-2.2,0c-3.8,0,-3.8,0,-3.8,-5.5l0,-81.4" class="g3_1" />
<path d="M131.7,142.8l0,44" class="g67_1" />
<path d="M131.7,186.8l592.7,0" class="g67_1" />
<path d="M724.4,186.8l0,-44" class="g67_1" />
<path d="M724.4,142.8l-592.7,0" class="g67_1" />
<path d="M131.7,142.8l0,44" class="g3_1" />
<path d="M131.7,186.8l592.7,0" class="g3_1" />
<path d="M724.4,186.8l0,-44" class="g3_1" />
<path d="M724.4,142.8l-592.7,0" class="g3_1" />
<path d="M131.7,142.8l0,20.9l274.4,0l14.3,-15.4l0,-5.5l-288.7,0" class="g68_1" />
<path d="M131.7,142.8l0,20.9l274.4,0l14.3,-15.4l0,-5.5l-288.7,0Z" class="g3_1" />
<text 
x="137" 
y="156" 
dx="0,0.5,-0.3,-0.4,0.2,0.9,0.5,-0.4,0.5,-0.4,0.5,1,0.5,0.5,0.2,0.9,0.5,1,0.9,-0.3,0.5,1,0.9,0.5,-0.4,0.5,-0.3,-0.3,0.5,1,0.9,1,0.5,-0.3,0.5,0.5,0.5,0.9,1,1,0.4,-0.1,-0.1,-0.4,-0.3,0.4" 
class="s2_1"
>alt Reference SeqDiagDetailedAnalyseSuggestion</text>

<path d="M365.5,267.1l0,152.8l131.7,0l0,-139.6L484,267.1l-118.5,0Z" class="g1_1" />
<path d="M362.2,263.8l0,152.8l131.7,0l0,-139.6L480.7,263.8l-118.5,0" class="g69_1" />
<path d="M480.7,263.8l0,13.2l13.2,0L480.7,263.8" class="g70_1" />
<text 
x="367" 
y="290" 
dx="0,0,-0.5,0.1,0.1,-0.5,-0.2,0.1,-0.2,-0.5,0.4,0.5,0.5,0.4,0.1,0,0.1,0.4,-0.3,-0.5,-0.2,-0.4,-0.4,-0.2,-0.4,-0.2,-0.5" 
class="s3_1"
>{"id":0,"max_price":34.0,"d</text>

<text 
x="367" 
y="303" 
dx="0,0.3,0.1,-0.2,0.1,0.2,0.4,-0.5,-0.2,-0.5,0.1,0.1,-0.2,0.1,-0.4,-0.4,-0.4,-0.4,-0.4,-0.5,-0.2,-0.5,-0.4,-0.3,-0.4,-0.2" 
class="s3_1"
>ep_lon":"48.868390","dep_l</text>

<text 
x="367" 
y="316" 
dx="0,0.5,-0.4,-0.5,-0.2,-0.5,0.1,-0.2,0.1,0.1,0.1,-0.4,-0.4,-0.4,-0.5,-0.2,-0.5,-0.1,0,0,-0.2,0.1,-0.4,-0.2,-0.5,-0.2,-0.5,-0.4" 
class="s3_1"
>at":"2.417701","arr_lon":"49</text>

<text 
x="367" 
y="329" 
dx="0,-0.2,0.1,0.1,0.1,0.1,0.1,0.1,-0.5,-0.2,-0.5,0.2,-0.3,-0.2,0.1,-0.1,-0.2,0.1,-0.3,-0.3,-0.4,-0.4,-0.3,-0.5,-0.2,-0.5" 
class="s3_1"
>.035995","vehiculeType":"C</text>

<text 
x="367" 
y="342" 
dx="0,0.1,-0.4,0.5,0.1,0.1,-0.2,-0.3,-0.5,-0.2,-0.5,-0.1,0,0,-0.2,0.1,-0.1,-0.4,-0.5,-0.2,-0.5,-0.4,-0.2,-0.4,-0.4,-0.4,-0.4,-0.4,-0.4" 
class="s3_1"
>itadine","arr_lat":"2.001851"</text>

<text 
x="367" 
y="356" 
dx="0,-0.2,-0.5,0.4,0.5,0.5,-0.2,0.1,0.3,0.1,0.5,0.2,-0.5,-0.2,0.1,0.1,-0.2,-0.5,-0.1,-0.1,-0.1,-0.2,-0.4,-0.1" 
class="s3_1"
>,"max_delay":10,"max_pas</text>

<text 
x="367" 
y="369" 
dx="0,-0.3,0.3,0.4,0.1,0.3,0,-0.5,-0.2,0.1,-0.2,-0.5,0.1,0.3,0.4,-0.1,-0.2,-0.4,-0.3,-0.3,-0.4,-0.1,-0.4,-0.2" 
class="s3_1"
>senger":1,"demandeStatus</text>

<text 
x="367" 
y="382" 
dx="0,-0.5,-0.2,0.4,0.4,0.1,0.1,-0.2,-0.5,0.1,0.3,0.4,0.5,0.4,0.1,-0.3,0,-0.2,0,-0.1,-0.4,0.1,-0.4,-0.2,-0.5" 
class="s3_1"
>":null,"demandeDuration":</text>

<text 
x="367" 
y="395" 
dx="0,-0.5,0.1,0.1,-0.5,-0.2,-0.5,0.1,0.3,0.4,0.5,0.4,0.1,0.3,0.5,0.1,-0.3,-0.4,-0.1,-0.2,-0.1,-0.3,-0.5,-0.2" 
class="s3_1"
>"40","demandeDistance":"</text>

<text 
x="367" 
y="408" 
dx="0,0.1,-0.4,-0.5" 
class="s3_1"
>43"}</text>

<path d="M691.5,231.9l-178.9,0" class="g3_1" />
<path d="M525.7,227.5l0,4.4l0,4.4l-13.1,-4.4l13.1,-4.4" class="g71_1" />
<path d="M501.6,270.4l-161.4,0" class="g3_1" />
<path d="M353.4,266l0,4.4l0,4.4l-13.2,-4.4L353.4,266" class="g71_1" />
<path d="M329.3,308.9l-153.7,0" class="g3_1" />
<path d="M188.8,304.5l0,4.4l0,4.4l-13.2,-4.4l13.2,-4.4" class="g71_1" />
<path d="M180,293.5l152.6,0l0,12.1l-152.6,0l0,-12.1Z" class="g72_1" />
<text 
x="179" 
y="303" 
dx="0,0.5,1,1.1,1,1,1,1,1.1,0.2,0.3,1,1,1.3,1,1,1,-0.2,-0.1,-0.3,0.7,0.5,0.5,0.5,-0.2,-0.4" 
class="s1_1"
>"#suggestionModal".modal()</text>

<path d="M372.1,255l102,0l0,12.1l-102,0l0,-12.1Z" class="g72_1" />
<text 
x="372" 
y="264" 
dx="0,1.5,1,1,1,0.5,0,-0.3,-0.2,0.5,0.5,0.2,0,0.9,0.8,0.9,-0.4" 
class="s1_1"
>Suggestion JSON()</text>

<path d="M569.6,216.5l65.9,0l0,12.1l-65.9,0l0,-12.1Z" class="g72_1" />
<text 
x="569" 
y="226" 
dx="0,1,1,0.2,1.5,0.2,0.3,1,0.2,1,-0.3,0.5,-0.4" 
class="s1_1"
>getTripInfo()</text>



<!-- Any embedded fonts defined here -->
<style type="text/css" ><![CDATA[

@font-face {
	font-family: ArialUnicode_a;
	src: url("fonts/ArialUnicode_a.woff") format("woff");
}

@font-face {
	font-family: ArialUnicode-Bold_g;
	src: url("fonts/ArialUnicode-Bold_g.woff") format("woff");
}

@font-face {
	font-family: SegoeUIUnicode_m;
	src: url("fonts/SegoeUIUnicode_m.woff") format("woff");
}

]]></style>

</svg>
