<?xml version="1.0" encoding="UTF-8" standalone="no"?>
<!DOCTYPE svg PUBLIC "-//W3C//DTD SVG 1.1//EN"
"http://www.w3.org/Graphics/SVG/1.1/DTD/svg11.dtd">


<!-- Page 1 -->
<svg x="0" y="0" width="881" height="1260" viewBox="0 0 881 1260" version="1.1" xmlns="http://www.w3.org/2000/svg" xmlns:xlink="http://www.w3.org/1999/xlink"
style="display: block;margin-left: auto;margin-right: auto;">
<defs>

<style type="text/css"><![CDATA[

.g1_1{
fill: #DFDFDF;
}
.g2_1{
fill: #00FFFF;
}
.g3_1{
fill: none;
stroke: #000000;
stroke-width: 1.0975593;
stroke-linecap: round;
stroke-linejoin: miter;
}
.g4_1{
fill: #00FEFE;
}
.g5_1{
fill: #00FDFD;
}
.g6_1{
fill: #00FCFC;
}
.g7_1{
fill: #00FBFB;
}
.g8_1{
fill: #00FAFB;
}
.g9_1{
fill: #00FAFA;
}
.g10_1{
fill: #00F9F9;
}
.g11_1{
fill: #00F8F8;
}
.g12_1{
fill: #00F7F7;
}
.g13_1{
fill: #00F6F7;
}
.g14_1{
fill: #00F6F6;
}
.g15_1{
fill: #00F5F5;
}
.g16_1{
fill: #00F4F4;
}
.g17_1{
fill: #00F3F3;
}
.g18_1{
fill: #00F2F3;
}
.g19_1{
fill: #00F2F2;
}
.g20_1{
fill: #00F1F1;
}
.g21_1{
fill: #00F0F0;
}
.g22_1{
fill: #00EFEF;
}
.g23_1{
fill: #00EEEF;
}
.g24_1{
fill: #00EDEE;
}
.g25_1{
fill: #00EDED;
}
.g26_1{
fill: #00ECEC;
}
.g27_1{
fill: #00EBEB;
}
.g28_1{
fill: #00EAEB;
}
.g29_1{
fill: #00E9EA;
}
.g30_1{
fill: #00E9E9;
}
.g31_1{
fill: #00E8E8;
}
.g32_1{
fill: #00E7E7;
}
.g33_1{
fill: #00E6E7;
}
.g34_1{
fill: #00E5E6;
}
.g35_1{
fill: #00E5E5;
}
.g36_1{
fill: #00E4E4;
}
.g37_1{
fill: #00E3E3;
}
.g38_1{
fill: #00E2E3;
}
.g39_1{
fill: #00E1E2;
}
.g40_1{
fill: #00E0E1;
}
.g41_1{
fill: #00E0E0;
}
.g42_1{
fill: #00DFDF;
}
.g43_1{
fill: #00DEDF;
}
.g44_1{
fill: #00DDDE;
}
.g45_1{
fill: #00DCDD;
}
.g46_1{
fill: #00DCDC;
}
.g47_1{
fill: #00DBDB;
}
.g48_1{
fill: #00DADB;
}
.g49_1{
fill: #00D9DA;
}
.g50_1{
fill: #00D8D9;
}
.g51_1{
fill: #00D8D8;
}
.g52_1{
fill: #00D7D7;
}
.g53_1{
fill: #00D6D7;
}
.g54_1{
fill: #00D5D6;
}
.g55_1{
fill: #00D4D5;
}
.g56_1{
fill: #00D3D4;
}
.g57_1{
fill: #00D3D3;
}
.g58_1{
fill: #00D2D3;
}
.g59_1{
fill: #00D1D2;
}
.g60_1{
fill: #00D0D1;
}
.g61_1{
fill: #00CFD0;
}
.g62_1{
fill: #00CFCF;
}
.g63_1{
fill: #00CECF;
}
.g64_1{
fill: #00CDCE;
}
.g65_1{
fill: #00CCCD;
}
.g66_1{
fill: #00CBCC;
}
.g67_1{
fill: none;
stroke: #C0C0C0;
stroke-width: 2.1951187;
stroke-linecap: round;
stroke-linejoin: miter;
}
.g68_1{
fill: #FCF2E3;
stroke: #000000;
stroke-width: 1.0975593;
stroke-linecap: round;
stroke-linejoin: miter;
}
.g69_1{
fill: #E3FBEB;
stroke: #000000;
stroke-width: 1.0975593;
stroke-linecap: round;
stroke-linejoin: miter;
}
.g70_1{
fill: #C0D8C8;
stroke: #000000;
stroke-width: 1.0975593;
stroke-linecap: round;
stroke-linejoin: miter;
}
.g71_1{
fill: #3F7F5F;
}
.g72_1{
stroke: #000000;
stroke-width: 1.0975593;
stroke-linecap: round;
stroke-linejoin: miter;
}
.g73_1{
fill: #FFFFFF;
}

.s1_1{
font-size: 11.00px;
font-family: ArialUnicode_c;
fill: #000000;
}
.s2_1{
font-size: 11.00px;
font-family: ArialUnicode-Bold_i;
fill: #000000;
}
.s3_1{
font-size: 11.00px;
font-family: SegoeUIUnicode-Bold_o;
fill: #7F0055;
}
.s4_1{
font-size: 11.00px;
font-family: SegoeUIUnicode_u;
fill: #000000;
}
.s5_1{
font-size: 11.00px;
font-family: SegoeUIUnicode_u;
fill: #6A3E3E;
}
.s6_1{
font-size: 11.00px;
font-family: SegoeUIUnicode_u;
fill: #3F7F5F;
}

]]></style>

</defs>
<path d="M0,0
L0,1260
L881,1260
L881,0 Z " 
fill="#FFFFFF" stroke="none" />
<path d="M47.2,63.6c0,-5.5,0,-5.5,5.5,-5.5l86.7,0c5.5,0,5.5,0,5.5,5.5l0,42.9c0,5.5,0,5.5,-5.5,5.5l-86.7,0c-5.5,0,-5.5,0,-5.5,-5.5l0,-42.9Z" class="g1_1" />
<path d="M43.9,60.3c0,-5.5,0,-5.5,5.5,-5.5l86.7,0c5.5,0,5.5,0,5.5,5.5l0,42.9c0,5.5,0,5.5,-5.5,5.5l-86.7,0c-5.5,0,-5.5,0,-5.5,-5.5l0,-42.9Z" class="g2_1" />
<path d="M43.9,60.3c0,-5.5,0,-5.5,5.5,-5.5l86.7,0c5.5,0,5.5,0,5.5,5.5l0,42.9c0,5.5,0,5.5,-5.5,5.5l-86.7,0c-5.5,0,-5.5,0,-5.5,-5.5l0,-42.9" class="g3_1" />
<path d="M43.9,60.3c0,-5.5,0,-5.5,5.5,-5.5l86.7,0c5.5,0,5.5,0,5.5,5.5l0,42.9c0,5.5,0,5.5,-5.5,5.5l-86.7,0c-5.5,0,-5.5,0,-5.5,-5.5l0,-42.9" class="g3_1" />
<path d="M0,-0.1l-1,0l0,-1.1l1,0l0,1.1Z" class="g2_1" />
<path d="M0,-0.1l-1,0l0,-1.1l1,0l0,1.1Z" class="g4_1" />
<path d="M0,-0.1l-1,0l0,-1.1l1,0l0,1.1Z" class="g5_1" />
<path d="M0,-0.1l-1,0l0,-1.1l1,0l0,1.1Z" class="g6_1" />
<path d="M0,-0.1l-1,0l0,-1.1l1,0l0,1.1Z" class="g6_1" />
<path d="M0,-0.1l-1,0l0,-1.1l1,0l0,1.1Z" class="g7_1" />
<path d="M0,-0.1l-1,0l0,-1.1l1,0l0,1.1Z" class="g8_1" />
<path d="M0,-0.1l-1,0l0,-1.1l1,0l0,1.1Z" class="g9_1" />
<path d="M0,-0.1l-1,0l0,-1.1l1,0l0,1.1Z" class="g10_1" />
<path d="M0,-0.1l-1,0l0,-1.1l1,0l0,1.1Z" class="g11_1" />
<path d="M0,-0.1l-1,0l0,-1.1l1,0l0,1.1Z" class="g12_1" />
<path d="M0,-0.1l-1,0l0,-1.1l1,0l0,1.1Z" class="g13_1" />
<path d="M0,-0.1l-1,0l0,-1.1l1,0l0,1.1Z" class="g14_1" />
<path d="M0,-0.1l-1,0l0,-1.1l1,0l0,1.1Z" class="g15_1" />
<path d="M0,-0.1l-1,0l0,-1.1l1,0l0,1.1Z" class="g16_1" />
<path d="M0,-0.1l-1,0l0,-1.1l1,0l0,1.1Z" class="g17_1" />
<path d="M0,-0.1l-1,0l0,-1.1l1,0l0,1.1Z" class="g18_1" />
<path d="M0,-0.1l-1,0l0,-1.1l1,0l0,1.1Z" class="g19_1" />
<path d="M0,-0.1l-1,0l0,-1.1l1,0l0,1.1Z" class="g20_1" />
<path d="M0,-0.1l-1,0l0,-1.1l1,0l0,1.1Z" class="g21_1" />
<path d="M0,-0.1l-1,0l0,-1.1l1,0l0,1.1Z" class="g22_1" />
<path d="M0,-0.1l-1,0l0,-1.1l1,0l0,1.1Z" class="g23_1" />
<path d="M0,-0.1l-1,0l0,-1.1l1,0l0,1.1Z" class="g24_1" />
<path d="M0,-0.1l-1,0l0,-1.1l1,0l0,1.1Z" class="g25_1" />
<path d="M0,-0.1l-1,0l0,-1.1l1,0l0,1.1Z" class="g26_1" />
<path d="M0,-0.1l-1,0l0,-1.1l1,0l0,1.1Z" class="g27_1" />
<path d="M0,-0.1l-1,0l0,-1.1l1,0l0,1.1Z" class="g27_1" />
<path d="M0,-0.1l-1,0l0,-1.1l1,0l0,1.1Z" class="g28_1" />
<path d="M0,-0.1l-1,0l0,-1.1l1,0l0,1.1Z" class="g29_1" />
<path d="M0,-0.1l-1,0l0,-1.1l1,0l0,1.1Z" class="g30_1" />
<path d="M0,-0.1l-1,0l0,-1.1l1,0l0,1.1Z" class="g31_1" />
<path d="M0,-0.1l-1,0l0,-1.1l1,0l0,1.1Z" class="g32_1" />
<path d="M0,-0.1l-1,0l0,-1.1l1,0l0,1.1Z" class="g33_1" />
<path d="M0,-0.1l-1,0l0,-1.1l1,0l0,1.1Z" class="g34_1" />
<path d="M0,-0.1l-1,0l0,-1.1l1,0l0,1.1Z" class="g35_1" />
<path d="M0,-0.1l-1,0l0,-1.1l1,0l0,1.1Z" class="g36_1" />
<path d="M0,-0.1l-1,0l0,-1.1l1,0l0,1.1Z" class="g37_1" />
<path d="M0,-0.1l-1,0l0,-1.1l1,0l0,1.1Z" class="g38_1" />
<path d="M0,-0.1l-1,0l0,-1.1l1,0l0,1.1Z" class="g39_1" />
<path d="M0,-0.1l-1,0l0,-1.1l1,0l0,1.1Z" class="g40_1" />
<path d="M0,-0.1l-1,0l0,-1.1l1,0l0,1.1Z" class="g41_1" />
<path d="M0,-0.1l-1,0l0,-1.1l1,0l0,1.1Z" class="g42_1" />
<path d="M0,-0.1l-1,0l0,-1.1l1,0l0,1.1Z" class="g43_1" />
<path d="M0,-0.1l-1,0l0,-1.1l1,0l0,1.1Z" class="g44_1" />
<path d="M0,-0.1l-1,0l0,-1.1l1,0l0,1.1Z" class="g45_1" />
<path d="M0,-0.1l-1,0l0,-1.1l1,0l0,1.1Z" class="g46_1" />
<path d="M0,-0.1l-1,0l0,-1.1l1,0l0,1.1Z" class="g47_1" />
<path d="M0,-0.1l-1,0l0,-1.1l1,0l0,1.1Z" class="g48_1" />
<path d="M0,-0.1l-1,0l0,-1.1l1,0l0,1.1Z" class="g49_1" />
<path d="M0,-0.1l-1,0l0,-1.1l1,0l0,1.1Z" class="g50_1" />
<path d="M0,-0.1l-1,0l0,-1.1l1,0l0,1.1Z" class="g51_1" />
<path d="M0,-0.1l-1,0l0,-1.1l1,0l0,1.1Z" class="g52_1" />
<path d="M0,-0.1l-1,0l0,-1.1l1,0l0,1.1Z" class="g53_1" />
<path d="M0,-0.1l-1,0l0,-1.1l1,0l0,1.1Z" class="g54_1" />
<path d="M0,-0.1l-1,0l0,-1.1l1,0l0,1.1Z" class="g55_1" />
<path d="M0,-0.1l-1,0l0,-1.1l1,0l0,1.1Z" class="g56_1" />
<path d="M0,-0.1l-1,0l0,-1.1l1,0l0,1.1Z" class="g57_1" />
<path d="M0,-0.1l-1,0l0,-1.1l1,0l0,1.1Z" class="g58_1" />
<path d="M0,-0.1l-1,0l0,-1.1l1,0l0,1.1Z" class="g59_1" />
<path d="M0,-0.1l-1,0l0,-1.1l1,0l0,1.1Z" class="g60_1" />
<path d="M0,-0.1l-1,0l0,-1.1l1,0l0,1.1Z" class="g61_1" />
<path d="M0,-0.1l-1,0l0,-1.1l1,0l0,1.1Z" class="g62_1" />
<path d="M0,-0.1l-1,0l0,-1.1l1,0l0,1.1Z" class="g63_1" />
<path d="M0,-0.1l-1,0l0,-1.1l1,0l0,1.1Z" class="g64_1" />
<path d="M0,-0.1l-1,0l0,-1.1l1,0l0,1.1Z" class="g65_1" />
<path d="M0,-0.1l-1,0l0,-1.1l1,0l0,1.1Z" class="g66_1" />
<path d="M43.9,54.8l97.7,0l0,53.9l-97.7,0l0,-53.9Z" class="g3_1" />
<text 
x="65" 
y="68" 
dx="0,0.3,1,1,1,1.1,0.2,1,0.2,1.3" 
class="s1_1"
>index.html</text>

<path d="M93.3,109.8l0,7.7" class="g3_1" />
<path d="M93.3,121.9l0,7.7" class="g3_1" />
<path d="M93.3,134l0,7.7" class="g3_1" />
<path d="M93.3,146.1l0,7.7" class="g3_1" />
<path d="M93.3,158.2l0,7.7" class="g3_1" />
<path d="M93.3,170.3l0,7.7" class="g3_1" />
<path d="M93.3,182.4l0,7.7" class="g3_1" />
<path d="M93.3,194.5l0,7.7" class="g3_1" />
<path d="M93.3,206.6l0,7.7" class="g3_1" />
<path d="M93.3,218.7l0,7.7" class="g3_1" />
<path d="M93.3,230.8l0,7.7" class="g3_1" />
<path d="M93.3,242.9l0,7.7" class="g3_1" />
<path d="M93.3,255l0,7.7" class="g3_1" />
<path d="M93.3,267.1l0,7.7" class="g3_1" />
<path d="M93.3,279.2l0,7.7" class="g3_1" />
<path d="M93.3,291.3l0,7.7" class="g3_1" />
<path d="M93.3,303.4l0,7.7" class="g3_1" />
<path d="M93.3,315.5l0,7.7" class="g3_1" />
<path d="M93.3,327.6l0,7.7" class="g3_1" />
<path d="M93.3,339.7l0,7.7" class="g3_1" />
<path d="M93.3,351.8l0,7.7" class="g3_1" />
<path d="M93.3,363.9l0,7.7" class="g3_1" />
<path d="M93.3,376l0,7.7" class="g3_1" />
<path d="M93.3,388.1l0,7.6" class="g3_1" />
<path d="M93.3,400.1l0,7.7" class="g3_1" />
<path d="M93.3,412.2l0,7.7" class="g3_1" />
<path d="M93.3,424.3l0,7.7" class="g3_1" />
<path d="M93.3,436.4l0,7.7" class="g3_1" />
<path d="M93.3,448.5l0,7.7" class="g3_1" />
<path d="M93.3,460.6l0,7.7" class="g3_1" />
<path d="M93.3,472.7l0,7.7" class="g3_1" />
<path d="M93.3,484.8l0,7.7" class="g3_1" />
<path d="M93.3,496.9l0,7.7" class="g3_1" />
<path d="M93.3,509l0,7.7" class="g3_1" />
<path d="M93.3,521.1l0,7.7" class="g3_1" />
<path d="M93.3,533.2l0,7.7" class="g3_1" />
<path d="M93.3,545.3l0,4.4" class="g3_1" />
<path d="M87.8,214.3c0,-5.5,0,-5.5,3.8,-5.5l2.2,0c3.9,0,3.9,0,3.9,5.5l0,259.5c0,5.5,0,5.5,-3.9,5.5l-2.2,0c-3.8,0,-3.8,0,-3.8,-5.5l0,-259.5Z" class="g2_1" />
<path d="M87.8,214.3c0,-5.5,0,-5.5,3.8,-5.5l2.2,0c3.9,0,3.9,0,3.9,5.5l0,259.5c0,5.5,0,5.5,-3.9,5.5l-2.2,0c-3.8,0,-3.8,0,-3.8,-5.5l0,-259.5" class="g3_1" />
<path d="M93.3,471.1c0,-7.2,0,-7.2,3.8,-7.2l2.2,0c3.9,0,3.9,0,3.9,7.2l0,-2.2c0,7.1,0,7.1,-3.9,7.1l-2.2,0c-3.8,0,-3.8,0,-3.8,-7.1l0,2.2Z" class="g2_1" />
<path d="M93.3,471.1c0,-7.2,0,-7.2,3.8,-7.2l2.2,0c3.9,0,3.9,0,3.9,7.2l0,-2.2c0,7.1,0,7.1,-3.9,7.1l-2.2,0c-3.8,0,-3.8,0,-3.8,-7.1l0,2.2" class="g3_1" />
<path d="M189.9,63.6c0,-5.5,0,-5.5,5.5,-5.5l86.7,0c5.5,0,5.5,0,5.5,5.5l0,42.9c0,5.5,0,5.5,-5.5,5.5l-86.7,0c-5.5,0,-5.5,0,-5.5,-5.5l0,-42.9Z" class="g1_1" />
<path d="M186.6,60.3c0,-5.5,0,-5.5,5.5,-5.5l86.7,0c5.5,0,5.5,0,5.5,5.5l0,42.9c0,5.5,0,5.5,-5.5,5.5l-86.7,0c-5.5,0,-5.5,0,-5.5,-5.5l0,-42.9Z" class="g2_1" />
<path d="M186.6,60.3c0,-5.5,0,-5.5,5.5,-5.5l86.7,0c5.5,0,5.5,0,5.5,5.5l0,42.9c0,5.5,0,5.5,-5.5,5.5l-86.7,0c-5.5,0,-5.5,0,-5.5,-5.5l0,-42.9" class="g3_1" />
<path d="M186.6,60.3c0,-5.5,0,-5.5,5.5,-5.5l86.7,0c5.5,0,5.5,0,5.5,5.5l0,42.9c0,5.5,0,5.5,-5.5,5.5l-86.7,0c-5.5,0,-5.5,0,-5.5,-5.5l0,-42.9" class="g3_1" />
<path d="M0,-0.1l-1,0l0,-1.1l1,0l0,1.1Z" class="g2_1" />
<path d="M0,-0.1l-1,0l0,-1.1l1,0l0,1.1Z" class="g4_1" />
<path d="M0,-0.1l-1,0l0,-1.1l1,0l0,1.1Z" class="g5_1" />
<path d="M0,-0.1l-1,0l0,-1.1l1,0l0,1.1Z" class="g6_1" />
<path d="M0,-0.1l-1,0l0,-1.1l1,0l0,1.1Z" class="g7_1" />
<path d="M0,-0.1l-1,0l0,-1.1l1,0l0,1.1Z" class="g8_1" />
<path d="M0,-0.1l-1,0l0,-1.1l1,0l0,1.1Z" class="g9_1" />
<path d="M0,-0.1l-1,0l0,-1.1l1,0l0,1.1Z" class="g10_1" />
<path d="M0,-0.1l-1,0l0,-1.1l1,0l0,1.1Z" class="g11_1" />
<path d="M0,-0.1l-1,0l0,-1.1l1,0l0,1.1Z" class="g12_1" />
<path d="M0,-0.1l-1,0l0,-1.1l1,0l0,1.1Z" class="g13_1" />
<path d="M0,-0.1l-1,0l0,-1.1l1,0l0,1.1Z" class="g14_1" />
<path d="M0,-0.1l-1,0l0,-1.1l1,0l0,1.1Z" class="g15_1" />
<path d="M0,-0.1l-1,0l0,-1.1l1,0l0,1.1Z" class="g16_1" />
<path d="M0,-0.1l-1,0l0,-1.1l1,0l0,1.1Z" class="g17_1" />
<path d="M0,-0.1l-1,0l0,-1.1l1,0l0,1.1Z" class="g18_1" />
<path d="M0,-0.1l-1,0l0,-1.1l1,0l0,1.1Z" class="g19_1" />
<path d="M0,-0.1l-1,0l0,-1.1l1,0l0,1.1Z" class="g20_1" />
<path d="M0,-0.1l-1,0l0,-1.1l1,0l0,1.1Z" class="g20_1" />
<path d="M0,-0.1l-1,0l0,-1.1l1,0l0,1.1Z" class="g21_1" />
<path d="M0,-0.1l-1,0l0,-1.1l1,0l0,1.1Z" class="g22_1" />
<path d="M0,-0.1l-1,0l0,-1.1l1,0l0,1.1Z" class="g23_1" />
<path d="M0,-0.1l-1,0l0,-1.1l1,0l0,1.1Z" class="g24_1" />
<path d="M0,-0.1l-1,0l0,-1.1l1,0l0,1.1Z" class="g25_1" />
<path d="M0,-0.1l-1,0l0,-1.1l1,0l0,1.1Z" class="g26_1" />
<path d="M0,-0.1l-1,0l0,-1.1l1,0l0,1.1Z" class="g27_1" />
<path d="M0,-0.1l-1,0l0,-1.1l1,0l0,1.1Z" class="g28_1" />
<path d="M0,-0.1l-1,0l0,-1.1l1,0l0,1.1Z" class="g29_1" />
<path d="M0,-0.1l-1,0l0,-1.1l1,0l0,1.1Z" class="g30_1" />
<path d="M0,-0.1l-1,0l0,-1.1l1,0l0,1.1Z" class="g31_1" />
<path d="M0,-0.1l-1,0l0,-1.1l1,0l0,1.1Z" class="g32_1" />
<path d="M0,-0.1l-1,0l0,-1.1l1,0l0,1.1Z" class="g33_1" />
<path d="M0,-0.1l-1,0l0,-1.1l1,0l0,1.1Z" class="g34_1" />
<path d="M0,-0.1l-1,0l0,-1.1l1,0l0,1.1Z" class="g35_1" />
<path d="M0,-0.1l-1,0l0,-1.1l1,0l0,1.1Z" class="g36_1" />
<path d="M0,-0.1l-1,0l0,-1.1l1,0l0,1.1Z" class="g37_1" />
<path d="M0,-0.1l-1,0l0,-1.1l1,0l0,1.1Z" class="g38_1" />
<path d="M0,-0.1l-1,0l0,-1.1l1,0l0,1.1Z" class="g39_1" />
<path d="M0,-0.1l-1,0l0,-1.1l1,0l0,1.1Z" class="g40_1" />
<path d="M0,-0.1l-1,0l0,-1.1l1,0l0,1.1Z" class="g41_1" />
<path d="M0,-0.1l-1,0l0,-1.1l1,0l0,1.1Z" class="g42_1" />
<path d="M0,-0.1l-1,0l0,-1.1l1,0l0,1.1Z" class="g43_1" />
<path d="M0,-0.1l-1,0l0,-1.1l1,0l0,1.1Z" class="g44_1" />
<path d="M0,-0.1l-1,0l0,-1.1l1,0l0,1.1Z" class="g45_1" />
<path d="M0,-0.1l-1,0l0,-1.1l1,0l0,1.1Z" class="g46_1" />
<path d="M0,-0.1l-1,0l0,-1.1l1,0l0,1.1Z" class="g47_1" />
<path d="M0,-0.1l-1,0l0,-1.1l1,0l0,1.1Z" class="g48_1" />
<path d="M0,-0.1l-1,0l0,-1.1l1,0l0,1.1Z" class="g49_1" />
<path d="M0,-0.1l-1,0l0,-1.1l1,0l0,1.1Z" class="g50_1" />
<path d="M0,-0.1l-1,0l0,-1.1l1,0l0,1.1Z" class="g51_1" />
<path d="M0,-0.1l-1,0l0,-1.1l1,0l0,1.1Z" class="g52_1" />
<path d="M0,-0.1l-1,0l0,-1.1l1,0l0,1.1Z" class="g53_1" />
<path d="M0,-0.1l-1,0l0,-1.1l1,0l0,1.1Z" class="g54_1" />
<path d="M0,-0.1l-1,0l0,-1.1l1,0l0,1.1Z" class="g55_1" />
<path d="M0,-0.1l-1,0l0,-1.1l1,0l0,1.1Z" class="g56_1" />
<path d="M0,-0.1l-1,0l0,-1.1l1,0l0,1.1Z" class="g57_1" />
<path d="M0,-0.1l-1,0l0,-1.1l1,0l0,1.1Z" class="g58_1" />
<path d="M0,-0.1l-1,0l0,-1.1l1,0l0,1.1Z" class="g59_1" />
<path d="M0,-0.1l-1,0l0,-1.1l1,0l0,1.1Z" class="g60_1" />
<path d="M0,-0.1l-1,0l0,-1.1l1,0l0,1.1Z" class="g61_1" />
<path d="M0,-0.1l-1,0l0,-1.1l1,0l0,1.1Z" class="g62_1" />
<path d="M0,-0.1l-1,0l0,-1.1l1,0l0,1.1Z" class="g63_1" />
<path d="M0,-0.1l-1,0l0,-1.1l1,0l0,1.1Z" class="g64_1" />
<path d="M0,-0.1l-1,0l0,-1.1l1,0l0,1.1Z" class="g64_1" />
<path d="M0,-0.1l-1,0l0,-1.1l1,0l0,1.1Z" class="g65_1" />
<path d="M0,-0.1l-1,0l0,-1.1l1,0l0,1.1Z" class="g66_1" />
<path d="M186.6,54.8l97.7,0l0,53.9l-97.7,0l0,-53.9Z" class="g3_1" />
<text 
x="216" 
y="68" 
dx="0,0.3,1,1,1,1.1,-0.3,-0.2" 
class="s1_1"
>index.js</text>

<path d="M236,109.8l0,7.7" class="g3_1" />
<path d="M236,121.9l0,7.7" class="g3_1" />
<path d="M236,134l0,7.7" class="g3_1" />
<path d="M236,146.1l0,7.7" class="g3_1" />
<path d="M236,158.2l0,7.7" class="g3_1" />
<path d="M236,170.3l0,7.7" class="g3_1" />
<path d="M236,182.4l0,7.7" class="g3_1" />
<path d="M236,194.5l0,7.7" class="g3_1" />
<path d="M236,206.6l0,7.7" class="g3_1" />
<path d="M236,218.7l0,7.7" class="g3_1" />
<path d="M236,230.8l0,7.7" class="g3_1" />
<path d="M236,242.9l0,7.7" class="g3_1" />
<path d="M236,255l0,7.7" class="g3_1" />
<path d="M236,267.1l0,7.7" class="g3_1" />
<path d="M236,279.2l0,7.7" class="g3_1" />
<path d="M236,291.3l0,7.7" class="g3_1" />
<path d="M236,303.4l0,7.7" class="g3_1" />
<path d="M236,315.5l0,7.7" class="g3_1" />
<path d="M236,327.6l0,7.7" class="g3_1" />
<path d="M236,339.7l0,7.7" class="g3_1" />
<path d="M236,351.8l0,7.7" class="g3_1" />
<path d="M236,363.9l0,7.7" class="g3_1" />
<path d="M236,376l0,7.7" class="g3_1" />
<path d="M236,388.1l0,7.6" class="g3_1" />
<path d="M236,400.1l0,7.7" class="g3_1" />
<path d="M236,412.2l0,7.7" class="g3_1" />
<path d="M236,424.3l0,7.7" class="g3_1" />
<path d="M236,436.4l0,7.7" class="g3_1" />
<path d="M236,448.5l0,7.7" class="g3_1" />
<path d="M236,460.6l0,7.7" class="g3_1" />
<path d="M236,472.7l0,7.7" class="g3_1" />
<path d="M236,484.8l0,7.7" class="g3_1" />
<path d="M236,496.9l0,7.7" class="g3_1" />
<path d="M236,509l0,7.7" class="g3_1" />
<path d="M236,521.1l0,7.7" class="g3_1" />
<path d="M236,533.2l0,7.7" class="g3_1" />
<path d="M236,545.3l0,4.4" class="g3_1" />
<path d="M230.5,214.3c0,-5.5,0,-5.5,3.8,-5.5l2.2,0c3.9,0,3.9,0,3.9,5.5l0,259.5c0,5.5,0,5.5,-3.9,5.5l-2.2,0c-3.8,0,-3.8,0,-3.8,-5.5l0,-259.5Z" class="g2_1" />
<path d="M230.5,214.3c0,-5.5,0,-5.5,3.8,-5.5l2.2,0c3.9,0,3.9,0,3.9,5.5l0,259.5c0,5.5,0,5.5,-3.9,5.5l-2.2,0c-3.8,0,-3.8,0,-3.8,-5.5l0,-259.5" class="g3_1" />
<path d="M236,427.1c0,-7.2,0,-7.2,3.8,-7.2l2.2,0c3.9,0,3.9,0,3.9,7.2l0,-2.2c0,7.1,0,7.1,-3.9,7.1l-2.2,0c-3.8,0,-3.8,0,-3.8,-7.1l0,2.2Z" class="g2_1" />
<path d="M236,427.1c0,-7.2,0,-7.2,3.8,-7.2l2.2,0c3.9,0,3.9,0,3.9,7.2l0,-2.2c0,7.1,0,7.1,-3.9,7.1l-2.2,0c-3.8,0,-3.8,0,-3.8,-7.1l0,2.2" class="g3_1" />
<path d="M321.6,63.6c0,-5.5,0,-5.5,5.5,-5.5l147,0c5.5,0,5.5,0,5.5,5.5l0,42.9c0,5.5,0,5.5,-5.5,5.5l-147,0c-5.5,0,-5.5,0,-5.5,-5.5l0,-42.9Z" class="g1_1" />
<path d="M318.3,60.3c0,-5.5,0,-5.5,5.5,-5.5l147.1,0c5.4,0,5.4,0,5.4,5.5l0,42.9c0,5.5,0,5.5,-5.4,5.5l-147.1,0c-5.5,0,-5.5,0,-5.5,-5.5l0,-42.9Z" class="g2_1" />
<path d="M318.3,60.3c0,-5.5,0,-5.5,5.5,-5.5l147.1,0c5.4,0,5.4,0,5.4,5.5l0,42.9c0,5.5,0,5.5,-5.4,5.5l-147.1,0c-5.5,0,-5.5,0,-5.5,-5.5l0,-42.9" class="g3_1" />
<path d="M318.3,60.3c0,-5.5,0,-5.5,5.5,-5.5l147.1,0c5.4,0,5.4,0,5.4,5.5l0,42.9c0,5.5,0,5.5,-5.4,5.5l-147.1,0c-5.5,0,-5.5,0,-5.5,-5.5l0,-42.9" class="g3_1" />
<path d="M0,-0.1l-1,0l0,-1.1l1,0l0,1.1Z" class="g2_1" />
<path d="M0,-0.1l-1,0l0,-1.1l1,0l0,1.1Z" class="g4_1" />
<path d="M0,-0.1l-1,0l0,-1.1l1,0l0,1.1Z" class="g5_1" />
<path d="M0,-0.1l-1,0l0,-1.1l1,0l0,1.1Z" class="g6_1" />
<path d="M0,-0.1l-1,0l0,-1.1l1,0l0,1.1Z" class="g7_1" />
<path d="M0,-0.1l-1,0l0,-1.1l1,0l0,1.1Z" class="g8_1" />
<path d="M0,-0.1l-1,0l0,-1.1l1,0l0,1.1Z" class="g9_1" />
<path d="M0,-0.1l-1,0l0,-1.1l1,0l0,1.1Z" class="g10_1" />
<path d="M0,-0.1l-1,0l0,-1.1l1,0l0,1.1Z" class="g11_1" />
<path d="M0,-0.1l-1,0l0,-1.1l1,0l0,1.1Z" class="g12_1" />
<path d="M0,-0.1l-1,0l0,-1.1l1,0l0,1.1Z" class="g13_1" />
<path d="M0,-0.1l-1,0l0,-1.1l1,0l0,1.1Z" class="g14_1" />
<path d="M0,-0.1l-1,0l0,-1.1l1,0l0,1.1Z" class="g15_1" />
<path d="M0,-0.1l-1,0l0,-1.1l1,0l0,1.1Z" class="g16_1" />
<path d="M0,-0.1l-1,0l0,-1.1l1,0l0,1.1Z" class="g17_1" />
<path d="M0,-0.1l-1,0l0,-1.1l1,0l0,1.1Z" class="g18_1" />
<path d="M0,-0.1l-1,0l0,-1.1l1,0l0,1.1Z" class="g19_1" />
<path d="M0,-0.1l-1,0l0,-1.1l1,0l0,1.1Z" class="g20_1" />
<path d="M0,-0.1l-1,0l0,-1.1l1,0l0,1.1Z" class="g21_1" />
<path d="M0,-0.1l-1,0l0,-1.1l1,0l0,1.1Z" class="g22_1" />
<path d="M0,-0.1l-1,0l0,-1.1l1,0l0,1.1Z" class="g23_1" />
<path d="M0,-0.1l-1,0l0,-1.1l1,0l0,1.1Z" class="g24_1" />
<path d="M0,-0.1l-1,0l0,-1.1l1,0l0,1.1Z" class="g25_1" />
<path d="M0,-0.1l-1,0l0,-1.1l1,0l0,1.1Z" class="g26_1" />
<path d="M0,-0.1l-1,0l0,-1.1l1,0l0,1.1Z" class="g27_1" />
<path d="M0,-0.1l-1,0l0,-1.1l1,0l0,1.1Z" class="g28_1" />
<path d="M0,-0.1l-1,0l0,-1.1l1,0l0,1.1Z" class="g29_1" />
<path d="M0,-0.1l-1,0l0,-1.1l1,0l0,1.1Z" class="g30_1" />
<path d="M0,-0.1l-1,0l0,-1.1l1,0l0,1.1Z" class="g31_1" />
<path d="M0,-0.1l-1,0l0,-1.1l1,0l0,1.1Z" class="g32_1" />
<path d="M0,-0.1l-1,0l0,-1.1l1,0l0,1.1Z" class="g33_1" />
<path d="M0,-0.1l-1,0l0,-1.1l1,0l0,1.1Z" class="g34_1" />
<path d="M0,-0.1l-1,0l0,-1.1l1,0l0,1.1Z" class="g35_1" />
<path d="M0,-0.1l-1,0l0,-1.1l1,0l0,1.1Z" class="g35_1" />
<path d="M0,-0.1l-1,0l0,-1.1l1,0l0,1.1Z" class="g36_1" />
<path d="M0,-0.1l-1,0l0,-1.1l1,0l0,1.1Z" class="g37_1" />
<path d="M0,-0.1l-1,0l0,-1.1l1,0l0,1.1Z" class="g38_1" />
<path d="M0,-0.1l-1,0l0,-1.1l1,0l0,1.1Z" class="g39_1" />
<path d="M0,-0.1l-1,0l0,-1.1l1,0l0,1.1Z" class="g40_1" />
<path d="M0,-0.1l-1,0l0,-1.1l1,0l0,1.1Z" class="g41_1" />
<path d="M0,-0.1l-1,0l0,-1.1l1,0l0,1.1Z" class="g42_1" />
<path d="M0,-0.1l-1,0l0,-1.1l1,0l0,1.1Z" class="g43_1" />
<path d="M0,-0.1l-1,0l0,-1.1l1,0l0,1.1Z" class="g44_1" />
<path d="M0,-0.1l-1,0l0,-1.1l1,0l0,1.1Z" class="g45_1" />
<path d="M0,-0.1l-1,0l0,-1.1l1,0l0,1.1Z" class="g46_1" />
<path d="M0,-0.1l-1,0l0,-1.1l1,0l0,1.1Z" class="g47_1" />
<path d="M0,-0.1l-1,0l0,-1.1l1,0l0,1.1Z" class="g48_1" />
<path d="M0,-0.1l-1,0l0,-1.1l1,0l0,1.1Z" class="g49_1" />
<path d="M0,-0.1l-1,0l0,-1.1l1,0l0,1.1Z" class="g50_1" />
<path d="M0,-0.1l-1,0l0,-1.1l1,0l0,1.1Z" class="g51_1" />
<path d="M0,-0.1l-1,0l0,-1.1l1,0l0,1.1Z" class="g52_1" />
<path d="M0,-0.1l-1,0l0,-1.1l1,0l0,1.1Z" class="g53_1" />
<path d="M0,-0.1l-1,0l0,-1.1l1,0l0,1.1Z" class="g54_1" />
<path d="M0,-0.1l-1,0l0,-1.1l1,0l0,1.1Z" class="g55_1" />
<path d="M0,-0.1l-1,0l0,-1.1l1,0l0,1.1Z" class="g56_1" />
<path d="M0,-0.1l-1,0l0,-1.1l1,0l0,1.1Z" class="g57_1" />
<path d="M0,-0.1l-1,0l0,-1.1l1,0l0,1.1Z" class="g58_1" />
<path d="M0,-0.1l-1,0l0,-1.1l1,0l0,1.1Z" class="g59_1" />
<path d="M0,-0.1l-1,0l0,-1.1l1,0l0,1.1Z" class="g60_1" />
<path d="M0,-0.1l-1,0l0,-1.1l1,0l0,1.1Z" class="g61_1" />
<path d="M0,-0.1l-1,0l0,-1.1l1,0l0,1.1Z" class="g62_1" />
<path d="M0,-0.1l-1,0l0,-1.1l1,0l0,1.1Z" class="g63_1" />
<path d="M0,-0.1l-1,0l0,-1.1l1,0l0,1.1Z" class="g64_1" />
<path d="M0,-0.1l-1,0l0,-1.1l1,0l0,1.1Z" class="g65_1" />
<path d="M0,-0.1l-1,0l0,-1.1l1,0l0,1.1Z" class="g66_1" />
<path d="M318.3,54.8l158,0l0,53.9l-158,0l0,-53.9Z" class="g3_1" />
<text 
x="320" 
y="68" 
dx="0,1.4,1,1.3,0.5,0.5,0.5,0.5,0.9,0.5,0,-0.2,0.5,0.5,0,0,0.9,0.5,0,-0.3,0.9,0.5,-0.4,0,-0.2,0" 
class="s1_1"
>DemandeBusinessRestService</text>

<path d="M397.3,109.8l0,7.7" class="g3_1" />
<path d="M397.3,121.9l0,7.7" class="g3_1" />
<path d="M397.3,134l0,7.7" class="g3_1" />
<path d="M397.3,146.1l0,7.7" class="g3_1" />
<path d="M397.3,158.2l0,7.7" class="g3_1" />
<path d="M397.3,170.3l0,7.7" class="g3_1" />
<path d="M397.3,182.4l0,7.7" class="g3_1" />
<path d="M397.3,194.5l0,7.7" class="g3_1" />
<path d="M397.3,206.6l0,7.7" class="g3_1" />
<path d="M397.3,218.7l0,7.7" class="g3_1" />
<path d="M397.3,230.8l0,7.7" class="g3_1" />
<path d="M397.3,242.9l0,7.7" class="g3_1" />
<path d="M397.3,255l0,7.7" class="g3_1" />
<path d="M397.3,267.1l0,7.7" class="g3_1" />
<path d="M397.3,279.2l0,7.7" class="g3_1" />
<path d="M397.3,291.3l0,7.7" class="g3_1" />
<path d="M397.3,303.4l0,7.7" class="g3_1" />
<path d="M397.3,315.5l0,7.7" class="g3_1" />
<path d="M397.3,327.6l0,7.7" class="g3_1" />
<path d="M397.3,339.7l0,7.7" class="g3_1" />
<path d="M397.3,351.8l0,7.7" class="g3_1" />
<path d="M397.3,363.9l0,7.7" class="g3_1" />
<path d="M397.3,376l0,7.7" class="g3_1" />
<path d="M397.3,388.1l0,7.6" class="g3_1" />
<path d="M397.3,400.1l0,7.7" class="g3_1" />
<path d="M397.3,412.2l0,7.7" class="g3_1" />
<path d="M397.3,424.3l0,7.7" class="g3_1" />
<path d="M397.3,436.4l0,7.7" class="g3_1" />
<path d="M397.3,448.5l0,7.7" class="g3_1" />
<path d="M397.3,460.6l0,7.7" class="g3_1" />
<path d="M397.3,472.7l0,7.7" class="g3_1" />
<path d="M397.3,484.8l0,7.7" class="g3_1" />
<path d="M397.3,496.9l0,7.7" class="g3_1" />
<path d="M397.3,509l0,7.7" class="g3_1" />
<path d="M397.3,521.1l0,7.7" class="g3_1" />
<path d="M397.3,533.2l0,7.7" class="g3_1" />
<path d="M397.3,545.3l0,4.4" class="g3_1" />
<path d="M391.8,252.8c0,-5.5,0,-5.5,3.9,-5.5l2.2,0c3.8,0,3.8,0,3.8,5.5l0,177c0,5.5,0,5.5,-3.8,5.5l-2.2,0c-3.9,0,-3.9,0,-3.9,-5.5l0,-177Z" class="g2_1" />
<path d="M391.8,252.8c0,-5.5,0,-5.5,3.9,-5.5l2.2,0c3.8,0,3.8,0,3.8,5.5l0,177c0,5.5,0,5.5,-3.8,5.5l-2.2,0c-3.9,0,-3.9,0,-3.9,-5.5l0,-177" class="g3_1" />
<path d="M397.3,388.6c0,-7.1,0,-7.1,3.9,-7.1l2.2,0c3.8,0,3.8,0,3.8,7.1l0,-2.2c0,7.1,0,7.1,-3.8,7.1l-2.2,0c-3.9,0,-3.9,0,-3.9,-7.1l0,2.2Z" class="g2_1" />
<path d="M397.3,388.6c0,-7.1,0,-7.1,3.9,-7.1l2.2,0c3.8,0,3.8,0,3.8,7.1l0,-2.2c0,7.1,0,7.1,-3.8,7.1l-2.2,0c-3.9,0,-3.9,0,-3.9,-7.1l0,2.2" class="g3_1" />
<path d="M508.2,63.6c0,-5.5,0,-5.5,5.5,-5.5l119.6,0c5.5,0,5.5,0,5.5,5.5l0,42.9c0,5.5,0,5.5,-5.5,5.5l-119.6,0c-5.5,0,-5.5,0,-5.5,-5.5l0,-42.9Z" class="g1_1" />
<path d="M504.9,60.3c0,-5.5,0,-5.5,5.5,-5.5l119.6,0c5.5,0,5.5,0,5.5,5.5l0,42.9c0,5.5,0,5.5,-5.5,5.5l-119.6,0c-5.5,0,-5.5,0,-5.5,-5.5l0,-42.9Z" class="g2_1" />
<path d="M504.9,60.3c0,-5.5,0,-5.5,5.5,-5.5l119.6,0c5.5,0,5.5,0,5.5,5.5l0,42.9c0,5.5,0,5.5,-5.5,5.5l-119.6,0c-5.5,0,-5.5,0,-5.5,-5.5l0,-42.9" class="g3_1" />
<path d="M504.9,60.3c0,-5.5,0,-5.5,5.5,-5.5l119.6,0c5.5,0,5.5,0,5.5,5.5l0,42.9c0,5.5,0,5.5,-5.5,5.5l-119.6,0c-5.5,0,-5.5,0,-5.5,-5.5l0,-42.9" class="g3_1" />
<path d="M0,-0.1l-1,0l0,-1.1l1,0l0,1.1Z" class="g2_1" />
<path d="M0,-0.1l-1,0l0,-1.1l1,0l0,1.1Z" class="g4_1" />
<path d="M0,-0.1l-1,0l0,-1.1l1,0l0,1.1Z" class="g5_1" />
<path d="M0,-0.1l-1,0l0,-1.1l1,0l0,1.1Z" class="g6_1" />
<path d="M0,-0.1l-1,0l0,-1.1l1,0l0,1.1Z" class="g7_1" />
<path d="M0,-0.1l-1,0l0,-1.1l1,0l0,1.1Z" class="g8_1" />
<path d="M0,-0.1l-1,0l0,-1.1l1,0l0,1.1Z" class="g9_1" />
<path d="M0,-0.1l-1,0l0,-1.1l1,0l0,1.1Z" class="g10_1" />
<path d="M0,-0.1l-1,0l0,-1.1l1,0l0,1.1Z" class="g11_1" />
<path d="M0,-0.1l-1,0l0,-1.1l1,0l0,1.1Z" class="g12_1" />
<path d="M0,-0.1l-1,0l0,-1.1l1,0l0,1.1Z" class="g13_1" />
<path d="M0,-0.1l-1,0l0,-1.1l1,0l0,1.1Z" class="g13_1" />
<path d="M0,-0.1l-1,0l0,-1.1l1,0l0,1.1Z" class="g14_1" />
<path d="M0,-0.1l-1,0l0,-1.1l1,0l0,1.1Z" class="g15_1" />
<path d="M0,-0.1l-1,0l0,-1.1l1,0l0,1.1Z" class="g16_1" />
<path d="M0,-0.1l-1,0l0,-1.1l1,0l0,1.1Z" class="g17_1" />
<path d="M0,-0.1l-1,0l0,-1.1l1,0l0,1.1Z" class="g18_1" />
<path d="M0,-0.1l-1,0l0,-1.1l1,0l0,1.1Z" class="g19_1" />
<path d="M0,-0.1l-1,0l0,-1.1l1,0l0,1.1Z" class="g20_1" />
<path d="M0,-0.1l-1,0l0,-1.1l1,0l0,1.1Z" class="g21_1" />
<path d="M0,-0.1l-1,0l0,-1.1l1,0l0,1.1Z" class="g22_1" />
<path d="M0,-0.1l-1,0l0,-1.1l1,0l0,1.1Z" class="g23_1" />
<path d="M0,-0.1l-1,0l0,-1.1l1,0l0,1.1Z" class="g24_1" />
<path d="M0,-0.1l-1,0l0,-1.1l1,0l0,1.1Z" class="g25_1" />
<path d="M0,-0.1l-1,0l0,-1.1l1,0l0,1.1Z" class="g26_1" />
<path d="M0,-0.1l-1,0l0,-1.1l1,0l0,1.1Z" class="g27_1" />
<path d="M0,-0.1l-1,0l0,-1.1l1,0l0,1.1Z" class="g28_1" />
<path d="M0,-0.1l-1,0l0,-1.1l1,0l0,1.1Z" class="g29_1" />
<path d="M0,-0.1l-1,0l0,-1.1l1,0l0,1.1Z" class="g29_1" />
<path d="M0,-0.1l-1,0l0,-1.1l1,0l0,1.1Z" class="g30_1" />
<path d="M0,-0.1l-1,0l0,-1.1l1,0l0,1.1Z" class="g31_1" />
<path d="M0,-0.1l-1,0l0,-1.1l1,0l0,1.1Z" class="g32_1" />
<path d="M0,-0.1l-1,0l0,-1.1l1,0l0,1.1Z" class="g33_1" />
<path d="M0,-0.1l-1,0l0,-1.1l1,0l0,1.1Z" class="g34_1" />
<path d="M0,-0.1l-1,0l0,-1.1l1,0l0,1.1Z" class="g35_1" />
<path d="M0,-0.1l-1,0l0,-1.1l1,0l0,1.1Z" class="g36_1" />
<path d="M0,-0.1l-1,0l0,-1.1l1,0l0,1.1Z" class="g37_1" />
<path d="M0,-0.1l-1,0l0,-1.1l1,0l0,1.1Z" class="g38_1" />
<path d="M0,-0.1l-1,0l0,-1.1l1,0l0,1.1Z" class="g39_1" />
<path d="M0,-0.1l-1,0l0,-1.1l1,0l0,1.1Z" class="g40_1" />
<path d="M0,-0.1l-1,0l0,-1.1l1,0l0,1.1Z" class="g41_1" />
<path d="M0,-0.1l-1,0l0,-1.1l1,0l0,1.1Z" class="g42_1" />
<path d="M0,-0.1l-1,0l0,-1.1l1,0l0,1.1Z" class="g43_1" />
<path d="M0,-0.1l-1,0l0,-1.1l1,0l0,1.1Z" class="g44_1" />
<path d="M0,-0.1l-1,0l0,-1.1l1,0l0,1.1Z" class="g45_1" />
<path d="M0,-0.1l-1,0l0,-1.1l1,0l0,1.1Z" class="g46_1" />
<path d="M0,-0.1l-1,0l0,-1.1l1,0l0,1.1Z" class="g47_1" />
<path d="M0,-0.1l-1,0l0,-1.1l1,0l0,1.1Z" class="g48_1" />
<path d="M0,-0.1l-1,0l0,-1.1l1,0l0,1.1Z" class="g49_1" />
<path d="M0,-0.1l-1,0l0,-1.1l1,0l0,1.1Z" class="g50_1" />
<path d="M0,-0.1l-1,0l0,-1.1l1,0l0,1.1Z" class="g51_1" />
<path d="M0,-0.1l-1,0l0,-1.1l1,0l0,1.1Z" class="g52_1" />
<path d="M0,-0.1l-1,0l0,-1.1l1,0l0,1.1Z" class="g53_1" />
<path d="M0,-0.1l-1,0l0,-1.1l1,0l0,1.1Z" class="g54_1" />
<path d="M0,-0.1l-1,0l0,-1.1l1,0l0,1.1Z" class="g55_1" />
<path d="M0,-0.1l-1,0l0,-1.1l1,0l0,1.1Z" class="g56_1" />
<path d="M0,-0.1l-1,0l0,-1.1l1,0l0,1.1Z" class="g57_1" />
<path d="M0,-0.1l-1,0l0,-1.1l1,0l0,1.1Z" class="g58_1" />
<path d="M0,-0.1l-1,0l0,-1.1l1,0l0,1.1Z" class="g59_1" />
<path d="M0,-0.1l-1,0l0,-1.1l1,0l0,1.1Z" class="g60_1" />
<path d="M0,-0.1l-1,0l0,-1.1l1,0l0,1.1Z" class="g61_1" />
<path d="M0,-0.1l-1,0l0,-1.1l1,0l0,1.1Z" class="g62_1" />
<path d="M0,-0.1l-1,0l0,-1.1l1,0l0,1.1Z" class="g63_1" />
<path d="M0,-0.1l-1,0l0,-1.1l1,0l0,1.1Z" class="g64_1" />
<path d="M0,-0.1l-1,0l0,-1.1l1,0l0,1.1Z" class="g65_1" />
<path d="M0,-0.1l-1,0l0,-1.1l1,0l0,1.1Z" class="g66_1" />
<path d="M504.9,54.8l130.6,0l0,53.9l-130.6,0l0,-53.9Z" class="g3_1" />
<text 
x="523" 
y="68" 
dx="0,1.4,0.5,1.3,0.5,0.5,0.5,0.5,1.5,0.5,0,-0.2,-0.1,-0.1,0" 
class="s1_1"
>DemandeBusiness</text>

<path d="M570.7,109.8l0,7.7" class="g3_1" />
<path d="M570.7,121.9l0,7.7" class="g3_1" />
<path d="M570.7,134l0,7.7" class="g3_1" />
<path d="M570.7,146.1l0,7.7" class="g3_1" />
<path d="M570.7,158.2l0,7.7" class="g3_1" />
<path d="M570.7,170.3l0,7.7" class="g3_1" />
<path d="M570.7,182.4l0,7.7" class="g3_1" />
<path d="M570.7,194.5l0,7.7" class="g3_1" />
<path d="M570.7,206.6l0,7.7" class="g3_1" />
<path d="M570.7,218.7l0,7.7" class="g3_1" />
<path d="M570.7,230.8l0,7.7" class="g3_1" />
<path d="M570.7,242.9l0,7.7" class="g3_1" />
<path d="M570.7,255l0,7.7" class="g3_1" />
<path d="M570.7,267.1l0,7.7" class="g3_1" />
<path d="M570.7,279.2l0,7.7" class="g3_1" />
<path d="M570.7,291.3l0,7.7" class="g3_1" />
<path d="M570.7,303.4l0,7.7" class="g3_1" />
<path d="M570.7,315.5l0,7.7" class="g3_1" />
<path d="M570.7,327.6l0,7.7" class="g3_1" />
<path d="M570.7,339.7l0,7.7" class="g3_1" />
<path d="M570.7,351.8l0,7.7" class="g3_1" />
<path d="M570.7,363.9l0,7.7" class="g3_1" />
<path d="M570.7,376l0,7.7" class="g3_1" />
<path d="M570.7,388.1l0,7.6" class="g3_1" />
<path d="M570.7,400.1l0,7.7" class="g3_1" />
<path d="M570.7,412.2l0,7.7" class="g3_1" />
<path d="M570.7,424.3l0,7.7" class="g3_1" />
<path d="M570.7,436.4l0,7.7" class="g3_1" />
<path d="M570.7,448.5l0,7.7" class="g3_1" />
<path d="M570.7,460.6l0,7.7" class="g3_1" />
<path d="M570.7,472.7l0,7.7" class="g3_1" />
<path d="M570.7,484.8l0,7.7" class="g3_1" />
<path d="M570.7,496.9l0,7.7" class="g3_1" />
<path d="M570.7,509l0,7.7" class="g3_1" />
<path d="M570.7,521.1l0,7.7" class="g3_1" />
<path d="M570.7,533.2l0,7.7" class="g3_1" />
<path d="M570.7,545.3l0,4.4" class="g3_1" />
<path d="M565.2,291.3c0,-5.5,0,-5.5,3.9,-5.5l2.2,0c3.8,0,3.8,0,3.8,5.5l0,100c0,5.5,0,5.5,-3.8,5.5l-2.2,0c-3.9,0,-3.9,0,-3.9,-5.5l0,-100Z" class="g2_1" />
<path d="M565.2,291.3c0,-5.5,0,-5.5,3.9,-5.5l2.2,0c3.8,0,3.8,0,3.8,5.5l0,100c0,5.5,0,5.5,-3.8,5.5l-2.2,0c-3.9,0,-3.9,0,-3.9,-5.5l0,-100" class="g3_1" />
<path d="M87.8,131.8l0,44" class="g67_1" />
<path d="M87.8,175.8l603.7,0" class="g67_1" />
<path d="M691.5,175.8l0,-44" class="g67_1" />
<path d="M691.5,131.8l-603.7,0" class="g67_1" />
<path d="M87.8,131.8l0,44" class="g3_1" />
<path d="M87.8,175.8l603.7,0" class="g3_1" />
<path d="M691.5,175.8l0,-44" class="g3_1" />
<path d="M691.5,131.8l-603.7,0" class="g3_1" />
<path d="M87.8,131.8l0,20.9l172.3,0l14.3,-15.4l0,-5.5l-186.6,0" class="g68_1" />
<path d="M87.8,131.8l0,20.9l172.3,0l14.3,-15.4l0,-5.5l-186.6,0Z" class="g3_1" />
<text 
x="93" 
y="145" 
dx="0,0.5,-0.3,-0.4,0.2,0.9,0.5,-0.4,0.5,-0.4,0.5,1,0.5,0.5,0.2,0.7,1,0.5,0.5,0.9,1,1,1,0.5,0.5,-0.4,-0.3,0.4" 
class="s2_1"
>alt Reference MockSuggestion</text>

<path d="M650.9,3.1l0,1037.1l241.4,0l0,-1023.9L879.1,3.1l-228.2,0Z" class="g1_1" />
<path d="M647.6,-0.1l0,1037l241.4,0L889,13L875.9,-0.1l-228.3,0" class="g69_1" />
<path d="M875.9,-0.1l0,13.1L889,13L875.9,-0.1" class="g70_1" />
<text 
x="653" 
y="26" 
dx="0,0.2" 
class="s3_1"
>if</text>

<text 
x="660" 
y="26" 
dx="0,0.5" 
class="s4_1"
>( </text>

<text 
x="667" 
y="26" 
dx="0,-0.3,0.4,0.1,0.1,0.3,-0.3,-0.4,0.1,-0.4,-0.2" 
class="s5_1"
>suggestion </text>

<text 
x="723" 
y="26" 
dx="0,0.7,0.2" 
class="s4_1"
>== </text>

<text 
x="741" 
y="26" 
dx="0,0.5,0.5,-0.4" 
class="s3_1"
>null</text>

<text 
x="763" 
y="26" 
dx="0,0.1" 
class="s4_1"
>||</text>

<text 
x="758" 
y="39" 
dx="0" 
class="s4_1"
>(</text>

<text 
x="761" 
y="39" 
dx="0,-0.3,0.4,0.1,0.1,0.3,-0.3,-0.4,0.1,-0.4" 
class="s5_1"
>suggestion</text>

<text 
x="814" 
y="39" 
dx="0,-0.2,0.1,0.3,-0.4,0.6,-0.1,-0.1,-0.2,-0.4,0,0.1,-0.1,-0.3" 
class="s4_1"
>.getMax_price(</text>

<text 
x="653" 
y="52" 
dx="0,0.7,0.2" 
class="s4_1"
>== </text>

<text 
x="671" 
y="52" 
dx="0,0.1,0.3,1,-0.1,-0.2,-0.4" 
class="s5_1"
>demande</text>

<text 
x="717" 
y="52" 
dx="0,-0.2,0.1,0.3,-0.4,0.6,-0.1,-0.1,-0.2,-0.4,0,0.1,-0.1,-0.3,0,0,-0.3,0,0" 
class="s4_1"
>.getMax_price() &amp;&amp; </text>

<text 
x="653" 
y="65" 
dx="0,-0.3,0.4,0.1,0.1,0.3,-0.3,-0.4,0.1,-0.4" 
class="s5_1"
>suggestion</text>

<text 
x="705" 
y="65" 
dx="0,-0.2,0.1,0.3,-0.4,0.6,0.5,-0.1,-0.2,0.1,0.5,-0.3,-0.3,-0.3,-0.2,-0.4,-0.3,0,0,0,-0.3,0.2" 
class="s4_1"
>.getMax_passenger() &gt; </text>

<text 
x="653" 
y="79" 
dx="0,0.1,0.3,1,-0.1,-0.2,-0.4" 
class="s5_1"
>demande</text>

<text 
x="699" 
y="79" 
dx="0,-0.2,0.1,0.3,-0.4,0.6,0.5,-0.1,-0.2,-0.4,-0.1,-0.3,-0.3,-0.3,-0.2,-0.4,-0.3,0,0,0,0,0.3,-0.3,0.1,0.1" 
class="s4_1"
>.getMax_passenger())  || </text>

<text 
x="814" 
y="79" 
dx="0,0.1,0.1,0.1,0.1,0.3,-0.4,0,0.1" 
class="s6_1"
>//// prix</text>

<path d="M835.2,80.1l17.6,0l0,1.1l-17.6,0l0,-1.1Z" class="g71_1" />
<text 
x="856" 
y="79" 
dx="0,0.7,0.3,-0.2" 
class="s6_1"
>= , </text>

<text 
x="653" 
y="92" 
dx="0,0.1,0.3,0.2,0.1,0.5,-0.4,0.1,0.2,0.4,0.3,0.2,-0.2,-0.3,-0.4,-0.1,-0.3,-0.3,-0.3,-0.2,-0.4,-0.3,0,-0.3" 
class="s6_1"
>deviation =, passenger &gt;</text>

<text 
x="758" 
y="105" 
dx="0" 
class="s4_1"
>(</text>

<text 
x="761" 
y="105" 
dx="0,-0.3,0.4,0.1,0.1,0.3,-0.3,-0.4,0.1,-0.4" 
class="s5_1"
>suggestion</text>

<text 
x="814" 
y="105" 
dx="0,-0.2,0.1,0.3,-0.4,0.6,-0.1,-0.1,-0.2,-0.4,0,0.1,-0.1,-0.3" 
class="s4_1"
>.getMax_price(</text>

<text 
x="653" 
y="118" 
dx="0,0.7,0.2" 
class="s4_1"
>== </text>

<text 
x="671" 
y="118" 
dx="0,0.1,0.3,1,-0.1,-0.2,-0.4" 
class="s5_1"
>demande</text>

<text 
x="717" 
y="118" 
dx="0,-0.2,0.1,0.3,-0.4,0.6,0.5,-0.1,-0.2,-0.4,0,0.1,-0.1,-0.3,0,0,-0.3,0,0" 
class="s4_1"
>.getMax_price() &amp;&amp; </text>

<text 
x="653" 
y="131" 
dx="0,-0.3,0.4,0.1,0.1,0.3,-0.3,-0.4,0.1,-0.4" 
class="s5_1"
>suggestion</text>

<text 
x="705" 
y="131" 
dx="0,-0.2,0.1,0.3,-0.4,0.6,0.5,-0.1,-0.2,0.1,0.5,-0.3,-0.3,-0.3,-0.2,-0.4,-0.3,0,0,0,-0.3,0.2,0.2" 
class="s4_1"
>.getMax_passenger() == </text>

<text 
x="653" 
y="145" 
dx="0,0.1,0.3,1,-0.1,-0.2,-0.4" 
class="s5_1"
>demande</text>

<text 
x="699" 
y="145" 
dx="0,-0.2,0.1,0.3,-0.4,0.6,0.5,-0.1,-0.2,0.1,0.5,-0.3,-0.3,-0.3,-0.2,-0.4,-0.3,0,0,0,-0.3,0,0" 
class="s4_1"
>.getMax_passenger() &amp;&amp; </text>

<text 
x="653" 
y="158" 
dx="0" 
class="s4_1"
>(</text>

<text 
x="656" 
y="158" 
dx="0,-0.3,0.4,0.1,0.1,0.3,-0.3,-0.4,0.1,-0.4" 
class="s5_1"
>suggestion</text>

<text 
x="709" 
y="158" 
dx="0,-0.2,0.1,0.3,-0.4,0.6,0.5,0.5,-0.2,-0.4,-0.3,0.1,-0.1,-0.4,0,0,-0.3,0" 
class="s4_1"
>.getMax_delay() - </text>

<text 
x="653" 
y="171" 
dx="0,0.1,0.3,1,-0.1,-0.2,-0.4" 
class="s5_1"
>demande</text>

<text 
x="699" 
y="171" 
dx="0,-0.2,0.1,0.3,-0.4,0.6,0.5,0.5,-0.2,-0.4,-0.3,0.1,-0.1,-0.4,0,0,0,0.2,-0.3,-0.4,-0.4,-0.3,0,-0.3,0.1,0.1" 
class="s4_1"
>.getMax_delay())&gt; 10 ) || </text>

<text 
x="816" 
y="171" 
dx="0,0.1,0.1,0.1,0.1,0.3,-0.4,0,0.1" 
class="s6_1"
>//// prix</text>

<path d="M837.4,172.5l17.6,0l0,1.1l-17.6,0l0,-1.1Z" class="g71_1" />
<text 
x="858" 
y="171" 
dx="0,0.7,-0.2" 
class="s6_1"
>=, </text>

<text 
x="653" 
y="184" 
dx="0,0.1,0.5,-0.3,-0.3,0.3,0.4,-0.4,-0.3,0,-0.3,0.2,-0.2,-0.3,0.1,0.1,-0.3,0.1,-0.1,-0.4,0.1,-0.4" 
class="s6_1"
>passenger =, diviation</text>

<path d="M717.8,185.7l40.6,0l0,1.1l-40.6,0l0,-1.1Z" class="g71_1" />
<text 
x="761" 
y="184" 
dx="0,0.7,0.3,0.1,-0.4,-0.1,0.1,-0.2" 
class="s6_1"
>&gt; 10min </text>

<text 
x="758" 
y="197" 
dx="0" 
class="s4_1"
>(</text>

<text 
x="761" 
y="197" 
dx="0,-0.3,0.4,0.1,0.1,0.3,-0.3,-0.4,0.1,-0.4" 
class="s5_1"
>suggestion</text>

<text 
x="814" 
y="197" 
dx="0,-0.2,0.1,0.3,-0.4,0.6,-0.1,-0.1,-0.2,-0.4,0,0.1,-0.1,-0.3" 
class="s4_1"
>.getMax_price(</text>

<text 
x="653" 
y="210" 
dx="0,0.7,-0.3" 
class="s4_1"
>&gt; (</text>

<text 
x="667" 
y="210" 
dx="0,0.1,0.3,1,-0.1,-0.2,-0.4" 
class="s5_1"
>demande</text>

<text 
x="713" 
y="210" 
dx="0,-0.2,0.1,0.3,-0.4,0.6,0.5,0.5,-0.2,0.1,0,0.1,-0.1,-0.3,0,0,-0.3,-0.2,-0.3,-0.4,-0.2,-0.4,-0.4,0,-0.3,0,0" 
class="s4_1"
>.getMax_price() * 1.15) &amp;&amp; </text>

<text 
x="653" 
y="224" 
dx="0,-0.3,0.4,0.1,0.1,0.3,-0.3,-0.4,0.1,-0.4" 
class="s5_1"
>suggestion</text>

<text 
x="705" 
y="224" 
dx="0,-0.2,0.1,0.3,-0.4,0.6,0.5,-0.1,-0.2,0.1,-0.3,0.1,-0.1,-0.4,0,0,-0.3,0.2,0.2" 
class="s4_1"
>.getMax_delay() == </text>

<text 
x="653" 
y="237" 
dx="0,0.1,0.3,1,-0.1,-0.2,-0.4" 
class="s5_1"
>demande</text>

<text 
x="699" 
y="237" 
dx="0,-0.2,0.1,0.3,-0.4,0.6,0.5,-0.1,-0.2,0.1,-0.3,0.1,-0.1,-0.4,0,0,-0.3,0,0" 
class="s4_1"
>.getMax_delay() &amp;&amp; </text>

<text 
x="653" 
y="250" 
dx="0,-0.3,0.4,0.1,0.1,0.3,-0.3,-0.4,0.1,-0.4" 
class="s5_1"
>suggestion</text>

<text 
x="705" 
y="250" 
dx="0,-0.2,0.1,0.3,-0.4,0.6,0.5,-0.1,-0.2,0.1,0.5,-0.3,-0.3,-0.3,-0.2,-0.4,-0.3,0,0,0,-0.3,0.2,0.2" 
class="s4_1"
>.getMax_passenger() == </text>

<text 
x="653" 
y="263" 
dx="0,0.1,0.3,1,-0.1,-0.2,-0.4" 
class="s5_1"
>demande</text>

<text 
x="699" 
y="263" 
dx="0,-0.2,0.1,0.3,-0.4,0.6,0.5,0.5,-0.2,-0.4,-0.1,-0.3,-0.3,-0.3,-0.2,-0.4,-0.3,0,0,0,-0.3,0,-0.3,0.1,0.1" 
class="s4_1"
>.getMax_passenger() ) || </text>

<text 
x="814" 
y="263" 
dx="0,-0.4,-0.4,-0.4,-0.4,0.3,0.1,0.3,0.2,0.1,0.5,-0.4,0.1,0.2,0.4" 
class="s6_1"
>//// deviation </text>

<text 
x="653" 
y="276" 
dx="0,0.7,-0.2,0.3,0.1,0.5,-0.3,-0.3,0.3,0.4,-0.4,-0.3,0,-0.3,0.2,-0.3,-0.2,-0.3,-0.4,0,0.1" 
class="s6_1"
>=, passenger = , prix</text>

<path d="M734.3,278.1l17.5,0l0,1.1l-17.5,0l0,-1.1Z" class="g71_1" />
<text 
x="755" 
y="276" 
dx="0,0.2,-0.3,-0.4,-0.4,-0.4" 
class="s6_1"
>&gt; 115%</text>

<text 
x="758" 
y="290" 
dx="0" 
class="s4_1"
>(</text>

<text 
x="761" 
y="290" 
dx="0,-0.3,0.4,0.1,0.1,0.3,-0.3,-0.4,0.1,-0.4" 
class="s5_1"
>suggestion</text>

<text 
x="814" 
y="290" 
dx="0,-0.2,0.1,0.3,-0.4,0.6,-0.1,-0.1,-0.2,-0.4,0,0.1,-0.1,-0.3" 
class="s4_1"
>.getMax_price(</text>

<text 
x="653" 
y="303" 
dx="0,0.7" 
class="s4_1"
>&lt; </text>

<text 
x="664" 
y="303" 
dx="0,0.1,0.3,1,-0.1,-0.2,-0.4" 
class="s5_1"
>demande</text>

<text 
x="710" 
y="303" 
dx="0,-0.2,0.1,0.3,-0.4,0.6,0.5,-0.1,-0.2,-0.4,0,0.1,-0.1,-0.3,0,0,-0.3,0,0" 
class="s4_1"
>.getMax_price() &amp;&amp; </text>

<text 
x="653" 
y="316" 
dx="0,-0.3,0.4,0.1,0.1,0.3,-0.3,-0.4,0.1,-0.4" 
class="s5_1"
>suggestion</text>

<text 
x="705" 
y="316" 
dx="0,-0.2,0.1,0.3,-0.4,0.6,0.5,-0.1,-0.2,0.1,0.5,-0.3,-0.3,-0.3,-0.2,-0.4,-0.3,0,0,0,-0.3,0.2" 
class="s4_1"
>.getMax_passenger() &gt; </text>

<text 
x="653" 
y="329" 
dx="0" 
class="s4_1"
>(</text>

<text 
x="656" 
y="329" 
dx="0,0.1,0.3,1,-0.1,-0.2,-0.4" 
class="s5_1"
>demande</text>

<text 
x="702" 
y="329" 
dx="0,-0.2,0.1,0.3,-0.4,0.6,0.5,-0.1,-0.2,0.1,0.5,-0.3,-0.3,-0.3,-0.2,-0.4,-0.3,0,0,0,0.2,-0.4,0,-0.3,0,0" 
class="s4_1"
>.getMax_passenger()+1) &amp;&amp; </text>

<text 
x="653" 
y="342" 
dx="0,-0.3,0.4,0.1,0.1,0.3,-0.3,-0.4,0.1,-0.4" 
class="s5_1"
>suggestion</text>

<text 
x="705" 
y="342" 
dx="0,-0.2,0.1,0.3,-0.4,0.6,0.5,-0.1,-0.2,0.1,-0.3,0.1,-0.1,-0.4,0,0,-0.3,0.2,0.2" 
class="s4_1"
>.getMax_delay() == </text>

<text 
x="653" 
y="356" 
dx="0,0.1,0.3,1,-0.1,-0.2,-0.4" 
class="s5_1"
>demande</text>

<text 
x="699" 
y="356" 
dx="0,-0.2,0.1,0.3,-0.4,0.6,0.5,-0.1,-0.2,-0.4,-0.3,0.1,-0.1,-0.4,0,0,-0.3,0,-0.3,0.1,0.1" 
class="s4_1"
>.getMax_delay() ) || </text>

<text 
x="791" 
y="356" 
dx="0,-0.4,-0.4,-0.4,0.3,0.1,0.3,0.2,0.1,0.5,-0.4,0.1,0.2,0.4,0.3,0.2,-0.2,-0.3,-0.4,0,0.1" 
class="s6_1"
>/// deviation =, prix</text>

<path d="M868.2,357.3l17.5,0l0,1.1l-17.5,0l0,-1.1Z" class="g71_1" />
<text 
x="653" 
y="369" 
dx="0,0.7,-0.3,-0.3" 
class="s6_1"
>&lt; et</text>

<path d="M664,370.5l8.8,0l0,1.1l-8.8,0l0,-1.1Z" class="g71_1" />
<text 
x="676" 
y="369" 
dx="0,0.7,-0.4,-0.3,0.1,-0.1,-0.3,-0.3,-0.1,-0.4,-0.3" 
class="s6_1"
>+1 passager</text>

<path d="M692.6,370.5l41.7,0l0,1.1l-41.7,0l0,-1.1Z" class="g71_1" />
<text 
x="688" 
y="395" 
dx="0" 
class="s4_1"
>(</text>

<text 
x="691" 
y="395" 
dx="0,-0.3,0.4,0.1,0.1,0.3,-0.3,-0.4,0.1,-0.4" 
class="s5_1"
>suggestion</text>

<text 
x="744" 
y="395" 
dx="0,-0.2,0.1,0.3,-0.4,0.6,0.5,-0.1,-0.2,0.1,0.5,-0.3,-0.3,-0.3,-0.2,-0.4,-0.3,0,0,0,-0.3,0.2,0.2" 
class="s4_1"
>.getMax_passenger() == </text>

<text 
x="653" 
y="408" 
dx="0,0.1,0.3,1,-0.1,-0.2,-0.4" 
class="s5_1"
>demande</text>

<text 
x="699" 
y="408" 
dx="0,-0.2,0.1,0.3,-0.4,0.6,0.5,-0.1,-0.2,0.1,0.5,-0.3,-0.3,-0.3,-0.2,-0.4,-0.3,0,0,0,-0.3,0,0" 
class="s4_1"
>.getMax_passenger() &amp;&amp; </text>

<text 
x="653" 
y="422" 
dx="0,-0.3,0.4,0.1,0.1,0.3,-0.3,-0.4,0.1,-0.4" 
class="s5_1"
>suggestion</text>

<text 
x="705" 
y="422" 
dx="0,-0.2,0.1,0.3,-0.4,0.6,0.5,0.5,-0.2,-0.4,-0.3,0.1,-0.1,-0.4,0,0,-0.3,0.2" 
class="s4_1"
>.getMax_delay() &gt; </text>

<text 
x="653" 
y="435" 
dx="0" 
class="s4_1"
>(</text>

<text 
x="656" 
y="435" 
dx="0,0.1,0.3,1,-0.1,-0.2,-0.4" 
class="s5_1"
>demande</text>

<text 
x="702" 
y="435" 
dx="0,-0.2,0.1,0.3,-0.4,0.6,0.5,-0.1,-0.2,0.1,-0.3,0.1,-0.1,-0.4,0,0,0.2,-0.4,-0.4,0,-0.3,0,0" 
class="s4_1"
>.getMax_delay()+10) &amp;&amp; </text>

<text 
x="653" 
y="448" 
dx="0,-0.3,0.4,0.1,0.1,0.3,-0.3,-0.4,0.1,-0.4" 
class="s5_1"
>suggestion</text>

<text 
x="705" 
y="448" 
dx="0,-0.2,0.1,0.3,-0.4,0.6,0.5,-0.1,-0.2,-0.4,0,0.1,-0.1,-0.3,0,0,-0.3,0.2" 
class="s4_1"
>.getMax_price() &gt; </text>

<text 
x="653" 
y="461" 
dx="0" 
class="s4_1"
>(</text>

<text 
x="656" 
y="461" 
dx="0,0.1,0.3,1,-0.1,-0.2,-0.4" 
class="s5_1"
>demande</text>

<text 
x="702" 
y="461" 
dx="0,-0.2,0.1,0.3,-0.4,0,-0.1,-0.1,-0.2,-0.4,0,0.1,-0.1,-0.3,0,0,-0.2,-0.4,-0.2,-0.4,-0.4,0,0,-0.3,0.1,0.1" 
class="s4_1"
>.getMax_price()*0.75)) || </text>

<text 
x="815" 
y="461" 
dx="0,0.1,0.1,0.3,-0.4,0,0.1" 
class="s6_1"
>// prix</text>

<path d="M827.6,462.8l17.5,0l0,1.1l-17.5,0l0,-1.1Z" class="g71_1" />
<text 
x="848" 
y="461" 
dx="0,0.7,-0.3,-0.4,-0.4,0.4" 
class="s6_1"
>&gt; 75% </text>

<text 
x="653" 
y="474" 
dx="0,0.1,0.4,0.1,-0.4,0.1,0.5,0.1,-0.2,0.3,0.1,0.5,-0.3,-0.3,0.3,0.4,0.1,-0.3,0,-0.3,0.2,-0.3,-0.2,-0.3,-0.4,-0.3,-0.3,0.1,-0.1,-0.4,0.1,-0.4,-0.2,-0.3,0.2,-0.3,-0.4,-0.4,-0.1,0.1" 
class="s6_1"
>initial, passenger = , deviation &gt; 10min</text>

<text 
x="688" 
y="501" 
dx="0" 
class="s4_1"
>(</text>

<text 
x="691" 
y="501" 
dx="0,-0.3,0.4,0.1,0.1,0.3,-0.3,-0.4,0.1,-0.4" 
class="s5_1"
>suggestion</text>

<text 
x="744" 
y="501" 
dx="0,-0.2,0.1,0.3,-0.4,0.6,0.5,-0.1,-0.2,0.1,0.5,-0.3,-0.3,-0.3,-0.2,-0.4,-0.3,0,0,0,-0.3,0.2" 
class="s4_1"
>.getMax_passenger() &lt; </text>

<text 
x="653" 
y="514" 
dx="0" 
class="s4_1"
>(</text>

<text 
x="656" 
y="514" 
dx="0,0.1,0.3,1,-0.1,-0.2,-0.4" 
class="s5_1"
>demande</text>

<text 
x="702" 
y="514" 
dx="0,-0.2,0.1,0.3,-0.4,0.6,0.5,-0.1,-0.2,0.1,0.5,-0.3,-0.3,-0.3,-0.2,-0.4,-0.3,0,0,0,0.2,-0.4,0,-0.3,0,0" 
class="s4_1"
>.getMax_passenger()+1) &amp;&amp; </text>

<text 
x="653" 
y="527" 
dx="0,-0.3,0.4,0.1,0.1,0.3,-0.3,-0.4,0.1,-0.4" 
class="s5_1"
>suggestion</text>

<text 
x="705" 
y="527" 
dx="0,-0.2,0.1,0.3,-0.4,0.6,0.5,-0.1,-0.2,-0.4,0,0.1,-0.1,-0.3,0,0,-0.3,0.2" 
class="s4_1"
>.getMax_price() &gt; </text>

<text 
x="653" 
y="540" 
dx="0" 
class="s4_1"
>(</text>

<text 
x="656" 
y="540" 
dx="0,0.1,0.3,1,-0.1,-0.2,-0.4" 
class="s5_1"
>demande</text>

<text 
x="702" 
y="540" 
dx="0,-0.2,0.1,0.3,-0.4,0,-0.1,-0.1,-0.2,-0.4,0,0.1,-0.1,-0.3,0,0,-0.2,-0.4,-0.2,-0.4,-0.4,0,0" 
class="s4_1"
>.getMax_price()*1.15)) </text>

<path d="M87.8,296.8l0,164.9" class="g67_1" />
<path d="M87.8,461.7l526.8,0" class="g67_1" />
<path d="M614.6,461.7l0,-164.9" class="g67_1" />
<path d="M614.6,296.8l-526.8,0" class="g67_1" />
<path d="M87.8,296.8l0,164.9" class="g3_1" />
<path d="M87.8,461.7l526.8,0" class="g3_1" />
<path d="M614.6,461.7l0,-164.9" class="g3_1" />
<path d="M614.6,296.8l-526.8,0" class="g3_1" />
<path d="M87.8,296.8l0,20.9l94.4,0l14.3,-15.4l0,-5.5l-108.7,0" class="g68_1" />
<path d="M87.8,296.8l0,20.9l94.4,0l14.3,-15.4l0,-5.5l-108.7,0Z" class="g3_1" />
<text 
x="93" 
y="309" 
dx="0,0.5,-0.3,-0.4,0.2,-0.3,-0.4,0.2,-0.4,1,0.9,0.4,0.4,0.4,-0.3,0.2,0.3" 
class="s2_1"
>alt if (TESTS OK)</text>

<path d="M98.8,483.7l0,44" class="g67_1" />
<path d="M98.8,527.7l526.8,0" class="g67_1" />
<path d="M625.6,527.7l0,-44" class="g67_1" />
<path d="M625.6,483.7l-526.8,0" class="g67_1" />
<path d="M98.8,483.7l0,44" class="g3_1" />
<path d="M98.8,527.7l526.8,0" class="g3_1" />
<path d="M625.6,527.7l0,-44" class="g3_1" />
<path d="M625.6,483.7l-526.8,0" class="g3_1" />
<path d="M98.8,483.7l0,20.9l218.4,0l14.3,-15.4l0,-5.5l-232.7,0" class="g68_1" />
<path d="M98.8,483.7l0,20.9l218.4,0l14.3,-15.4l0,-5.5l-232.7,0Z" class="g3_1" />
<text 
x="104" 
y="496" 
dx="0,0.5,-0.3,-0.4,0.2,0.9,0.5,-0.4,0.5,-0.4,0.5,1,0.5,0.5,0.2,0.9,-0.3,0.5,1,0.9,0.5,1,1,0.5,1,0.5,0.5,0.8,0.5,-0.4,0.4,-0.4,-0.3,0.4,-0.3,0.4,-0.4" 
class="s2_1"
>alt Reference DiagSequenceGetTripInfo</text>

<text 
x="104" 
y="518" 
dx="0,0.2,1.5,-0.2,0.5,0.5,0.2,-0.4,1,0.9,0.9,1,0.2,0.9,0.8,-0.4" 
class="s1_1"
>[Else (TEST KO)]</text>

<path d="M98.8,208.8l131.7,0" class="g3_1" />
<path d="M217.3,204.4l0,4.4l0,4.4l13.2,-4.4l-13.2,-4.4" class="g72_1" />
<path d="M241.5,247.3l150.3,0" class="g3_1" />
<path d="M378.7,242.9l0,4.4l0,4.4l13.1,-4.4l-13.1,-4.4" class="g72_1" />
<path d="M402.8,285.8l162.4,0" class="g3_1" />
<path d="M552.1,281.4l0,4.4l0,4.4l13.1,-4.4l-13.1,-4.4" class="g72_1" />
<path d="M565.2,381.5l-156.9,0" class="g3_1" />
<path d="M421.5,377.1l0,4.4l0,4.4l-13.2,-4.4l13.2,-4.4" class="g72_1" />
<path d="M391.8,419.9l-144.8,0" class="g3_1" />
<path d="M260.1,415.5l0,4.4l0,4.4L247,419.9l13.1,-4.4" class="g72_1" />
<path d="M230.5,463.9l-126.2,0" class="g3_1" />
<path d="M117.4,459.5l0,4.4l0,4.4l-13.1,-4.4l13.1,-4.4" class="g72_1" />
<path d="M106.5,448.5l127.3,0l0,12.1l-127.3,0l0,-12.1Z" class="g73_1" />
<text 
x="106" 
y="458" 
dx="0,1.4,1,0.2,1,0.2,1,0.2,0.9,0.5,0.5,0.5,0.5,0.5,-0.3,-0.2,0.5,0.5,0.2,0.9,0.8,-0.4" 
class="s1_1"
>Return Suggestion KO()</text>

<path d="M279.9,404.5l35.1,0l0,12.1l-35.1,0l0,-12.1Z" class="g73_1" />
<text 
x="279" 
y="414" 
dx="0,1.4,0.5,-0.3,0.5,-0.4" 
class="s1_1"
>Return</text>

<path d="M260.1,418.8l77.9,0l0,12.1l-77.9,0l0,-12.1Z" class="g73_1" />
<text 
x="260" 
y="428" 
dx="0,1.5,1,1,1,0.5,0,-0.3,-0.2,0.5,0.5,0.9" 
class="s1_1"
>SuggestionKO</text>

<path d="M294.1,433.1l6.6,0l0,12.1l-6.6,0l0,-12.1Z" class="g73_1" />
<text 
x="294" 
y="443" 
dx="0,-0.4" 
class="s1_1"
>()</text>

<path d="M439,366.1l35.1,0l0,12.1l-35.1,0l0,-12.1Z" class="g73_1" />
<text 
x="439" 
y="375" 
dx="0,1.4,0.5,-0.3,0.5,-0.4" 
class="s1_1"
>Return</text>

<path d="M425.9,380.4l60.3,0l0,12l-60.3,0l0,-12Z" class="g73_1" />
<text 
x="425" 
y="390" 
dx="0,1.5,1,1,0.5,0.5,0.5,-0.3,-0.2,0.5" 
class="s1_1"
>Suggestion</text>

<path d="M444.5,394.6l24.2,0l0,12.1l-24.2,0l0,-12.1Z" class="g73_1" />
<text 
x="444" 
y="404" 
dx="0,0.9,0.8,-0.4" 
class="s1_1"
>KO()</text>

<path d="M99.9,193.4l128.4,0l0,12.1l-128.4,0l0,-12.1Z" class="g73_1" />
<text 
x="99" 
y="203" 
dx="0,1.4,1,1,1,0.3,1,1.5,1,0.3,0.3,0.5,0.5,-0.3,0.5,0.9,0.5,0.5,0.5,0.5,0.5" 
class="s1_1"
>HandleValidateRequest</text>

<path d="M158,207.7l6.6,0l0,12.1l-6.6,0l0,-12.1Z" class="g73_1" />
<text 
x="158" 
y="217" 
dx="0,-0.4" 
class="s1_1"
>()</text>

<path d="M378.7,270.4l220.6,0l0,12.1l-220.6,0l0,-12.1Z" class="g73_1" />
<text 
x="378" 
y="280" 
dx="0,1.5,1,0.3,0.3,1,1,0.2,1,1.5,1,1,1,1,0.5,0.2,0.3,1,1,-0.4,0.9,0.5,0.7,0.5,0.5,0.5,0.5,0.2,0.5,0.5,0.7,0.5,0.5,0.5,0.5" 
class="s1_1"
>ValidateSuggestion(Demande demande)</text>

<path d="M242.6,231.9l153.6,0l0,12.1l-153.6,0l0,-12.1Z" class="g73_1" />
<text 
x="242" 
y="241" 
dx="0,1.5,1.3,1.5,1.5,0.2,0.8,1,0.2,0.2,1,0.2,0.2,0.2,-0.3,-0.3,-0.3,-0.3,0.5,0.5,0.5,0.5,0.5,0.5,-0.3,-0.2,0.5,0.5,0.5,-0.4" 
class="s1_1"
>POST: http://.../suggestions()</text>



<!-- Any embedded fonts defined here -->
<style type="text/css" ><![CDATA[

@font-face {
	font-family: ArialUnicode_c;
	src: url("fonts/ArialUnicode_c.woff") format("woff");
}

@font-face {
	font-family: SegoeUIUnicode_u;
	src: url("fonts/SegoeUIUnicode_u.woff") format("woff");
}

@font-face {
	font-family: SegoeUIUnicode-Bold_o;
	src: url("fonts/SegoeUIUnicode-Bold_o.woff") format("woff");
}

@font-face {
	font-family: ArialUnicode-Bold_i;
	src: url("fonts/ArialUnicode-Bold_i.woff") format("woff");
}

]]></style>

</svg>
